STARTFONT 2.1
COMMENT
COMMENT Converted from OpenType font "notosans.ttf" by "otf2bdf 3.0".
COMMENT
FONT -FreeType-Noto Sans-Medium-R-Normal--33-240-100-100-P-165-ISO10646-1
SIZE 24 100 100
FONTBOUNDINGBOX 114 58 -21 -13
STARTPROPERTIES 19
FOUNDRY "FreeType"
FAMILY_NAME "Noto Sans"
WEIGHT_NAME "Medium"
SLANT "R"
SETWIDTH_NAME "Normal"
ADD_STYLE_NAME ""
PIXEL_SIZE 33
POINT_SIZE 240
RESOLUTION_X 100
RESOLUTION_Y 100
SPACING "P"
AVERAGE_WIDTH 165
CHARSET_REGISTRY "ISO10646"
CHARSET_ENCODING "1"
FONT_ASCENT 35
FONT_DESCENT 9
COPYRIGHT "Copyright 2015-2021 Google LLC. All Rights Reserved."
_OTF_FONTFILE "notosans.ttf"
_OTF_PSNAME "NotoSans-Regular"
ENDPROPERTIES
CHARS 3053
STARTCHAR 0000
ENCODING 0
SWIDTH 0 0
DWIDTH 0 0
BBX 0 0 0 0
BITMAP
ENDCHAR
STARTCHAR 000D
ENCODING 13
SWIDTH 240 0
DWIDTH 8 0
BBX 0 0 0 0
BITMAP
ENDCHAR
STARTCHAR 0020
ENCODING 32
SWIDTH 240 0
DWIDTH 8 0
BBX 0 0 0 0
BITMAP
ENDCHAR
STARTCHAR 0021
ENCODING 33
SWIDTH 240 0
DWIDTH 8 0
BBX 5 24 2 0
BITMAP
70
70
70
70
70
70
70
70
70
70
70
70
70
70
70
70
60
00
00
00
70
F0
F8
70
ENDCHAR
STARTCHAR 0022
ENCODING 34
SWIDTH 390 0
DWIDTH 13 0
BBX 9 9 2 15
BITMAP
E380
E380
E380
E180
E180
6180
6180
6180
6180
ENDCHAR
STARTCHAR 0023
ENCODING 35
SWIDTH 630 0
DWIDTH 21 0
BBX 20 24 1 0
BITMAP
01C380
018380
018300
018300
038300
038700
030700
7FFFF0
7FFFF0
030600
070E00
060E00
060C00
060C00
060C00
FFFFE0
FFFFE0
0C1800
0C1800
0C1800
1C3800
1C3800
183000
183000
ENDCHAR
STARTCHAR 0024
ENCODING 36
SWIDTH 570 0
DWIDTH 19 0
BBX 15 27 2 -2
BITMAP
0380
0380
0380
1FFC
7FFC
7B9C
E380
E380
E380
E380
7B80
7F80
1FE0
07F8
03FC
039E
038E
038E
038E
038E
F3FC
FFF8
7FF0
0380
0380
0380
0380
ENDCHAR
STARTCHAR 0025
ENCODING 37
SWIDTH 810 0
DWIDTH 27 0
BBX 24 24 2 0
BITMAP
3E0070
7F00E0
E380C0
E181C0
C18180
C18380
C18300
C1C700
C18600
C18E20
C19CFC
E399FE
773986
7F3187
1C7387
006383
00E383
00C383
01C383
038387
030187
0701C6
0600FE
0E00FC
ENDCHAR
STARTCHAR 0026
ENCODING 38
SWIDTH 720 0
DWIDTH 24 0
BBX 22 24 2 0
BITMAP
07E000
1FF800
1E7800
381C00
381C00
381C00
381C00
3C3800
1C7800
0FF000
07C000
0F8000
3FC038
78F030
707870
E03C70
E01EE0
E00FE0
E007C0
E007C0
F00FE0
7C3EF0
3FFC78
1FF03C
ENDCHAR
STARTCHAR 0027
ENCODING 39
SWIDTH 210 0
DWIDTH 7 0
BBX 3 9 2 15
BITMAP
E0
E0
E0
E0
E0
60
60
60
60
ENDCHAR
STARTCHAR 0028
ENCODING 40
SWIDTH 300 0
DWIDTH 10 0
BBX 8 29 1 -5
BITMAP
07
0E
0C
1C
38
38
38
70
70
70
70
70
E0
E0
E0
E0
E0
E0
70
70
70
70
78
38
38
1C
1C
0E
06
ENDCHAR
STARTCHAR 0029
ENCODING 41
SWIDTH 300 0
DWIDTH 10 0
BBX 8 29 1 -5
BITMAP
E0
70
70
38
38
1C
1C
0E
0E
0E
0E
0E
07
07
07
07
07
07
0E
0E
0E
0E
1E
1C
1C
38
38
70
60
ENDCHAR
STARTCHAR 002A
ENCODING 42
SWIDTH 540 0
DWIDTH 18 0
BBX 16 15 1 10
BITMAP
01C0
01C0
0180
0180
4181
799F
FFFF
3FFC
03C0
07E0
0E70
0E78
1C38
1C38
0400
ENDCHAR
STARTCHAR 002B
ENCODING 43
SWIDTH 570 0
DWIDTH 19 0
BBX 15 16 2 4
BITMAP
0380
0380
0380
0380
0380
0380
0380
FFFE
FFFE
0380
0380
0380
0380
0380
0380
0380
ENDCHAR
STARTCHAR 002C
ENCODING 44
SWIDTH 240 0
DWIDTH 8 0
BBX 4 8 2 -4
BITMAP
70
70
70
E0
E0
E0
C0
C0
ENDCHAR
STARTCHAR 002D
ENCODING 45
SWIDTH 300 0
DWIDTH 10 0
BBX 8 2 1 8
BITMAP
FF
FF
ENDCHAR
STARTCHAR 002E
ENCODING 46
SWIDTH 240 0
DWIDTH 8 0
BBX 5 4 2 0
BITMAP
70
F0
F8
70
ENDCHAR
STARTCHAR 002F
ENCODING 47
SWIDTH 360 0
DWIDTH 12 0
BBX 11 24 1 0
BITMAP
00E0
00E0
01C0
01C0
0180
0380
0380
0700
0700
0700
0E00
0E00
0E00
1C00
1C00
3800
3800
3800
7000
7000
7000
E000
E000
C000
ENDCHAR
STARTCHAR 0030
ENCODING 48
SWIDTH 570 0
DWIDTH 19 0
BBX 15 24 2 0
BITMAP
0FE0
1FF0
3C78
783C
701C
E00E
E00E
E00E
E00E
E00E
E00E
E00E
E00E
E00E
E00E
E00E
E00E
E00E
E00E
701C
701C
3C78
1FF8
0FE0
ENDCHAR
STARTCHAR 0031
ENCODING 49
SWIDTH 570 0
DWIDTH 19 0
BBX 9 24 3 0
BITMAP
0380
0780
1F80
3F80
7B80
F380
4380
0380
0380
0380
0380
0380
0380
0380
0380
0380
0380
0380
0380
0380
0380
0380
0380
0380
ENDCHAR
STARTCHAR 0032
ENCODING 50
SWIDTH 570 0
DWIDTH 19 0
BBX 15 24 2 0
BITMAP
0FE0
3FF0
FCF8
603C
401C
001C
001C
001C
001C
001C
0038
0078
00F0
00E0
01C0
0380
0700
0E00
1C00
3800
7000
FFFE
FFFE
FFFE
ENDCHAR
STARTCHAR 0033
ENCODING 51
SWIDTH 570 0
DWIDTH 19 0
BBX 16 24 1 0
BITMAP
0FF0
3FFC
7C7C
701E
000E
000E
000E
000E
000E
001C
0FF8
0FE0
0FFC
003E
000F
0007
0007
0007
0007
0007
800E
F03E
FFFC
3FF0
ENDCHAR
STARTCHAR 0034
ENCODING 52
SWIDTH 570 0
DWIDTH 19 0
BBX 17 24 1 0
BITMAP
001C00
003C00
007C00
00FC00
00FC00
01DC00
039C00
039C00
071C00
0E1C00
0C1C00
1C1C00
381C00
301C00
701C00
E01C00
FFFF80
FFFF80
FFFF80
001C00
001C00
001C00
001C00
001C00
ENDCHAR
STARTCHAR 0035
ENCODING 53
SWIDTH 570 0
DWIDTH 19 0
BBX 15 24 2 0
BITMAP
3FFC
7FFC
7FFC
7000
7000
7000
7000
7000
7000
7300
7FF0
7FF8
003C
001E
000E
000E
000E
000E
000E
001E
801C
F07C
FFF8
7FE0
ENDCHAR
STARTCHAR 0036
ENCODING 54
SWIDTH 570 0
DWIDTH 19 0
BBX 16 24 2 0
BITMAP
01FC
07FC
1F84
3C00
3800
7000
7000
6000
E000
E3E0
EFF8
FE7C
F81E
F00E
E00E
E006
E007
E006
E00E
700E
781E
3C3C
1FF8
0FF0
ENDCHAR
STARTCHAR 0037
ENCODING 55
SWIDTH 570 0
DWIDTH 19 0
BBX 16 24 1 0
BITMAP
FFFF
FFFF
FFFF
0007
0007
000E
000E
001C
001C
0038
0038
0070
0070
00E0
00E0
01E0
01C0
01C0
0380
0380
0700
0700
0E00
0E00
ENDCHAR
STARTCHAR 0038
ENCODING 56
SWIDTH 570 0
DWIDTH 19 0
BBX 15 24 2 0
BITMAP
0FE0
3FF8
7C7C
701C
F00E
E00E
E00E
701C
781C
3C78
1FF0
0FC0
1FF0
3878
703C
E00E
E00E
E006
E00E
E00E
E00E
783C
3FF8
1FF0
ENDCHAR
STARTCHAR 0039
ENCODING 57
SWIDTH 570 0
DWIDTH 19 0
BBX 15 24 2 0
BITMAP
0FC0
3FF0
7CF8
703C
E01C
E00E
E00E
E00E
E00E
E00E
E00E
F01E
787E
3FEE
1FCE
000E
000E
001C
001C
003C
0078
01F0
7FE0
7F80
ENDCHAR
STARTCHAR 003A
ENCODING 58
SWIDTH 240 0
DWIDTH 8 0
BBX 5 18 2 0
BITMAP
70
F8
F0
70
00
00
00
00
00
00
00
00
00
00
70
F0
F8
70
ENDCHAR
STARTCHAR 003B
ENCODING 59
SWIDTH 240 0
DWIDTH 8 0
BBX 5 22 1 -4
BITMAP
38
78
78
38
00
00
00
00
00
00
00
00
00
00
38
78
78
70
70
60
E0
E0
ENDCHAR
STARTCHAR 003C
ENCODING 60
SWIDTH 570 0
DWIDTH 19 0
BBX 15 16 2 4
BITMAP
0002
000E
003E
00F8
03E0
0F80
3E00
F000
E000
FC00
1F00
07E0
01F8
007E
000E
0002
ENDCHAR
STARTCHAR 003D
ENCODING 61
SWIDTH 570 0
DWIDTH 19 0
BBX 15 9 2 7
BITMAP
FFFE
FFFE
0000
0000
0000
0000
FFFE
FFFE
FFFE
ENDCHAR
STARTCHAR 003E
ENCODING 62
SWIDTH 570 0
DWIDTH 19 0
BBX 15 16 2 4
BITMAP
8000
E000
F800
3E00
0F80
03E0
00F8
001E
000E
007E
01F0
07C0
3F00
FC00
E000
8000
ENDCHAR
STARTCHAR 003F
ENCODING 63
SWIDTH 420 0
DWIDTH 14 0
BBX 14 24 0 0
BITMAP
1FC0
FFF0
7DF8
4038
0018
001C
001C
0038
0038
0070
00E0
01C0
0380
0700
0600
0600
0600
0000
0000
0000
0E00
0F00
0F00
0F00
ENDCHAR
STARTCHAR 0040
ENCODING 64
SWIDTH 870 0
DWIDTH 29 0
BBX 26 27 2 -3
BITMAP
001F8000
00FFF000
03F9FC00
07801E00
0E000F00
1C000700
38000380
703FE180
707FE1C0
60E0E1C0
E1C0E0C0
E1C0E0C0
C180E0C0
C180C0C0
C180C1C0
C180C1C0
C1C1C180
E1C1E380
E0FF7F00
607E3E00
70000000
30000000
38000000
1E001000
0FC1F000
03FFF000
00FF8000
ENDCHAR
STARTCHAR 0041
ENCODING 65
SWIDTH 630 0
DWIDTH 21 0
BBX 21 24 0 0
BITMAP
007000
007800
00F800
00F800
00DC00
01DC00
01CC00
038E00
038E00
038700
070700
070700
0E0380
0E0380
0FFFC0
1FFFC0
1FFFC0
1C00E0
3800E0
3800F0
700070
700070
700038
E00038
ENDCHAR
STARTCHAR 0042
ENCODING 66
SWIDTH 630 0
DWIDTH 21 0
BBX 17 24 3 0
BITMAP
FFE000
FFFC00
FFFE00
E01F00
E00F00
E00700
E00700
E00700
E00F00
E00E00
FFFC00
FFF000
FFFC00
E00F00
E00700
E00780
E00380
E00380
E00780
E00780
E00F00
FFFE00
FFFC00
FFF000
ENDCHAR
STARTCHAR 0043
ENCODING 67
SWIDTH 630 0
DWIDTH 21 0
BBX 18 24 2 0
BITMAP
01FF00
07FFC0
0FFF80
1E0080
3C0000
780000
700000
700000
F00000
E00000
E00000
E00000
E00000
E00000
E00000
F00000
700000
700000
780000
3C0000
3E0000
1F8380
0FFF80
03FF80
ENDCHAR
STARTCHAR 0044
ENCODING 68
SWIDTH 720 0
DWIDTH 24 0
BBX 19 24 3 0
BITMAP
FFE000
FFFC00
FFFE00
E01F00
E00780
E003C0
E001C0
E001E0
E000E0
E000E0
E000E0
E000E0
E000E0
E000E0
E000E0
E000E0
E001E0
E001C0
E003C0
E00780
E00F00
FFFE00
FFFC00
FFE000
ENDCHAR
STARTCHAR 0045
ENCODING 69
SWIDTH 540 0
DWIDTH 18 0
BBX 14 24 3 0
BITMAP
FFFC
FFFC
FFFC
E000
E000
E000
E000
E000
E000
E000
FFF8
FFF8
FFF8
E000
E000
E000
E000
E000
E000
E000
E000
FFFC
FFFC
FFFC
ENDCHAR
STARTCHAR 0046
ENCODING 70
SWIDTH 510 0
DWIDTH 17 0
BBX 14 24 3 0
BITMAP
FFFC
FFFC
FFFC
E000
E000
E000
E000
E000
E000
E000
E000
FFF8
FFF8
FFF8
E000
E000
E000
E000
E000
E000
E000
E000
E000
E000
ENDCHAR
STARTCHAR 0047
ENCODING 71
SWIDTH 720 0
DWIDTH 24 0
BBX 20 24 2 0
BITMAP
00FF80
03FFE0
0FFFE0
1F0060
3C0000
380000
780000
700000
F00000
E00000
E00000
E00FF0
E00FF0
E00FF0
E00070
F00070
700070
700070
780070
3C0070
3E0070
1FC1F0
07FFF0
01FFE0
ENDCHAR
STARTCHAR 0048
ENCODING 72
SWIDTH 720 0
DWIDTH 24 0
BBX 18 24 3 0
BITMAP
E001C0
E001C0
E001C0
E001C0
E001C0
E001C0
E001C0
E001C0
E001C0
E001C0
FFFFC0
FFFFC0
FFFFC0
E001C0
E001C0
E001C0
E001C0
E001C0
E001C0
E001C0
E001C0
E001C0
E001C0
E001C0
ENDCHAR
STARTCHAR 0049
ENCODING 73
SWIDTH 330 0
DWIDTH 11 0
BBX 9 24 1 0
BITMAP
FF80
FF80
1E00
1C00
1C00
1C00
1C00
1C00
1C00
1C00
1C00
1C00
1C00
1C00
1C00
1C00
1C00
1C00
1C00
1C00
1C00
1C00
FF80
FF80
ENDCHAR
STARTCHAR 004A
ENCODING 74
SWIDTH 270 0
DWIDTH 9 0
BBX 9 30 -3 -6
BITMAP
0380
0380
0380
0380
0380
0380
0380
0380
0380
0380
0380
0380
0380
0380
0380
0380
0380
0380
0380
0380
0380
0380
0380
0380
0380
0380
0780
8F00
FF00
FC00
ENDCHAR
STARTCHAR 004B
ENCODING 75
SWIDTH 600 0
DWIDTH 20 0
BBX 17 24 3 0
BITMAP
E00780
E00700
E00E00
E01C00
E03800
E07000
E0F000
E1E000
E3C000
E78000
EF0000
EF8000
FF8000
FBC000
F1E000
E0E000
E07000
E07800
E03C00
E01C00
E01E00
E00F00
E00780
E00380
ENDCHAR
STARTCHAR 004C
ENCODING 76
SWIDTH 510 0
DWIDTH 17 0
BBX 14 24 3 0
BITMAP
E000
E000
E000
E000
E000
E000
E000
E000
E000
E000
E000
E000
E000
E000
E000
E000
E000
E000
E000
E000
E000
FFFC
FFFC
FFFC
ENDCHAR
STARTCHAR 004D
ENCODING 77
SWIDTH 900 0
DWIDTH 30 0
BBX 24 24 3 0
BITMAP
F8001F
F8001F
FC001F
FC003F
FC003F
EE0037
EE0077
E60067
E700E7
E700E7
E380C7
E381C7
E381C7
E1C387
E1C387
E0C307
E0E707
E0E707
E07607
E07E07
E07E07
E03C07
E03C07
E01807
ENDCHAR
STARTCHAR 004E
ENCODING 78
SWIDTH 750 0
DWIDTH 25 0
BBX 19 24 3 0
BITMAP
F000E0
F800E0
F800E0
FC00E0
FC00E0
EE00E0
EF00E0
E700E0
E380E0
E3C0E0
E1C0E0
E0E0E0
E0F0E0
E070E0
E078E0
E03CE0
E01CE0
E01EE0
E00EE0
E007E0
E007E0
E003E0
E001E0
E001E0
ENDCHAR
STARTCHAR 004F
ENCODING 79
SWIDTH 780 0
DWIDTH 26 0
BBX 22 24 2 0
BITMAP
01FE00
07FF80
1FFFE0
3E01E0
3C00F0
780078
700038
700038
F0003C
E0001C
E0001C
E0001C
E0001C
E0001C
E0001C
F0003C
700038
700038
780078
380070
3E00F0
1F87E0
0FFFC0
03FF00
ENDCHAR
STARTCHAR 0050
ENCODING 80
SWIDTH 600 0
DWIDTH 20 0
BBX 15 24 3 0
BITMAP
FF80
FFF8
FFFC
E03E
E01E
E00E
E00E
E00E
E00E
E00E
E01E
E03C
FFF8
FFF0
FF80
E000
E000
E000
E000
E000
E000
E000
E000
E000
ENDCHAR
STARTCHAR 0051
ENCODING 81
SWIDTH 780 0
DWIDTH 26 0
BBX 22 30 2 -6
BITMAP
01FE00
07FF80
1FFFE0
3E01E0
3C00F0
780078
700038
700038
F0003C
E0001C
E0001C
E0001C
E0001C
E0001C
E0001C
F0003C
700038
700038
780078
380070
3E00F0
1F87E0
0FFFC0
03FF00
000F00
000780
0003C0
0001E0
0001F0
0000F8
ENDCHAR
STARTCHAR 0052
ENCODING 82
SWIDTH 600 0
DWIDTH 20 0
BBX 17 24 3 0
BITMAP
FFC000
FFF800
FFFC00
E03E00
E00E00
E00E00
E00E00
E00E00
E00E00
E00E00
E01E00
E0FC00
FFF000
FFE000
E0E000
E07000
E07800
E03800
E01C00
E01C00
E00E00
E00F00
E00700
E00780
ENDCHAR
STARTCHAR 0053
ENCODING 83
SWIDTH 540 0
DWIDTH 18 0
BBX 15 24 2 0
BITMAP
0FF0
3FFC
7FFC
F000
E000
E000
E000
E000
F000
7800
3F00
1FC0
07F0
01F8
003C
001C
001E
000E
000E
001C
001C
F078
FFF8
FFE0
ENDCHAR
STARTCHAR 0054
ENCODING 84
SWIDTH 540 0
DWIDTH 18 0
BBX 18 24 0 0
BITMAP
FFFFC0
FFFFC0
FFFFC0
00E000
00E000
00E000
00E000
00E000
00E000
00E000
00E000
00E000
00E000
00E000
00E000
00E000
00E000
00E000
00E000
00E000
00E000
00E000
00E000
00E000
ENDCHAR
STARTCHAR 0055
ENCODING 85
SWIDTH 720 0
DWIDTH 24 0
BBX 18 24 3 0
BITMAP
E001C0
E001C0
E001C0
E001C0
E001C0
E001C0
E001C0
E001C0
E001C0
E001C0
E001C0
E001C0
E001C0
E001C0
E001C0
E001C0
E001C0
E001C0
E001C0
7003C0
780780
3F1F00
1FFE00
07FC00
ENDCHAR
STARTCHAR 0056
ENCODING 86
SWIDTH 600 0
DWIDTH 20 0
BBX 20 24 0 0
BITMAP
E00070
F000F0
7000E0
7000E0
3801C0
3801C0
3801C0
1C0380
1C0380
1C0380
0E0700
0E0700
0E0F00
070E00
070E00
079E00
039C00
039C00
01B800
01F800
01F800
00F000
00F000
00F000
ENDCHAR
STARTCHAR 0057
ENCODING 87
SWIDTH 930 0
DWIDTH 31 0
BBX 30 24 0 0
BITMAP
F003801C
7007801C
7007C01C
7007C01C
3806C038
380EE038
380EE038
380EE038
1C1C6070
1C1C7070
1C1C7070
1C187070
0E3838E0
0E3838E0
0E3838E0
0E701CE0
07701DC0
07701DC0
07600DC0
03E00D80
03E00F80
03C00F80
03C00780
01C00700
ENDCHAR
STARTCHAR 0058
ENCODING 88
SWIDTH 570 0
DWIDTH 19 0
BBX 19 24 0 0
BITMAP
7001E0
7801C0
380380
1C0380
1E0700
0E0E00
070E00
079C00
03B800
01F800
01F000
00F000
01F000
01F800
03B800
039C00
071E00
0E0E00
0E0700
1C0780
380380
3803C0
7001C0
F000E0
ENDCHAR
STARTCHAR 0059
ENCODING 89
SWIDTH 540 0
DWIDTH 18 0
BBX 19 24 0 0
BITMAP
E001E0
7001C0
7003C0
380380
3C0780
1C0700
1E0E00
0E0E00
0F1C00
071C00
03B800
03B800
01F000
01F000
00E000
00E000
00E000
00E000
00E000
00E000
00E000
00E000
00E000
00E000
ENDCHAR
STARTCHAR 005A
ENCODING 90
SWIDTH 570 0
DWIDTH 19 0
BBX 17 24 1 0
BITMAP
7FFF00
7FFF00
7FFF00
000F00
000E00
001C00
003C00
003800
007000
00F000
00E000
01C000
03C000
038000
070000
0F0000
0E0000
1C0000
3C0000
380000
700000
FFFF80
FFFF80
FFFF80
ENDCHAR
STARTCHAR 005B
ENCODING 91
SWIDTH 300 0
DWIDTH 10 0
BBX 7 29 3 -5
BITMAP
FE
FE
FE
E0
E0
E0
E0
E0
E0
E0
E0
E0
E0
E0
E0
E0
E0
E0
E0
E0
E0
E0
E0
E0
E0
E0
E0
FE
FE
ENDCHAR
STARTCHAR 005C
ENCODING 92
SWIDTH 360 0
DWIDTH 12 0
BBX 12 24 0 0
BITMAP
E000
7000
7000
3000
3800
3800
1C00
1C00
1C00
0E00
0E00
0600
0700
0700
0380
0380
0380
01C0
01C0
00C0
00E0
00E0
0070
0070
ENDCHAR
STARTCHAR 005D
ENCODING 93
SWIDTH 300 0
DWIDTH 10 0
BBX 7 29 1 -5
BITMAP
FE
FE
FE
0E
0E
0E
0E
0E
0E
0E
0E
0E
0E
0E
0E
0E
0E
0E
0E
0E
0E
0E
0E
0E
0E
0E
0E
FE
FE
ENDCHAR
STARTCHAR 005E
ENCODING 94
SWIDTH 570 0
DWIDTH 19 0
BBX 15 15 2 9
BITMAP
0300
0380
0780
07C0
0EC0
0CE0
1C60
1870
3830
3038
7018
601C
E00C
E00E
C006
ENDCHAR
STARTCHAR 005F
ENCODING 95
SWIDTH 420 0
DWIDTH 14 0
BBX 15 2 0 -5
BITMAP
FFFE
FFFE
ENDCHAR
STARTCHAR 0060
ENCODING 96
SWIDTH 270 0
DWIDTH 9 0
BBX 7 6 1 20
BITMAP
F0
70
38
1C
0C
06
ENDCHAR
STARTCHAR 0061
ENCODING 97
SWIDTH 540 0
DWIDTH 18 0
BBX 14 18 2 0
BITMAP
0FE0
3FF8
3C78
203C
001C
001C
001C
01FC
3FFC
7E1C
F01C
E01C
E01C
E01C
E03C
F0FC
7FCC
3F8C
ENDCHAR
STARTCHAR 0062
ENCODING 98
SWIDTH 600 0
DWIDTH 20 0
BBX 16 25 3 0
BITMAP
E000
E000
E000
E000
E000
E000
E000
E7E0
EFF8
FC7C
F01E
F00E
E00E
E00E
E007
E007
E007
E007
E00E
E00E
E00E
F01E
FC3C
DFF8
C7F0
ENDCHAR
STARTCHAR 0063
ENCODING 99
SWIDTH 480 0
DWIDTH 16 0
BBX 13 18 2 0
BITMAP
0FF0
1FF8
3E70
7800
7000
E000
E000
E000
E000
E000
E000
E000
E000
F000
7000
3C18
3FF8
0FF0
ENDCHAR
STARTCHAR 0064
ENCODING 100
SWIDTH 600 0
DWIDTH 20 0
BBX 16 25 2 0
BITMAP
0007
0007
0007
0007
0007
0007
0007
0FC7
3FF7
3C7F
781F
F00F
E00F
E007
E007
E007
E007
E007
E007
E00F
F00F
701F
7C3F
3FF7
0FE7
ENDCHAR
STARTCHAR 0065
ENCODING 101
SWIDTH 540 0
DWIDTH 18 0
BBX 15 18 2 0
BITMAP
0FE0
1FF8
3C7C
701C
701E
E00E
E00E
FFFE
FFFE
FFFE
E000
E000
E000
7000
7800
3E0C
1FFC
0FFC
ENDCHAR
STARTCHAR 0066
ENCODING 102
SWIDTH 330 0
DWIDTH 11 0
BBX 13 26 0 0
BITMAP
0040
03F8
07F0
0F00
0E00
0E00
0E00
0E00
3FE0
FFE0
0E00
0E00
0E00
0E00
0E00
0E00
0E00
0E00
0E00
0E00
0E00
0E00
0E00
0E00
0E00
0E00
ENDCHAR
STARTCHAR 0067
ENCODING 103
SWIDTH 600 0
DWIDTH 20 0
BBX 16 26 2 -8
BITMAP
0FC7
1FF7
3E7F
781F
700F
E00F
E007
E007
E007
E007
E007
E007
E00F
F00F
700F
7C3F
3FF7
0FE7
0007
0007
000E
000E
401E
7EFC
7FF8
1FE0
ENDCHAR
STARTCHAR 0068
ENCODING 104
SWIDTH 600 0
DWIDTH 20 0
BBX 15 25 3 0
BITMAP
E000
E000
E000
E000
E000
E000
E000
E7F0
EFF8
FE7C
F01C
F00E
E00E
E00E
E00E
E00E
E00E
E00E
E00E
E00E
E00E
E00E
E00E
E00E
E00E
ENDCHAR
STARTCHAR 0069
ENCODING 105
SWIDTH 240 0
DWIDTH 8 0
BBX 3 24 3 1
BITMAP
E0
E0
E0
00
00
00
E0
E0
E0
E0
E0
E0
E0
E0
E0
E0
E0
E0
E0
E0
E0
E0
E0
E0
ENDCHAR
STARTCHAR 006A
ENCODING 106
SWIDTH 240 0
DWIDTH 8 0
BBX 8 32 -2 -7
BITMAP
07
07
07
00
00
00
07
07
07
07
07
07
07
07
07
07
07
07
07
07
07
07
07
07
07
07
07
07
0F
DE
FE
F8
ENDCHAR
STARTCHAR 006B
ENCODING 107
SWIDTH 510 0
DWIDTH 17 0
BBX 14 25 3 0
BITMAP
E000
E000
E000
E000
E000
E000
E000
E03C
E078
E0F0
E1E0
E3C0
E780
E700
EE00
FE00
FF00
F780
E3C0
E1C0
E0E0
E0F0
E078
E038
E01C
ENDCHAR
STARTCHAR 006C
ENCODING 108
SWIDTH 240 0
DWIDTH 8 0
BBX 3 25 3 0
BITMAP
E0
E0
E0
E0
E0
E0
E0
E0
E0
E0
E0
E0
E0
E0
E0
E0
E0
E0
E0
E0
E0
E0
E0
E0
E0
ENDCHAR
STARTCHAR 006D
ENCODING 109
SWIDTH 930 0
DWIDTH 31 0
BBX 25 18 3 0
BITMAP
C7E0FE00
CFF9FF00
FC7BCF80
F03E0380
E01E0380
E01C0380
E01C0180
E01C0180
E01C0180
E01C0180
E01C0180
E01C0180
E01C0180
E01C0180
E01C0180
E01C0180
E01C0180
E01C0180
ENDCHAR
STARTCHAR 006E
ENCODING 110
SWIDTH 600 0
DWIDTH 20 0
BBX 15 18 3 0
BITMAP
C7F0
CFF8
FE7C
F01E
F00E
E00E
E00E
E00E
E00E
E00E
E00E
E00E
E00E
E00E
E00E
E00E
E00E
E00E
ENDCHAR
STARTCHAR 006F
ENCODING 111
SWIDTH 600 0
DWIDTH 20 0
BBX 16 18 2 0
BITMAP
0FF0
1FF8
3E7C
780E
700F
E007
E007
E007
E007
E007
E007
E007
E007
700F
700E
3C3C
1FFC
0FF0
ENDCHAR
STARTCHAR 0070
ENCODING 112
SWIDTH 600 0
DWIDTH 20 0
BBX 16 26 3 -8
BITMAP
C7F0
CFF8
FC7C
F01E
F00E
E00E
E00E
E007
E007
E007
E007
E00E
E00E
F00E
F01E
FC3C
FFF8
E7F0
E000
E000
E000
E000
E000
E000
E000
E000
ENDCHAR
STARTCHAR 0071
ENCODING 113
SWIDTH 600 0
DWIDTH 20 0
BBX 16 26 2 -8
BITMAP
0FC7
1FF7
3C7F
781F
F00F
E00F
E007
E007
E007
E007
E007
E007
E00F
F00F
701F
7C3F
3FF7
0FE7
0007
0007
0007
0007
0007
0007
0007
0007
ENDCHAR
STARTCHAR 0072
ENCODING 114
SWIDTH 390 0
DWIDTH 13 0
BBX 10 18 3 0
BITMAP
C3C0
CFC0
DFC0
F800
F000
E000
E000
E000
E000
E000
E000
E000
E000
E000
E000
E000
E000
E000
ENDCHAR
STARTCHAR 0073
ENCODING 115
SWIDTH 450 0
DWIDTH 15 0
BBX 12 18 2 0
BITMAP
1FE0
7FF0
F0E0
E000
E000
E000
F000
7C00
3F80
0FE0
01F0
0070
0070
0030
0070
C0F0
FFE0
FFC0
ENDCHAR
STARTCHAR 0074
ENCODING 116
SWIDTH 360 0
DWIDTH 12 0
BBX 10 22 1 0
BITMAP
1800
1800
3800
3800
7FC0
FFC0
3800
3800
3800
3800
3800
3800
3800
3800
3800
3800
3800
3800
3800
3C00
1FC0
0FC0
ENDCHAR
STARTCHAR 0075
ENCODING 117
SWIDTH 600 0
DWIDTH 20 0
BBX 15 18 3 0
BITMAP
E00E
E00E
E00E
E00E
E00E
E00E
E00E
E00E
E00E
E00E
E00E
E00E
E01E
E01E
E03E
F87E
7FEE
3FCE
ENDCHAR
STARTCHAR 0076
ENCODING 118
SWIDTH 480 0
DWIDTH 16 0
BBX 17 18 0 0
BITMAP
E00380
700700
700700
700700
380E00
380E00
381E00
1C1C00
1C1C00
0E3800
0E3800
0E3800
077000
077000
076000
03E000
03E000
01C000
ENDCHAR
STARTCHAR 0077
ENCODING 119
SWIDTH 780 0
DWIDTH 26 0
BBX 26 18 0 0
BITMAP
F01E01C0
701E0380
701E0380
703F0380
383F0380
38330700
38338700
38738700
1C718700
1C61CE00
1CE1CE00
1CE1CE00
0EC0CC00
0FC0FC00
0FC0FC00
07807C00
07807800
07807800
ENDCHAR
STARTCHAR 0078
ENCODING 120
SWIDTH 510 0
DWIDTH 17 0
BBX 16 18 1 0
BITMAP
E00E
701E
381C
3C38
1C78
0E70
0FE0
07E0
03C0
03C0
07E0
0EE0
1E70
1C38
383C
781C
700E
E00F
ENDCHAR
STARTCHAR 0079
ENCODING 121
SWIDTH 510 0
DWIDTH 17 0
BBX 17 26 0 -8
BITMAP
E00380
700700
700700
700700
380E00
380E00
1C0E00
1C1C00
1C1C00
0E3800
0E3800
063800
077000
077000
037000
03E000
01E000
01C000
01C000
01C000
038000
038000
070000
9F0000
FE0000
F80000
ENDCHAR
STARTCHAR 007A
ENCODING 122
SWIDTH 450 0
DWIDTH 15 0
BBX 13 18 1 0
BITMAP
7FF8
7FF8
0038
0070
00F0
00E0
01C0
0380
0380
0700
0E00
1E00
1C00
3800
7800
7000
FFF8
FFF8
ENDCHAR
STARTCHAR 007B
ENCODING 123
SWIDTH 360 0
DWIDTH 12 0
BBX 11 29 1 -5
BITMAP
00E0
03E0
07E0
0F00
0E00
0E00
0E00
0E00
0E00
0E00
0E00
0E00
1E00
FC00
F000
F800
1C00
0E00
0E00
0E00
0E00
0E00
0E00
0E00
0E00
0E00
0780
07E0
01E0
ENDCHAR
STARTCHAR 007C
ENCODING 124
SWIDTH 540 0
DWIDTH 18 0
BBX 2 33 8 -8
BITMAP
C0
C0
C0
C0
C0
C0
C0
C0
C0
C0
C0
C0
C0
C0
C0
C0
C0
C0
C0
C0
C0
C0
C0
C0
C0
C0
C0
C0
C0
C0
C0
C0
C0
ENDCHAR
STARTCHAR 007D
ENCODING 125
SWIDTH 360 0
DWIDTH 12 0
BBX 11 29 1 -5
BITMAP
E000
F800
FC00
1C00
0E00
0E00
0E00
0E00
0E00
0E00
0E00
0E00
0E00
07E0
01E0
07E0
0F00
0E00
0E00
0E00
0E00
0E00
0E00
0E00
0E00
1C00
3C00
F800
F000
ENDCHAR
STARTCHAR 007E
ENCODING 126
SWIDTH 570 0
DWIDTH 19 0
BBX 15 4 2 10
BITMAP
3C00
FF86
EFFE
81FC
ENDCHAR
STARTCHAR 00A0
ENCODING 160
SWIDTH 240 0
DWIDTH 8 0
BBX 0 0 0 0
BITMAP
ENDCHAR
STARTCHAR 00A1
ENCODING 161
SWIDTH 240 0
DWIDTH 8 0
BBX 5 24 2 -6
BITMAP
70
F0
F8
70
00
00
00
60
60
70
70
70
70
70
70
70
70
70
70
70
70
70
70
70
ENDCHAR
STARTCHAR 00A2
ENCODING 162
SWIDTH 570 0
DWIDTH 19 0
BBX 13 24 3 0
BITMAP
0380
0380
0380
0FF8
3FF8
3C10
7800
7000
E000
E000
E000
E000
E000
E000
E000
F000
7000
7800
3FF8
1FF8
07F0
0380
0380
0380
ENDCHAR
STARTCHAR 00A3
ENCODING 163
SWIDTH 570 0
DWIDTH 19 0
BBX 17 24 1 0
BITMAP
01FC00
07FF00
0F9E00
0E0000
0E0000
1C0000
1C0000
1C0000
1C0000
1C0000
1C0000
FFF800
FFF800
1C0000
1C0000
1C0000
1C0000
1C0000
1C0000
1C0000
380000
FFFF80
FFFF80
FFFF80
ENDCHAR
STARTCHAR 00A4
ENCODING 164
SWIDTH 570 0
DWIDTH 19 0
BBX 15 15 2 4
BITMAP
4004
EFEE
7FFC
3838
3018
700C
600C
600C
600C
701C
3838
3EF8
7FFC
E38E
4004
ENDCHAR
STARTCHAR 00A5
ENCODING 165
SWIDTH 570 0
DWIDTH 19 0
BBX 17 24 1 0
BITMAP
E00380
E00380
700700
700700
380E00
380E00
1C1C00
1C1C00
0E3800
0E3800
077000
076000
03E000
3FFE00
3FFE00
01C000
01C000
01C000
3FFE00
3FFE00
01C000
01C000
01C000
01C000
ENDCHAR
STARTCHAR 00A6
ENCODING 166
SWIDTH 540 0
DWIDTH 18 0
BBX 2 33 8 -8
BITMAP
C0
C0
C0
C0
C0
C0
C0
C0
C0
C0
C0
C0
00
00
00
00
00
00
00
00
C0
C0
C0
C0
C0
C0
C0
C0
C0
C0
C0
C0
C0
ENDCHAR
STARTCHAR 00A7
ENCODING 167
SWIDTH 510 0
DWIDTH 17 0
BBX 13 25 2 1
BITMAP
3FF0
7FF0
7010
E000
E000
7000
7C00
1F80
3FE0
70F0
E078
E038
E038
F038
7830
3F70
0FE0
03F0
0070
0038
0038
0038
E070
FFE0
7FC0
ENDCHAR
STARTCHAR 00A8
ENCODING 168
SWIDTH 570 0
DWIDTH 19 0
BBX 9 3 5 21
BITMAP
E380
E380
E180
ENDCHAR
STARTCHAR 00A9
ENCODING 169
SWIDTH 810 0
DWIDTH 27 0
BBX 24 24 2 0
BITMAP
00FF00
07FFC0
0E00F0
1C0038
38001C
707F0C
60FF06
C1C106
C38003
C38003
C38003
C30003
C30003
C30003
C38003
C38003
C1C006
61FF06
70FF0C
300C1C
1C0038
0E0070
07E7E0
01FF80
ENDCHAR
STARTCHAR 00AA
ENCODING 170
SWIDTH 330 0
DWIDTH 11 0
BBX 9 11 1 13
BITMAP
3F00
7F80
4180
0180
0780
7F80
E180
C180
C180
FF80
7C80
ENDCHAR
STARTCHAR 00AB
ENCODING 171
SWIDTH 480 0
DWIDTH 16 0
BBX 15 14 1 2
BITMAP
0008
070E
0E1C
1C38
3C70
38E0
71E0
F1C0
70E0
3870
1C38
0E3C
071C
060C
ENDCHAR
STARTCHAR 00AC
ENCODING 172
SWIDTH 570 0
DWIDTH 19 0
BBX 15 9 2 4
BITMAP
FFFE
FFFE
0006
0006
0006
0006
0006
0006
0006
ENDCHAR
STARTCHAR 00AD
ENCODING 173
SWIDTH 300 0
DWIDTH 10 0
BBX 8 2 1 8
BITMAP
FF
FF
ENDCHAR
STARTCHAR 00AE
ENCODING 174
SWIDTH 810 0
DWIDTH 27 0
BBX 24 24 2 0
BITMAP
00FF00
07FFC0
0E00F0
1C0038
38001C
71FE0C
61FF06
C1C386
C1C383
C1C383
C1C383
C1CF03
C1FE03
C1FE03
C1CE03
C1C703
C1C306
61C386
71C1CC
30001C
1C0038
0E0070
07E7E0
01FF80
ENDCHAR
STARTCHAR 00AF
ENCODING 175
SWIDTH 480 0
DWIDTH 16 0
BBX 17 3 0 25
BITMAP
FFFF80
FFFF80
FFFF80
ENDCHAR
STARTCHAR 00B0
ENCODING 176
SWIDTH 420 0
DWIDTH 14 0
BBX 10 10 2 14
BITMAP
3F00
7F80
E1C0
C0C0
C0C0
C0C0
C0C0
E1C0
7F80
3F00
ENDCHAR
STARTCHAR 00B1
ENCODING 177
SWIDTH 570 0
DWIDTH 19 0
BBX 15 20 2 0
BITMAP
0380
0380
0380
0380
0380
0380
0380
FFFE
FFFE
0380
0380
0380
0380
0380
0380
0380
0000
0000
FFFE
FFFE
ENDCHAR
STARTCHAR 00B2
ENCODING 178
SWIDTH 330 0
DWIDTH 11 0
BBX 9 14 1 14
BITMAP
7F00
FF80
4180
0180
0180
0380
0300
0600
0C00
1800
3000
6000
FF80
FF80
ENDCHAR
STARTCHAR 00B3
ENCODING 179
SWIDTH 330 0
DWIDTH 11 0
BBX 10 14 1 14
BITMAP
7F00
F780
0180
0180
0180
0300
3E00
3F80
0180
01C0
01C0
0180
FF80
FF00
ENDCHAR
STARTCHAR 00B4
ENCODING 180
SWIDTH 270 0
DWIDTH 9 0
BBX 7 6 1 20
BITMAP
1E
1E
3C
38
70
E0
ENDCHAR
STARTCHAR 00B5
ENCODING 181
SWIDTH 600 0
DWIDTH 20 0
BBX 15 26 3 -8
BITMAP
E00E
E00E
E00E
E00E
E00E
E00E
E00E
E00E
E00E
E00E
E00E
E00E
E00E
E01E
F01E
F87E
FFEE
EFCE
E000
E000
E000
E000
E000
E000
E000
E000
ENDCHAR
STARTCHAR 00B6
ENCODING 182
SWIDTH 630 0
DWIDTH 21 0
BBX 16 29 2 -4
BITMAP
1FFF
3FFF
7FE3
7FE3
FFE3
FFE3
FFE3
FFE3
FFE3
FFE3
FFE3
FFE3
7FE3
7FE3
3FE3
1FE3
0063
0063
0063
0063
0063
0063
0063
0063
0063
0063
0063
0063
0063
ENDCHAR
STARTCHAR 00B7
ENCODING 183
SWIDTH 240 0
DWIDTH 8 0
BBX 5 4 2 9
BITMAP
70
F0
F8
70
ENDCHAR
STARTCHAR 00B8
ENCODING 184
SWIDTH 210 0
DWIDTH 7 0
BBX 7 8 0 -8
BITMAP
18
30
3C
0E
06
0E
FC
F8
ENDCHAR
STARTCHAR 00B9
ENCODING 185
SWIDTH 330 0
DWIDTH 11 0
BBX 6 14 2 14
BITMAP
1C
7C
EC
CC
8C
0C
0C
0C
0C
0C
0C
0C
0C
0C
ENDCHAR
STARTCHAR 00BA
ENCODING 186
SWIDTH 360 0
DWIDTH 12 0
BBX 10 11 1 13
BITMAP
1F00
7F80
61C0
C0C0
C0C0
C0C0
C0C0
C0C0
60C0
7F80
3F00
ENDCHAR
STARTCHAR 00BB
ENCODING 187
SWIDTH 480 0
DWIDTH 16 0
BBX 15 14 1 2
BITMAP
2000
E1C0
70E0
3870
1C78
0E38
0F1C
071E
0E3C
1C38
3870
78E0
71C0
60C0
ENDCHAR
STARTCHAR 00BC
ENCODING 188
SWIDTH 720 0
DWIDTH 24 0
BBX 24 24 1 0
BITMAP
0E0030
1E0060
7600E0
E600C0
4601C0
060380
060300
060700
060600
060E00
061C3C
06183C
06387C
0630DC
0070DC
00E19C
00C31C
01C31C
01861C
030FFF
070FFF
06001C
0E001C
0C001C
ENDCHAR
STARTCHAR 00BD
ENCODING 189
SWIDTH 750 0
DWIDTH 25 0
BBX 23 24 1 0
BITMAP
0E0060
3E00C0
7E01C0
EE0180
0E0380
0E0700
0E0600
0E0E00
0E0C00
0E1C20
0E39FC
0E33DE
0E7106
0E6006
00E006
01C00E
01800C
038018
030030
060060
0E00C0
0C0180
1C03FE
1803FE
ENDCHAR
STARTCHAR 00BE
ENCODING 190
SWIDTH 780 0
DWIDTH 26 0
BBX 26 24 0 0
BITMAP
3F000E00
7FC01C00
61C01800
00C03800
00C03000
01C06000
1F80E000
1F80C000
01C1C000
00E18000
00E30700
00C70F00
E1C61F00
FF8E1F00
1E1C3700
00186700
0038E700
0030C700
00718700
00E1FFC0
00C1FFC0
01C00700
01800700
03000700
ENDCHAR
STARTCHAR 00BF
ENCODING 191
SWIDTH 420 0
DWIDTH 14 0
BBX 13 24 1 -6
BITMAP
0380
0780
0780
0380
0000
0000
0000
0380
0380
0380
0700
0700
1E00
3C00
7800
7000
E000
E000
E000
E000
E000
F870
7FF8
3FE0
ENDCHAR
STARTCHAR 00C0
ENCODING 192
SWIDTH 630 0
DWIDTH 21 0
BBX 21 31 0 0
BITMAP
01C000
00E000
00F000
007000
001800
000000
000000
007000
007800
00F800
00F800
00DC00
01DC00
01CC00
038E00
038E00
038700
070700
070700
0E0380
0E0380
0FFFC0
1FFFC0
1FFFC0
1C00E0
3800E0
3800F0
700070
700070
700038
E00038
ENDCHAR
STARTCHAR 00C1
ENCODING 193
SWIDTH 630 0
DWIDTH 21 0
BBX 21 31 0 0
BITMAP
001E00
001C00
003800
003000
006000
000000
000000
007000
007800
00F800
00F800
00DC00
01DC00
01CC00
038E00
038E00
038700
070700
070700
0E0380
0E0380
0FFFC0
1FFFC0
1FFFC0
1C00E0
3800E0
3800F0
700070
700070
700038
E00038
ENDCHAR
STARTCHAR 00C2
ENCODING 194
SWIDTH 630 0
DWIDTH 21 0
BBX 21 31 0 0
BITMAP
00F800
00F800
01DC00
038E00
070300
000000
000000
007000
007800
00F800
00F800
00DC00
01DC00
01CC00
038E00
038E00
038700
070700
070700
0E0380
0E0380
0FFFC0
1FFFC0
1FFFC0
1C00E0
3800E0
3800F0
700070
700070
700038
E00038
ENDCHAR
STARTCHAR 00C3
ENCODING 195
SWIDTH 630 0
DWIDTH 21 0
BBX 21 30 0 0
BITMAP
03E180
07FF00
063F00
040E00
000000
000000
007000
007800
00F800
00F800
00DC00
01DC00
01CC00
038E00
038E00
038700
070700
070700
0E0380
0E0380
0FFFC0
1FFFC0
1FFFC0
1C00E0
3800E0
3800F0
700070
700070
700038
E00038
ENDCHAR
STARTCHAR 00C4
ENCODING 196
SWIDTH 630 0
DWIDTH 21 0
BBX 21 30 0 0
BITMAP
038E00
038E00
038600
000000
000000
000000
007000
007800
00F800
00F800
00DC00
01DC00
01CC00
038E00
038E00
038700
070700
070700
0E0380
0E0380
0FFFC0
1FFFC0
1FFFC0
1C00E0
3800E0
3800F0
700070
700070
700038
E00038
ENDCHAR
STARTCHAR 00C5
ENCODING 197
SWIDTH 630 0
DWIDTH 21 0
BBX 21 29 0 0
BITMAP
00F800
01DC00
018C00
018C00
018C00
00FC00
007800
00F800
00F800
00DC00
01DC00
01CC00
038E00
038E00
038700
070700
070700
0E0380
0E0380
0FFFC0
1FFFC0
1FFFC0
1C00E0
3800E0
3800F0
700070
700070
700038
E00038
ENDCHAR
STARTCHAR 00C6
ENCODING 198
SWIDTH 870 0
DWIDTH 29 0
BBX 27 24 0 0
BITMAP
001FFFE0
001FFFE0
003FFFE0
0039C000
0071C000
0071C000
00E1C000
00E1C000
01C1C000
01C1C000
0381FFE0
0381FFE0
0781FFE0
0701C000
0FFFC000
0FFFC000
0FFFC000
1C01C000
1C01C000
3801C000
3801C000
7001FFE0
7001FFE0
E001FFE0
ENDCHAR
STARTCHAR 00C7
ENCODING 199
SWIDTH 630 0
DWIDTH 21 0
BBX 18 32 2 -8
BITMAP
01FF00
07FFC0
0FFF80
1E0080
3C0000
780000
700000
700000
F00000
E00000
E00000
E00000
E00000
E00000
E00000
F00000
700000
700000
780000
3C0000
3E0000
1F8380
0FFF80
03FF80
002000
006000
007800
001C00
001C00
001C00
01F800
01F000
ENDCHAR
STARTCHAR 00C8
ENCODING 200
SWIDTH 540 0
DWIDTH 18 0
BBX 14 31 3 0
BITMAP
1E00
0E00
0700
0380
01C0
0000
0000
FFFC
FFFC
FFFC
E000
E000
E000
E000
E000
E000
E000
FFF8
FFF8
FFF8
E000
E000
E000
E000
E000
E000
E000
E000
FFFC
FFFC
FFFC
ENDCHAR
STARTCHAR 00C9
ENCODING 201
SWIDTH 540 0
DWIDTH 18 0
BBX 14 31 3 0
BITMAP
00F0
01E0
01C0
0380
0700
0000
0000
FFFC
FFFC
FFFC
E000
E000
E000
E000
E000
E000
E000
FFF8
FFF8
FFF8
E000
E000
E000
E000
E000
E000
E000
E000
FFFC
FFFC
FFFC
ENDCHAR
STARTCHAR 00CA
ENCODING 202
SWIDTH 540 0
DWIDTH 18 0
BBX 14 31 3 0
BITMAP
0780
0FC0
1CE0
3870
3038
0000
0000
FFFC
FFFC
FFFC
E000
E000
E000
E000
E000
E000
E000
FFF8
FFF8
FFF8
E000
E000
E000
E000
E000
E000
E000
E000
FFFC
FFFC
FFFC
ENDCHAR
STARTCHAR 00CB
ENCODING 203
SWIDTH 540 0
DWIDTH 18 0
BBX 14 30 3 0
BITMAP
1870
1C70
1870
0000
0000
0000
FFFC
FFFC
FFFC
E000
E000
E000
E000
E000
E000
E000
FFF8
FFF8
FFF8
E000
E000
E000
E000
E000
E000
E000
E000
FFFC
FFFC
FFFC
ENDCHAR
STARTCHAR 00CC
ENCODING 204
SWIDTH 330 0
DWIDTH 11 0
BBX 9 31 1 0
BITMAP
7000
3800
1C00
0C00
0600
0000
0000
FF80
FF80
1E00
1C00
1C00
1C00
1C00
1C00
1C00
1C00
1C00
1C00
1C00
1C00
1C00
1C00
1C00
1C00
1C00
1C00
1C00
1C00
FF80
FF80
ENDCHAR
STARTCHAR 00CD
ENCODING 205
SWIDTH 330 0
DWIDTH 11 0
BBX 9 31 1 0
BITMAP
0380
0700
0E00
0C00
1800
0000
0000
FF80
FF80
1E00
1C00
1C00
1C00
1C00
1C00
1C00
1C00
1C00
1C00
1C00
1C00
1C00
1C00
1C00
1C00
1C00
1C00
1C00
1C00
FF80
FF80
ENDCHAR
STARTCHAR 00CE
ENCODING 206
SWIDTH 330 0
DWIDTH 11 0
BBX 11 31 0 0
BITMAP
1F00
1F80
3B80
71C0
E060
0000
0000
7FC0
7FC0
0F00
0E00
0E00
0E00
0E00
0E00
0E00
0E00
0E00
0E00
0E00
0E00
0E00
0E00
0E00
0E00
0E00
0E00
0E00
0E00
7FC0
7FC0
ENDCHAR
STARTCHAR 00CF
ENCODING 207
SWIDTH 330 0
DWIDTH 11 0
BBX 9 30 1 0
BITMAP
E380
E380
E180
0000
0000
0000
FF80
FF80
1E00
1C00
1C00
1C00
1C00
1C00
1C00
1C00
1C00
1C00
1C00
1C00
1C00
1C00
1C00
1C00
1C00
1C00
1C00
1C00
FF80
FF80
ENDCHAR
STARTCHAR 00D0
ENCODING 208
SWIDTH 720 0
DWIDTH 24 0
BBX 21 24 1 0
BITMAP
3FF800
3FFF00
3FFF80
3807C0
3801E0
3800F0
380070
380078
380038
380038
380038
FFE038
FFE038
FFE038
380038
380038
380078
380070
3800F0
3801E0
3803C0
3FFF80
3FFF00
3FF800
ENDCHAR
STARTCHAR 00D1
ENCODING 209
SWIDTH 750 0
DWIDTH 25 0
BBX 19 30 3 0
BITMAP
07C300
0FFE00
0C7E00
081C00
000000
000000
F000E0
F800E0
F800E0
FC00E0
FC00E0
EE00E0
EF00E0
E700E0
E380E0
E3C0E0
E1C0E0
E0E0E0
E0F0E0
E070E0
E078E0
E03CE0
E01CE0
E01EE0
E00EE0
E007E0
E007E0
E003E0
E001E0
E001E0
ENDCHAR
STARTCHAR 00D2
ENCODING 210
SWIDTH 780 0
DWIDTH 26 0
BBX 22 31 2 0
BITMAP
01E000
00E000
007000
003800
001800
000000
000000
01FE00
07FF80
1FFFE0
3E01E0
3C00F0
780078
700038
700038
F0003C
E0001C
E0001C
E0001C
E0001C
E0001C
E0001C
F0003C
700038
700038
780078
380070
3E00F0
1F87E0
0FFFC0
03FF00
ENDCHAR
STARTCHAR 00D3
ENCODING 211
SWIDTH 780 0
DWIDTH 26 0
BBX 22 31 2 0
BITMAP
000F00
001E00
001C00
003800
007000
000000
000000
01FE00
07FF80
1FFFE0
3E01E0
3C00F0
780078
700038
700038
F0003C
E0001C
E0001C
E0001C
E0001C
E0001C
E0001C
F0003C
700038
700038
780078
380070
3E00F0
1F87E0
0FFFC0
03FF00
ENDCHAR
STARTCHAR 00D4
ENCODING 212
SWIDTH 780 0
DWIDTH 26 0
BBX 22 31 2 0
BITMAP
007800
00FC00
01CE00
038700
070380
000000
000000
01FE00
07FF80
1FFFE0
3E01E0
3C00F0
780078
700038
700038
F0003C
E0001C
E0001C
E0001C
E0001C
E0001C
E0001C
F0003C
700038
700038
780078
380070
3E00F0
1F87E0
0FFFC0
03FF00
ENDCHAR
STARTCHAR 00D5
ENCODING 213
SWIDTH 780 0
DWIDTH 26 0
BBX 22 30 2 0
BITMAP
03E180
03FF80
063F00
060E00
000000
000000
01FE00
07FF80
1FFFE0
3E01E0
3C00F0
780078
700038
700038
F0003C
E0001C
E0001C
E0001C
E0001C
E0001C
E0001C
F0003C
700038
700038
780078
380070
3E00F0
1F87E0
0FFFC0
03FF00
ENDCHAR
STARTCHAR 00D6
ENCODING 214
SWIDTH 780 0
DWIDTH 26 0
BBX 22 30 2 0
BITMAP
018700
03C700
018600
000000
000000
000000
01FE00
07FF80
1FFFE0
3E01E0
3C00F0
780078
700038
700038
F0003C
E0001C
E0001C
E0001C
E0001C
E0001C
E0001C
F0003C
700038
700038
780078
380070
3E00F0
1F87E0
0FFFC0
03FF00
ENDCHAR
STARTCHAR 00D7
ENCODING 215
SWIDTH 570 0
DWIDTH 19 0
BBX 15 14 2 4
BITMAP
4004
E00E
701C
3838
1C70
0EE0
07C0
0380
07C0
0EE0
1C70
3838
701C
600C
ENDCHAR
STARTCHAR 00D8
ENCODING 216
SWIDTH 780 0
DWIDTH 26 0
BBX 22 26 2 -1
BITMAP
000020
01FE38
07FFF0
1FFFE0
3E01E0
3C01F0
7803F8
700738
700738
F00E3C
E01C1C
E01C1C
E0381C
E0701C
E0E01C
E0E01C
F1C03C
738038
738038
7F0078
3E0070
3E00F0
1F87E0
3FFFC0
73FF00
300000
ENDCHAR
STARTCHAR 00D9
ENCODING 217
SWIDTH 720 0
DWIDTH 24 0
BBX 18 31 3 0
BITMAP
078000
038000
01C000
00E000
007000
000000
000000
E001C0
E001C0
E001C0
E001C0
E001C0
E001C0
E001C0
E001C0
E001C0
E001C0
E001C0
E001C0
E001C0
E001C0
E001C0
E001C0
E001C0
E001C0
E001C0
7003C0
780780
3F1F00
1FFE00
07FC00
ENDCHAR
STARTCHAR 00DA
ENCODING 218
SWIDTH 720 0
DWIDTH 24 0
BBX 18 31 3 0
BITMAP
003C00
007800
007000
00E000
01C000
000000
000000
E001C0
E001C0
E001C0
E001C0
E001C0
E001C0
E001C0
E001C0
E001C0
E001C0
E001C0
E001C0
E001C0
E001C0
E001C0
E001C0
E001C0
E001C0
E001C0
7003C0
780780
3F1F00
1FFE00
07FC00
ENDCHAR
STARTCHAR 00DB
ENCODING 219
SWIDTH 720 0
DWIDTH 24 0
BBX 18 31 3 0
BITMAP
01E000
03F000
073800
0E1C00
0C0E00
000000
000000
E001C0
E001C0
E001C0
E001C0
E001C0
E001C0
E001C0
E001C0
E001C0
E001C0
E001C0
E001C0
E001C0
E001C0
E001C0
E001C0
E001C0
E001C0
E001C0
7003C0
780780
3F1F00
1FFE00
07FC00
ENDCHAR
STARTCHAR 00DC
ENCODING 220
SWIDTH 720 0
DWIDTH 24 0
BBX 18 30 3 0
BITMAP
061C00
071C00
061C00
000000
000000
000000
E001C0
E001C0
E001C0
E001C0
E001C0
E001C0
E001C0
E001C0
E001C0
E001C0
E001C0
E001C0
E001C0
E001C0
E001C0
E001C0
E001C0
E001C0
E001C0
7003C0
780780
3F1F00
1FFE00
07FC00
ENDCHAR
STARTCHAR 00DD
ENCODING 221
SWIDTH 540 0
DWIDTH 18 0
BBX 19 31 0 0
BITMAP
003C00
003800
007000
00E000
00C000
000000
000000
E001E0
7001C0
7003C0
380380
3C0780
1C0700
1E0E00
0E0E00
0F1C00
071C00
03B800
03B800
01F000
01F000
00E000
00E000
00E000
00E000
00E000
00E000
00E000
00E000
00E000
00E000
ENDCHAR
STARTCHAR 00DE
ENCODING 222
SWIDTH 600 0
DWIDTH 20 0
BBX 15 24 3 0
BITMAP
E000
E000
E000
E000
FF00
FFF0
FFFC
E03C
E01E
E00E
E00E
E00E
E00E
E00E
E01E
E03C
FFF8
FFF0
FFC0
E000
E000
E000
E000
E000
ENDCHAR
STARTCHAR 00DF
ENCODING 223
SWIDTH 630 0
DWIDTH 21 0
BBX 17 26 3 0
BITMAP
010000
1FF000
7FF800
F03C00
E01C00
E01C00
E01C00
E01C00
E03800
E0F000
E1E000
E1C000
E1C000
E1C000
E1F000
E0F800
E03C00
E01E00
E00F00
E00700
E00380
E00380
E00700
E70F00
E7FE00
E3FC00
ENDCHAR
STARTCHAR 00E0
ENCODING 224
SWIDTH 540 0
DWIDTH 18 0
BBX 14 26 2 0
BITMAP
1E00
0E00
0F00
0700
0380
01C0
0000
0000
0FE0
3FF8
3C78
203C
001C
001C
001C
01FC
3FFC
7E1C
F01C
E01C
E01C
E01C
E03C
F0FC
7FCC
3F8C
ENDCHAR
STARTCHAR 00E1
ENCODING 225
SWIDTH 540 0
DWIDTH 18 0
BBX 14 26 2 0
BITMAP
0070
00F0
00E0
01C0
0380
0300
0000
0000
0FE0
3FF8
3C78
203C
001C
001C
001C
01FC
3FFC
7E1C
F01C
E01C
E01C
E01C
E03C
F0FC
7FCC
3F8C
ENDCHAR
STARTCHAR 00E2
ENCODING 226
SWIDTH 540 0
DWIDTH 18 0
BBX 14 26 2 0
BITMAP
0380
07C0
0FC0
1EE0
1870
3038
0000
0000
0FE0
3FF8
3C78
203C
001C
001C
001C
01FC
3FFC
7E1C
F01C
E01C
E01C
E01C
E03C
F0FC
7FCC
3F8C
ENDCHAR
STARTCHAR 00E3
ENCODING 227
SWIDTH 540 0
DWIDTH 18 0
BBX 14 25 2 0
BITMAP
000C
1F18
3FF8
71F0
6060
0000
0000
0FE0
3FF8
3C78
203C
001C
001C
001C
01FC
3FFC
7E1C
F01C
E01C
E01C
E01C
E03C
F0FC
7FCC
3F8C
ENDCHAR
STARTCHAR 00E4
ENCODING 228
SWIDTH 540 0
DWIDTH 18 0
BBX 14 24 2 0
BITMAP
1C70
1C70
1870
0000
0000
0000
0FE0
3FF8
3C78
203C
001C
001C
001C
01FC
3FFC
7E1C
F01C
E01C
E01C
E01C
E03C
F0FC
7FCC
3F8C
ENDCHAR
STARTCHAR 00E5
ENCODING 229
SWIDTH 540 0
DWIDTH 18 0
BBX 14 27 2 0
BITMAP
07C0
0EE0
0C60
0860
0C60
0FC0
0380
0000
0000
0FE0
3FF8
3C78
203C
001C
001C
001C
01FC
3FFC
7E1C
F01C
E01C
E01C
E01C
E03C
F0FC
7FCC
3F8C
ENDCHAR
STARTCHAR 00E6
ENCODING 230
SWIDTH 840 0
DWIDTH 28 0
BBX 25 18 2 0
BITMAP
1FE1F800
7FF3FE00
787F8F00
003E0700
003C0780
001C0380
001C0380
03FFFF80
3FFFFF80
7E1FFF80
F01C0000
E01C0000
E03C0000
E03E0000
E07E0000
F0E78300
7FC7FF00
3F81FF00
ENDCHAR
STARTCHAR 00E7
ENCODING 231
SWIDTH 480 0
DWIDTH 16 0
BBX 13 26 2 -8
BITMAP
0FF0
1FF8
3E70
7800
7000
E000
E000
E000
E000
E000
E000
E000
E000
F000
7000
3C18
3FF8
0FF0
0300
0300
03C0
00E0
00E0
00E0
0FC0
0F80
ENDCHAR
STARTCHAR 00E8
ENCODING 232
SWIDTH 540 0
DWIDTH 18 0
BBX 15 26 2 0
BITMAP
1E00
0E00
0F00
0700
0380
00C0
0000
0000
0FE0
1FF8
3C7C
701C
701E
E00E
E00E
FFFE
FFFE
FFFE
E000
E000
E000
7000
7800
3E0C
1FFC
0FFC
ENDCHAR
STARTCHAR 00E9
ENCODING 233
SWIDTH 540 0
DWIDTH 18 0
BBX 15 26 2 0
BITMAP
0070
00F0
00E0
01C0
0380
0300
0000
0000
0FE0
1FF8
3C7C
701C
701E
E00E
E00E
FFFE
FFFE
FFFE
E000
E000
E000
7000
7800
3E0C
1FFC
0FFC
ENDCHAR
STARTCHAR 00EA
ENCODING 234
SWIDTH 540 0
DWIDTH 18 0
BBX 15 26 2 0
BITMAP
0380
07C0
0FC0
0EE0
1C70
3018
0000
0000
0FE0
1FF8
3C7C
701C
701E
E00E
E00E
FFFE
FFFE
FFFE
E000
E000
E000
7000
7800
3E0C
1FFC
0FFC
ENDCHAR
STARTCHAR 00EB
ENCODING 235
SWIDTH 540 0
DWIDTH 18 0
BBX 15 24 2 0
BITMAP
1C70
1C70
1C70
0000
0000
0000
0FE0
1FF8
3C7C
701C
701E
E00E
E00E
FFFE
FFFE
FFFE
E000
E000
E000
7000
7800
3E0C
1FFC
0FFC
ENDCHAR
STARTCHAR 00EC
ENCODING 236
SWIDTH 240 0
DWIDTH 8 0
BBX 7 26 0 0
BITMAP
E0
F0
78
38
1C
0E
00
00
1C
1C
1C
1C
1C
1C
1C
1C
1C
1C
1C
1C
1C
1C
1C
1C
1C
1C
ENDCHAR
STARTCHAR 00ED
ENCODING 237
SWIDTH 240 0
DWIDTH 8 0
BBX 6 26 3 0
BITMAP
1C
3C
38
70
E0
C0
00
00
E0
E0
E0
E0
E0
E0
E0
E0
E0
E0
E0
E0
E0
E0
E0
E0
E0
E0
ENDCHAR
STARTCHAR 00EE
ENCODING 238
SWIDTH 240 0
DWIDTH 8 0
BBX 11 26 -1 0
BITMAP
0E00
1E00
3F00
7B80
61C0
C0E0
0000
0000
0E00
0E00
0E00
0E00
0E00
0E00
0E00
0E00
0E00
0E00
0E00
0E00
0E00
0E00
0E00
0E00
0E00
0E00
ENDCHAR
STARTCHAR 00EF
ENCODING 239
SWIDTH 240 0
DWIDTH 8 0
BBX 9 24 0 0
BITMAP
E380
E380
C380
0000
0000
0000
1C00
1C00
1C00
1C00
1C00
1C00
1C00
1C00
1C00
1C00
1C00
1C00
1C00
1C00
1C00
1C00
1C00
1C00
ENDCHAR
STARTCHAR 00F0
ENCODING 240
SWIDTH 600 0
DWIDTH 20 0
BBX 16 25 2 1
BITMAP
060C
0FBC
03F8
01E0
07F0
1F38
0C1C
001C
000E
078E
1FF7
3FFF
781F
F00F
E007
E007
E007
E007
E007
E007
F007
700E
3C1C
3FFC
0FF0
ENDCHAR
STARTCHAR 00F1
ENCODING 241
SWIDTH 600 0
DWIDTH 20 0
BBX 15 25 3 0
BITMAP
0008
3F18
3FF8
63F0
6060
0000
0000
C7F0
CFF8
FE7C
F01E
F00E
E00E
E00E
E00E
E00E
E00E
E00E
E00E
E00E
E00E
E00E
E00E
E00E
E00E
ENDCHAR
STARTCHAR 00F2
ENCODING 242
SWIDTH 600 0
DWIDTH 20 0
BBX 16 26 2 0
BITMAP
0E00
0F00
0700
0380
01C0
00C0
0000
0000
0FF0
1FF8
3E7C
780E
700F
E007
E007
E007
E007
E007
E007
E007
E007
700F
700E
3C3C
1FFC
0FF0
ENDCHAR
STARTCHAR 00F3
ENCODING 243
SWIDTH 600 0
DWIDTH 20 0
BBX 16 26 2 0
BITMAP
0078
0078
00F0
00E0
01C0
0380
0000
0000
0FF0
1FF8
3E7C
780E
700F
E007
E007
E007
E007
E007
E007
E007
E007
700F
700E
3C3C
1FFC
0FF0
ENDCHAR
STARTCHAR 00F4
ENCODING 244
SWIDTH 600 0
DWIDTH 20 0
BBX 16 26 2 0
BITMAP
01C0
03C0
07E0
0E70
1C38
381C
0000
0000
0FF0
1FF8
3E7C
780E
700F
E007
E007
E007
E007
E007
E007
E007
E007
700F
700E
3C3C
1FFC
0FF0
ENDCHAR
STARTCHAR 00F5
ENCODING 245
SWIDTH 600 0
DWIDTH 20 0
BBX 16 25 2 0
BITMAP
0004
1F0C
1FFC
31F8
3030
0000
0000
0FF0
1FF8
3E7C
780E
700F
E007
E007
E007
E007
E007
E007
E007
E007
700F
700E
3C3C
1FFC
0FF0
ENDCHAR
STARTCHAR 00F6
ENCODING 246
SWIDTH 600 0
DWIDTH 20 0
BBX 16 24 2 0
BITMAP
0C38
1E38
0C30
0000
0000
0000
0FF0
1FF8
3E7C
780E
700F
E007
E007
E007
E007
E007
E007
E007
E007
700F
700E
3C3C
1FFC
0FF0
ENDCHAR
STARTCHAR 00F7
ENCODING 247
SWIDTH 570 0
DWIDTH 19 0
BBX 15 15 2 4
BITMAP
0380
0380
0380
0100
0000
0000
FFFE
FFFE
0000
0000
0000
0380
0380
0380
0380
ENDCHAR
STARTCHAR 00F8
ENCODING 248
SWIDTH 600 0
DWIDTH 20 0
BBX 16 19 2 0
BITMAP
0FF7
1FFE
3E3C
781E
703E
E077
E067
E0E7
E1C7
E387
E387
E707
EE07
7C0F
7C0E
3C3C
7FFC
7FF0
2000
ENDCHAR
STARTCHAR 00F9
ENCODING 249
SWIDTH 600 0
DWIDTH 20 0
BBX 15 26 3 0
BITMAP
1C00
1E00
0F00
0700
0380
01C0
0000
0000
E00E
E00E
E00E
E00E
E00E
E00E
E00E
E00E
E00E
E00E
E00E
E00E
E01E
E01E
E03E
F87E
7FEE
3FCE
ENDCHAR
STARTCHAR 00FA
ENCODING 250
SWIDTH 600 0
DWIDTH 20 0
BBX 15 26 3 0
BITMAP
0070
00F0
00E0
01C0
0380
0300
0000
0000
E00E
E00E
E00E
E00E
E00E
E00E
E00E
E00E
E00E
E00E
E00E
E00E
E01E
E01E
E03E
F87E
7FEE
3FCE
ENDCHAR
STARTCHAR 00FB
ENCODING 251
SWIDTH 600 0
DWIDTH 20 0
BBX 15 26 3 0
BITMAP
0380
0780
0FC0
1EE0
1870
3038
0000
0000
E00E
E00E
E00E
E00E
E00E
E00E
E00E
E00E
E00E
E00E
E00E
E00E
E01E
E01E
E03E
F87E
7FEE
3FCE
ENDCHAR
STARTCHAR 00FC
ENCODING 252
SWIDTH 600 0
DWIDTH 20 0
BBX 15 24 3 0
BITMAP
1C70
1C70
1870
0000
0000
0000
E00E
E00E
E00E
E00E
E00E
E00E
E00E
E00E
E00E
E00E
E00E
E00E
E01E
E01E
E03E
F87E
7FEE
3FCE
ENDCHAR
STARTCHAR 00FD
ENCODING 253
SWIDTH 510 0
DWIDTH 17 0
BBX 17 34 0 -8
BITMAP
003800
007800
007000
00E000
01C000
018000
000000
000000
E00380
700700
700700
700700
380E00
380E00
1C0E00
1C1C00
1C1C00
0E3800
0E3800
063800
077000
077000
037000
03E000
01E000
01C000
01C000
01C000
038000
038000
070000
9F0000
FE0000
F80000
ENDCHAR
STARTCHAR 00FE
ENCODING 254
SWIDTH 600 0
DWIDTH 20 0
BBX 16 33 3 -8
BITMAP
E000
E000
E000
E000
E000
E000
E000
E7F0
EFF8
FC7C
F01E
F00E
E00E
E00E
E007
E007
E007
E007
E00E
E00E
F00E
F01E
FC3C
FFF8
E7F0
E000
E000
E000
E000
E000
E000
E000
E000
ENDCHAR
STARTCHAR 00FF
ENCODING 255
SWIDTH 510 0
DWIDTH 17 0
BBX 17 32 0 -8
BITMAP
0E3800
0E3800
0E3800
000000
000000
000000
E00380
700700
700700
700700
380E00
380E00
1C0E00
1C1C00
1C1C00
0E3800
0E3800
063800
077000
077000
037000
03E000
01E000
01C000
01C000
01C000
038000
038000
070000
9F0000
FE0000
F80000
ENDCHAR
STARTCHAR 0100
ENCODING 256
SWIDTH 630 0
DWIDTH 21 0
BBX 21 29 0 0
BITMAP
03FF00
03FF00
03FF00
000000
000000
007000
007800
00F800
00F800
00DC00
01DC00
01CC00
038E00
038E00
038700
070700
070700
0E0380
0E0380
0FFFC0
1FFFC0
1FFFC0
1C00E0
3800E0
3800F0
700070
700070
700038
E00038
ENDCHAR
STARTCHAR 0101
ENCODING 257
SWIDTH 540 0
DWIDTH 18 0
BBX 14 23 2 0
BITMAP
3FF0
3FF0
3FF0
0000
0000
0FE0
3FF8
3C78
203C
001C
001C
001C
01FC
3FFC
7E1C
F01C
E01C
E01C
E01C
E03C
F0FC
7FCC
3F8C
ENDCHAR
STARTCHAR 0102
ENCODING 258
SWIDTH 630 0
DWIDTH 21 0
BBX 21 31 0 0
BITMAP
060300
030300
03FE00
01FC00
00F800
000000
000000
007000
007800
00F800
00F800
00DC00
01DC00
01CC00
038E00
038E00
038700
070700
070700
0E0380
0E0380
0FFFC0
1FFFC0
1FFFC0
1C00E0
3800E0
3800F0
700070
700070
700038
E00038
ENDCHAR
STARTCHAR 0103
ENCODING 259
SWIDTH 540 0
DWIDTH 18 0
BBX 14 25 2 0
BITMAP
3018
3030
1FF0
1FE0
0780
0000
0000
0FE0
3FF8
3C78
203C
001C
001C
001C
01FC
3FFC
7E1C
F01C
E01C
E01C
E01C
E03C
F0FC
7FCC
3F8C
ENDCHAR
STARTCHAR 0104
ENCODING 260
SWIDTH 630 0
DWIDTH 21 0
BBX 21 31 0 -7
BITMAP
007000
007800
00F800
00F800
00DC00
01DC00
01CC00
038E00
038E00
038700
070700
070700
0E0380
0E0380
0FFFC0
1FFFC0
1FFFC0
1C00E0
3800E0
3800F0
700070
700070
700038
E00038
000030
000060
0000C0
0000C0
0000C0
0000F8
000078
ENDCHAR
STARTCHAR 0105
ENCODING 261
SWIDTH 540 0
DWIDTH 18 0
BBX 15 25 2 -7
BITMAP
0FE0
3FF8
3C78
203C
001C
001C
001C
01FC
3FFC
7E1C
F01C
E01C
E01C
E01C
E03C
F0FC
7FCC
3F8C
001C
0038
0030
0070
0070
003E
003E
ENDCHAR
STARTCHAR 0106
ENCODING 262
SWIDTH 630 0
DWIDTH 21 0
BBX 18 31 2 0
BITMAP
000E00
001C00
003800
003000
006000
000000
000000
01FF00
07FFC0
0FFF80
1E0080
3C0000
780000
700000
700000
F00000
E00000
E00000
E00000
E00000
E00000
E00000
F00000
700000
700000
780000
3C0000
3E0000
1F8380
0FFF80
03FF80
ENDCHAR
STARTCHAR 0107
ENCODING 263
SWIDTH 480 0
DWIDTH 16 0
BBX 13 26 2 0
BITMAP
0070
00F0
00E0
01C0
0380
0300
0000
0000
0FF0
1FF8
3E70
7800
7000
E000
E000
E000
E000
E000
E000
E000
E000
F000
7000
3C18
3FF8
0FF0
ENDCHAR
STARTCHAR 0108
ENCODING 264
SWIDTH 630 0
DWIDTH 21 0
BBX 18 31 2 0
BITMAP
00F800
00FC00
01DC00
038E00
070300
000000
000000
01FF00
07FFC0
0FFF80
1E0080
3C0000
780000
700000
700000
F00000
E00000
E00000
E00000
E00000
E00000
E00000
F00000
700000
700000
780000
3C0000
3E0000
1F8380
0FFF80
03FF80
ENDCHAR
STARTCHAR 0109
ENCODING 265
SWIDTH 480 0
DWIDTH 16 0
BBX 13 26 2 0
BITMAP
0380
07C0
0FC0
0EE0
1C70
3018
0000
0000
0FF0
1FF8
3E70
7800
7000
E000
E000
E000
E000
E000
E000
E000
E000
F000
7000
3C18
3FF8
0FF0
ENDCHAR
STARTCHAR 010A
ENCODING 266
SWIDTH 630 0
DWIDTH 21 0
BBX 18 30 2 1
BITMAP
007000
007000
007000
000000
000000
000000
01FF00
07FFC0
0FFF80
1E0080
3C0000
780000
700000
700000
F00000
E00000
E00000
E00000
E00000
E00000
E00000
F00000
700000
700000
780000
3C0000
3E0000
1F8380
0FFF80
03FF80
ENDCHAR
STARTCHAR 010B
ENCODING 267
SWIDTH 480 0
DWIDTH 16 0
BBX 13 25 2 0
BITMAP
0100
0380
0380
0380
0000
0000
0000
0FF0
1FF8
3E70
7800
7000
E000
E000
E000
E000
E000
E000
E000
E000
F000
7000
3C18
3FF8
0FF0
ENDCHAR
STARTCHAR 010C
ENCODING 268
SWIDTH 630 0
DWIDTH 21 0
BBX 18 31 2 0
BITMAP
030700
038E00
01FC00
00F800
007000
000000
000000
01FF00
07FFC0
0FFF80
1E0080
3C0000
780000
700000
700000
F00000
E00000
E00000
E00000
E00000
E00000
E00000
F00000
700000
700000
780000
3C0000
3E0000
1F8380
0FFF80
03FF80
ENDCHAR
STARTCHAR 010D
ENCODING 269
SWIDTH 480 0
DWIDTH 16 0
BBX 13 26 2 0
BITMAP
3018
3838
1CF0
0FE0
07C0
0380
0000
0000
0FF0
1FF8
3E70
7800
7000
E000
E000
E000
E000
E000
E000
E000
E000
F000
7000
3C18
3FF8
0FF0
ENDCHAR
STARTCHAR 010E
ENCODING 270
SWIDTH 720 0
DWIDTH 24 0
BBX 19 31 3 0
BITMAP
0E1C00
073800
03F000
01E000
01E000
000000
000000
FFE000
FFFC00
FFFE00
E01F00
E00780
E003C0
E001C0
E001E0
E000E0
E000E0
E000E0
E000E0
E000E0
E000E0
E000E0
E000E0
E001E0
E001C0
E003C0
E00780
E00F00
FFFE00
FFFC00
FFE000
ENDCHAR
STARTCHAR 010F
ENCODING 271
SWIDTH 600 0
DWIDTH 20 0
BBX 21 25 2 0
BITMAP
000738
000730
000770
000760
000760
000700
000700
0FC700
3FF700
3C7F00
781F00
F00F00
E00F00
E00700
E00700
E00700
E00700
E00700
E00700
E00F00
F00F00
701F00
7C3F00
3FF700
0FE700
ENDCHAR
STARTCHAR 0110
ENCODING 272
SWIDTH 720 0
DWIDTH 24 0
BBX 21 24 1 0
BITMAP
3FF800
3FFF00
3FFF80
3807C0
3801E0
3800F0
380070
380078
380038
380038
380038
FFE038
FFE038
FFE038
380038
380038
380078
380070
3800F0
3801E0
3803C0
3FFF80
3FFF00
3FF800
ENDCHAR
STARTCHAR 0111
ENCODING 273
SWIDTH 600 0
DWIDTH 20 0
BBX 18 25 2 0
BITMAP
000700
000700
000700
03FFC0
03FFC0
000700
000700
0FC700
1FF700
3E7F00
781F00
700F00
E00F00
E00700
E00700
E00700
E00700
E00700
E00700
E00F00
F00F00
701F00
7C3F00
3FF700
0FE700
ENDCHAR
STARTCHAR 0112
ENCODING 274
SWIDTH 540 0
DWIDTH 18 0
BBX 14 29 3 0
BITMAP
3FF0
3FF0
3FF0
0000
0000
FFFC
FFFC
FFFC
E000
E000
E000
E000
E000
E000
E000
FFF8
FFF8
FFF8
E000
E000
E000
E000
E000
E000
E000
E000
FFFC
FFFC
FFFC
ENDCHAR
STARTCHAR 0113
ENCODING 275
SWIDTH 540 0
DWIDTH 18 0
BBX 15 23 2 0
BITMAP
1FF0
1FF0
1FF0
0000
0000
0FE0
1FF8
3C7C
701C
701E
E00E
E00E
FFFE
FFFE
FFFE
E000
E000
E000
7000
7800
3E0C
1FFC
0FFC
ENDCHAR
STARTCHAR 0114
ENCODING 276
SWIDTH 540 0
DWIDTH 18 0
BBX 14 31 3 0
BITMAP
3030
3030
3FF0
1FE0
0780
0000
0000
FFFC
FFFC
FFFC
E000
E000
E000
E000
E000
E000
E000
FFF8
FFF8
FFF8
E000
E000
E000
E000
E000
E000
E000
E000
FFFC
FFFC
FFFC
ENDCHAR
STARTCHAR 0115
ENCODING 277
SWIDTH 540 0
DWIDTH 18 0
BBX 15 25 2 0
BITMAP
3018
3030
1FF0
0FE0
07C0
0000
0000
0FE0
1FF8
3C7C
701C
701E
E00E
E00E
FFFE
FFFE
FFFE
E000
E000
E000
7000
7800
3E0C
1FFC
0FFC
ENDCHAR
STARTCHAR 0116
ENCODING 278
SWIDTH 540 0
DWIDTH 18 0
BBX 14 30 3 1
BITMAP
0380
0780
0380
0000
0000
0000
FFFC
FFFC
FFFC
E000
E000
E000
E000
E000
E000
E000
FFF8
FFF8
FFF8
E000
E000
E000
E000
E000
E000
E000
E000
FFFC
FFFC
FFFC
ENDCHAR
STARTCHAR 0117
ENCODING 279
SWIDTH 540 0
DWIDTH 18 0
BBX 15 25 2 0
BITMAP
0100
0380
0380
0380
0000
0000
0000
0FE0
1FF8
3C7C
701C
701E
E00E
E00E
FFFE
FFFE
FFFE
E000
E000
E000
7000
7800
3E0C
1FFC
0FFC
ENDCHAR
STARTCHAR 0118
ENCODING 280
SWIDTH 540 0
DWIDTH 18 0
BBX 14 31 3 -7
BITMAP
FFFC
FFFC
FFFC
E000
E000
E000
E000
E000
E000
E000
FFF8
FFF8
FFF8
E000
E000
E000
E000
E000
E000
E000
E000
FFFC
FFFC
FFFC
0030
0060
00E0
00C0
00C0
00F8
0078
ENDCHAR
STARTCHAR 0119
ENCODING 281
SWIDTH 540 0
DWIDTH 18 0
BBX 15 25 2 -7
BITMAP
0FE0
1FF8
3C7C
701C
701E
E00E
E00E
FFFE
FFFE
FFFE
E000
E000
E000
7000
7800
3E0C
1FFC
0FFC
0038
0030
0060
0060
0060
007C
007C
ENDCHAR
STARTCHAR 011A
ENCODING 282
SWIDTH 540 0
DWIDTH 18 0
BBX 14 31 3 0
BITMAP
3870
1CE0
0FC0
07C0
0780
0000
0000
FFFC
FFFC
FFFC
E000
E000
E000
E000
E000
E000
E000
FFF8
FFF8
FFF8
E000
E000
E000
E000
E000
E000
E000
E000
FFFC
FFFC
FFFC
ENDCHAR
STARTCHAR 011B
ENCODING 283
SWIDTH 540 0
DWIDTH 18 0
BBX 15 26 2 0
BITMAP
3018
3838
1C70
0FE0
07C0
0380
0000
0000
0FE0
1FF8
3C7C
701C
701E
E00E
E00E
FFFE
FFFE
FFFE
E000
E000
E000
7000
7800
3E0C
1FFC
0FFC
ENDCHAR
STARTCHAR 011C
ENCODING 284
SWIDTH 720 0
DWIDTH 24 0
BBX 20 31 2 0
BITMAP
007C00
007C00
00EE00
01C700
030380
000000
000000
00FF80
03FFE0
0FFFE0
1F0060
3C0000
380000
780000
700000
F00000
E00000
E00000
E00FF0
E00FF0
E00FF0
E00070
F00070
700070
700070
780070
3C0070
3E0070
1FC1F0
07FFF0
01FFE0
ENDCHAR
STARTCHAR 011D
ENCODING 285
SWIDTH 600 0
DWIDTH 20 0
BBX 16 34 2 -8
BITMAP
0380
03C0
07E0
0E70
1C38
381C
0000
0000
0FC7
1FF7
3E7F
781F
700F
E00F
E007
E007
E007
E007
E007
E007
E00F
F00F
700F
7C3F
3FF7
0FE7
0007
0007
000E
000E
401E
7EFC
7FF8
1FE0
ENDCHAR
STARTCHAR 011E
ENCODING 286
SWIDTH 720 0
DWIDTH 24 0
BBX 20 31 2 0
BITMAP
030180
030300
01FF00
00FE00
007C00
000000
000000
00FF80
03FFE0
0FFFE0
1F0060
3C0000
380000
780000
700000
F00000
E00000
E00000
E00FF0
E00FF0
E00FF0
E00070
F00070
700070
700070
780070
3C0070
3E0070
1FC1F0
07FFF0
01FFE0
ENDCHAR
STARTCHAR 011F
ENCODING 287
SWIDTH 600 0
DWIDTH 20 0
BBX 16 33 2 -8
BITMAP
1818
1818
1FF0
0FF0
03C0
0000
0000
0FC7
1FF7
3E7F
781F
700F
E00F
E007
E007
E007
E007
E007
E007
E00F
F00F
700F
7C3F
3FF7
0FE7
0007
0007
000E
000E
401E
7EFC
7FF8
1FE0
ENDCHAR
STARTCHAR 0120
ENCODING 288
SWIDTH 720 0
DWIDTH 24 0
BBX 20 30 2 1
BITMAP
003800
003800
003800
000000
000000
000000
00FF80
03FFE0
0FFFE0
1F0060
3C0000
380000
780000
700000
F00000
E00000
E00000
E00FF0
E00FF0
E00FF0
E00070
F00070
700070
700070
780070
3C0070
3E0070
1FC1F0
07FFF0
01FFE0
ENDCHAR
STARTCHAR 0121
ENCODING 289
SWIDTH 600 0
DWIDTH 20 0
BBX 16 33 2 -8
BITMAP
0100
0380
03C0
0180
0000
0000
0000
0FC7
1FF7
3E7F
781F
700F
E00F
E007
E007
E007
E007
E007
E007
E00F
F00F
700F
7C3F
3FF7
0FE7
0007
0007
000E
000E
401E
7EFC
7FF8
1FE0
ENDCHAR
STARTCHAR 0122
ENCODING 290
SWIDTH 720 0
DWIDTH 24 0
BBX 20 31 2 -7
BITMAP
00FF80
03FFE0
0FFFE0
1F0060
3C0000
380000
780000
700000
F00000
E00000
E00000
E00FF0
E00FF0
E00FF0
E00070
F00070
700070
700070
780070
3C0070
3E0070
1FC1F0
07FFF0
01FFE0
000000
000000
001800
003800
003800
003000
007000
ENDCHAR
STARTCHAR 0123
ENCODING 291
SWIDTH 600 0
DWIDTH 20 0
BBX 16 34 2 -8
BITMAP
00C0
00C0
01C0
0180
0380
0380
0000
0000
0FC7
1FF7
3E7F
781F
700F
E00F
E007
E007
E007
E007
E007
E007
E00F
F00F
700F
7C3F
3FF7
0FE7
0007
0007
000E
000E
401E
7EFC
7FF8
1FE0
ENDCHAR
STARTCHAR 0124
ENCODING 292
SWIDTH 720 0
DWIDTH 24 0
BBX 18 31 3 0
BITMAP
01E000
03F000
03B800
071C00
0C0E00
000000
000000
E001C0
E001C0
E001C0
E001C0
E001C0
E001C0
E001C0
E001C0
E001C0
E001C0
FFFFC0
FFFFC0
FFFFC0
E001C0
E001C0
E001C0
E001C0
E001C0
E001C0
E001C0
E001C0
E001C0
E001C0
E001C0
ENDCHAR
STARTCHAR 0125
ENCODING 293
SWIDTH 600 0
DWIDTH 20 0
BBX 19 33 -1 0
BITMAP
1E0000
1F0000
3F8000
73C000
E0E000
000000
000000
000000
0E0000
0E0000
0E0000
0E0000
0E0000
0E0000
0E0000
0E7F00
0EFF80
0FE7C0
0F01C0
0F00E0
0E00E0
0E00E0
0E00E0
0E00E0
0E00E0
0E00E0
0E00E0
0E00E0
0E00E0
0E00E0
0E00E0
0E00E0
0E00E0
ENDCHAR
STARTCHAR 0126
ENCODING 294
SWIDTH 720 0
DWIDTH 24 0
BBX 25 24 0 0
BITMAP
1C003800
1C003800
1C003800
1C003800
FFFFFF80
FFFFFF80
FFFFFF80
1C003800
1C003800
1C003800
1FFFF800
1FFFF800
1FFFF800
1C003800
1C003800
1C003800
1C003800
1C003800
1C003800
1C003800
1C003800
1C003800
1C003800
1C003800
ENDCHAR
STARTCHAR 0127
ENCODING 295
SWIDTH 600 0
DWIDTH 20 0
BBX 18 25 0 0
BITMAP
1C0000
1C0000
1C0000
FFF800
FFF800
1C0000
1C0000
1C1000
1CFF00
1FFF80
1F0780
1E03C0
1C01C0
1C01C0
1C01C0
1C01C0
1C01C0
1C01C0
1C01C0
1C01C0
1C01C0
1C01C0
1C01C0
1C01C0
1C01C0
ENDCHAR
STARTCHAR 0128
ENCODING 296
SWIDTH 330 0
DWIDTH 11 0
BBX 12 30 0 0
BITMAP
7C30
FFE0
C7E0
81C0
0000
0000
7FC0
7FC0
0F00
0E00
0E00
0E00
0E00
0E00
0E00
0E00
0E00
0E00
0E00
0E00
0E00
0E00
0E00
0E00
0E00
0E00
0E00
0E00
7FC0
7FC0
ENDCHAR
STARTCHAR 0129
ENCODING 297
SWIDTH 240 0
DWIDTH 8 0
BBX 12 25 -2 0
BITMAP
0010
7E30
7FF0
C7E0
C0C0
0000
0000
0700
0700
0700
0700
0700
0700
0700
0700
0700
0700
0700
0700
0700
0700
0700
0700
0700
0700
ENDCHAR
STARTCHAR 012A
ENCODING 298
SWIDTH 330 0
DWIDTH 11 0
BBX 10 29 1 0
BITMAP
FFC0
FFC0
FFC0
0000
0000
FF80
FF80
1E00
1C00
1C00
1C00
1C00
1C00
1C00
1C00
1C00
1C00
1C00
1C00
1C00
1C00
1C00
1C00
1C00
1C00
1C00
1C00
FF80
FF80
ENDCHAR
STARTCHAR 012B
ENCODING 299
SWIDTH 240 0
DWIDTH 8 0
BBX 10 23 -1 0
BITMAP
FFC0
FFC0
FFC0
0000
0000
0E00
0E00
0E00
0E00
0E00
0E00
0E00
0E00
0E00
0E00
0E00
0E00
0E00
0E00
0E00
0E00
0E00
0E00
ENDCHAR
STARTCHAR 012C
ENCODING 300
SWIDTH 330 0
DWIDTH 11 0
BBX 11 31 0 0
BITMAP
C060
6060
7FC0
3F80
1F00
0000
0000
7FC0
7FC0
0F00
0E00
0E00
0E00
0E00
0E00
0E00
0E00
0E00
0E00
0E00
0E00
0E00
0E00
0E00
0E00
0E00
0E00
0E00
0E00
7FC0
7FC0
ENDCHAR
STARTCHAR 012D
ENCODING 301
SWIDTH 240 0
DWIDTH 8 0
BBX 10 25 -1 0
BITMAP
C040
C0C0
7FC0
7F80
1E00
0000
0000
0E00
0E00
0E00
0E00
0E00
0E00
0E00
0E00
0E00
0E00
0E00
0E00
0E00
0E00
0E00
0E00
0E00
0E00
ENDCHAR
STARTCHAR 012E
ENCODING 302
SWIDTH 330 0
DWIDTH 11 0
BBX 9 31 1 -7
BITMAP
FF80
FF80
1E00
1C00
1C00
1C00
1C00
1C00
1C00
1C00
1C00
1C00
1C00
1C00
1C00
1C00
1C00
1C00
1C00
1C00
1C00
1C00
FF80
FF80
0700
0E00
0C00
1C00
1C00
0F80
0F80
ENDCHAR
STARTCHAR 012F
ENCODING 303
SWIDTH 240 0
DWIDTH 8 0
BBX 5 31 1 -6
BITMAP
38
38
38
00
00
00
38
38
38
38
38
38
38
38
38
38
38
38
38
38
38
38
38
38
30
60
E0
C0
C0
F8
78
ENDCHAR
STARTCHAR 0130
ENCODING 304
SWIDTH 330 0
DWIDTH 11 0
BBX 9 30 1 1
BITMAP
1C00
1C00
1C00
0000
0000
0000
FF80
FF80
1E00
1C00
1C00
1C00
1C00
1C00
1C00
1C00
1C00
1C00
1C00
1C00
1C00
1C00
1C00
1C00
1C00
1C00
1C00
1C00
FF80
FF80
ENDCHAR
STARTCHAR 0131
ENCODING 305
SWIDTH 240 0
DWIDTH 8 0
BBX 3 18 3 0
BITMAP
E0
E0
E0
E0
E0
E0
E0
E0
E0
E0
E0
E0
E0
E0
E0
E0
E0
E0
ENDCHAR
STARTCHAR 0132
ENCODING 306
SWIDTH 600 0
DWIDTH 20 0
BBX 16 30 1 -6
BITMAP
FF87
FF87
1E07
1C07
1C07
1C07
1C07
1C07
1C07
1C07
1C07
1C07
1C07
1C07
1C07
1C07
1C07
1C07
1C07
1C07
1C07
1C07
FF87
FF87
0007
0007
0007
001F
00FE
00FC
ENDCHAR
STARTCHAR 0133
ENCODING 307
SWIDTH 510 0
DWIDTH 17 0
BBX 12 33 3 -8
BITMAP
0040
E0E0
E0F0
E060
0000
0000
0000
E0E0
E0E0
E0E0
E0E0
E0E0
E0E0
E0E0
E0E0
E0E0
E0E0
E0E0
E0E0
E0E0
E0E0
E0E0
E0E0
E0E0
E0E0
00E0
00E0
00E0
00E0
00E0
0BE0
0FC0
0F80
ENDCHAR
STARTCHAR 0134
ENCODING 308
SWIDTH 270 0
DWIDTH 9 0
BBX 13 37 -3 -6
BITMAP
07C0
07C0
0EE0
1C70
3018
0000
0000
0380
0380
0380
0380
0380
0380
0380
0380
0380
0380
0380
0380
0380
0380
0380
0380
0380
0380
0380
0380
0380
0380
0380
0380
0380
0380
0780
8F00
FF00
FC00
ENDCHAR
STARTCHAR 0135
ENCODING 309
SWIDTH 240 0
DWIDTH 8 0
BBX 12 34 -2 -8
BITMAP
0700
0F00
1F80
3DC0
30E0
6070
0000
0000
0700
0700
0700
0700
0700
0700
0700
0700
0700
0700
0700
0700
0700
0700
0700
0700
0700
0700
0700
0700
0700
0700
0F00
DE00
FE00
F800
ENDCHAR
STARTCHAR 0136
ENCODING 310
SWIDTH 600 0
DWIDTH 20 0
BBX 17 31 3 -7
BITMAP
E00780
E00700
E00E00
E01C00
E03800
E07000
E0F000
E1E000
E3C000
E78000
EF0000
EF8000
FF8000
FBC000
F1E000
E0E000
E07000
E07800
E03C00
E01C00
E01E00
E00F00
E00780
E00380
000000
000000
01C000
01C000
018000
038000
030000
ENDCHAR
STARTCHAR 0137
ENCODING 311
SWIDTH 510 0
DWIDTH 17 0
BBX 14 32 3 -7
BITMAP
E000
E000
E000
E000
E000
E000
E000
E03C
E078
E0F0
E1E0
E3C0
E780
E700
EE00
FE00
FF00
F780
E3C0
E1C0
E0E0
E0F0
E078
E038
E01C
0000
0000
0700
0700
0600
0E00
0C00
ENDCHAR
STARTCHAR 0138
ENCODING 312
SWIDTH 510 0
DWIDTH 17 0
BBX 14 18 3 0
BITMAP
E03C
E078
E0F0
E0E0
E1C0
E380
E780
EF00
FF00
FF00
F380
E3C0
E1C0
E0E0
E0F0
E078
E038
E01C
ENDCHAR
STARTCHAR 0139
ENCODING 313
SWIDTH 510 0
DWIDTH 17 0
BBX 14 31 3 0
BITMAP
1C00
3800
7000
6000
C000
0000
0000
E000
E000
E000
E000
E000
E000
E000
E000
E000
E000
E000
E000
E000
E000
E000
E000
E000
E000
E000
E000
E000
FFFC
FFFC
FFFC
ENDCHAR
STARTCHAR 013A
ENCODING 314
SWIDTH 240 0
DWIDTH 8 0
BBX 6 33 3 0
BITMAP
3C
38
70
70
C0
00
00
00
E0
E0
E0
E0
E0
E0
E0
E0
E0
E0
E0
E0
E0
E0
E0
E0
E0
E0
E0
E0
E0
E0
E0
E0
E0
ENDCHAR
STARTCHAR 013B
ENCODING 315
SWIDTH 510 0
DWIDTH 17 0
BBX 14 31 3 -7
BITMAP
E000
E000
E000
E000
E000
E000
E000
E000
E000
E000
E000
E000
E000
E000
E000
E000
E000
E000
E000
E000
E000
FFFC
FFFC
FFFC
0000
0000
0380
0380
0300
0700
0600
ENDCHAR
STARTCHAR 013C
ENCODING 316
SWIDTH 240 0
DWIDTH 8 0
BBX 4 32 2 -7
BITMAP
70
70
70
70
70
70
70
70
70
70
70
70
70
70
70
70
70
70
70
70
70
70
70
70
70
00
00
70
70
70
60
C0
ENDCHAR
STARTCHAR 013D
ENCODING 317
SWIDTH 510 0
DWIDTH 17 0
BBX 14 24 3 0
BITMAP
E01C
E018
E038
E030
E030
E020
E000
E000
E000
E000
E000
E000
E000
E000
E000
E000
E000
E000
E000
E000
E000
FFFC
FFFC
FFFC
ENDCHAR
STARTCHAR 013E
ENCODING 318
SWIDTH 240 0
DWIDTH 8 0
BBX 8 25 3 0
BITMAP
E7
E7
E6
E6
EC
E0
E0
E0
E0
E0
E0
E0
E0
E0
E0
E0
E0
E0
E0
E0
E0
E0
E0
E0
E0
ENDCHAR
STARTCHAR 013F
ENCODING 319
SWIDTH 510 0
DWIDTH 17 0
BBX 14 24 3 0
BITMAP
E000
E000
E000
E000
E000
E000
E000
E000
E000
E000
E040
E0E0
E0E0
E060
E000
E000
E000
E000
E000
E000
E000
FFFC
FFFC
FFFC
ENDCHAR
STARTCHAR 0140
ENCODING 320
SWIDTH 240 0
DWIDTH 8 0
BBX 7 25 3 0
BITMAP
E0
E0
E0
E0
E0
E0
E0
E0
E0
E0
E0
EE
EE
EE
E0
E0
E0
E0
E0
E0
E0
E0
E0
E0
E0
ENDCHAR
STARTCHAR 0141
ENCODING 321
SWIDTH 510 0
DWIDTH 17 0
BBX 16 24 1 0
BITMAP
3800
3800
3800
3800
3800
3800
3800
3800
3800
38C0
39E0
3FC0
3F00
7C00
F800
F800
B800
3800
3800
3800
3800
3FFF
3FFF
3FFF
ENDCHAR
STARTCHAR 0142
ENCODING 322
SWIDTH 240 0
DWIDTH 8 0
BBX 9 25 0 0
BITMAP
1C00
1C00
1C00
1C00
1C00
1C00
1C00
1C00
1C00
1D00
1F00
1F80
1E00
7C00
FC00
FC00
1C00
1C00
1C00
1C00
1C00
1C00
1C00
1C00
1C00
ENDCHAR
STARTCHAR 0143
ENCODING 323
SWIDTH 750 0
DWIDTH 25 0
BBX 19 31 3 0
BITMAP
001C00
003800
007000
006000
00C000
000000
000000
F000E0
F800E0
F800E0
FC00E0
FC00E0
EE00E0
EF00E0
E700E0
E380E0
E3C0E0
E1C0E0
E0E0E0
E0F0E0
E070E0
E078E0
E03CE0
E01CE0
E01EE0
E00EE0
E007E0
E007E0
E003E0
E001E0
E001E0
ENDCHAR
STARTCHAR 0144
ENCODING 324
SWIDTH 600 0
DWIDTH 20 0
BBX 15 26 3 0
BITMAP
0070
00F0
00E0
01C0
0380
0300
0000
0000
C7F0
CFF8
FE7C
F01E
F00E
E00E
E00E
E00E
E00E
E00E
E00E
E00E
E00E
E00E
E00E
E00E
E00E
E00E
ENDCHAR
STARTCHAR 0145
ENCODING 325
SWIDTH 750 0
DWIDTH 25 0
BBX 19 31 3 -7
BITMAP
F000E0
F800E0
F800E0
FC00E0
FC00E0
EE00E0
EF00E0
E700E0
E380E0
E3C0E0
E1C0E0
E0E0E0
E0F0E0
E070E0
E078E0
E03CE0
E01CE0
E01EE0
E00EE0
E007E0
E007E0
E003E0
E001E0
E001E0
000000
000000
007000
006000
00E000
00C000
00C000
ENDCHAR
STARTCHAR 0146
ENCODING 326
SWIDTH 600 0
DWIDTH 20 0
BBX 15 25 3 -7
BITMAP
C7F0
CFF8
FE7C
F01E
F00E
E00E
E00E
E00E
E00E
E00E
E00E
E00E
E00E
E00E
E00E
E00E
E00E
E00E
0000
0000
0380
0380
0380
0300
0600
ENDCHAR
STARTCHAR 0147
ENCODING 327
SWIDTH 750 0
DWIDTH 25 0
BBX 19 31 3 0
BITMAP
060E00
071C00
03F800
01F000
00E000
000000
000000
F000E0
F800E0
F800E0
FC00E0
FC00E0
EE00E0
EF00E0
E700E0
E380E0
E3C0E0
E1C0E0
E0E0E0
E0F0E0
E070E0
E078E0
E03CE0
E01CE0
E01EE0
E00EE0
E007E0
E007E0
E003E0
E001E0
E001E0
ENDCHAR
STARTCHAR 0148
ENCODING 328
SWIDTH 600 0
DWIDTH 20 0
BBX 15 26 3 0
BITMAP
3018
3870
1CE0
0FC0
07C0
0380
0000
0000
C7F0
CFF8
FE7C
F01E
F00E
E00E
E00E
E00E
E00E
E00E
E00E
E00E
E00E
E00E
E00E
E00E
E00E
E00E
ENDCHAR
STARTCHAR 0149
ENCODING 329
SWIDTH 660 0
DWIDTH 22 0
BBX 20 24 0 0
BITMAP
380000
780000
780000
700000
700000
600000
E73F80
E77FE0
07F1E0
07C0F0
078070
078070
070070
070070
070070
070070
070070
070070
070070
070070
070070
070070
070070
070070
ENDCHAR
STARTCHAR 014A
ENCODING 330
SWIDTH 750 0
DWIDTH 25 0
BBX 19 30 3 -6
BITMAP
F000E0
F800E0
F800E0
FC00E0
FE00E0
EE00E0
EF00E0
E780E0
E380E0
E3C0E0
E1E0E0
E0E0E0
E0F0E0
E078E0
E038E0
E01CE0
E01EE0
E00EE0
E007E0
E007E0
E003E0
E001E0
E001E0
E000E0
0000E0
0000E0
0000E0
0023C0
003FC0
003F00
ENDCHAR
STARTCHAR 014B
ENCODING 331
SWIDTH 600 0
DWIDTH 20 0
BBX 15 26 3 -8
BITMAP
C7F0
CFF8
FE7C
F01E
F00E
E00E
E00E
E00E
E00E
E00E
E00E
E00E
E00E
E00E
E00E
E00E
E00E
E00E
000E
000E
000E
000E
000E
00BC
00FC
00F8
ENDCHAR
STARTCHAR 014C
ENCODING 332
SWIDTH 780 0
DWIDTH 26 0
BBX 22 29 2 0
BITMAP
03FF00
03FF00
03FF00
000000
000000
01FE00
07FF80
1FFFE0
3E01E0
3C00F0
780078
700038
700038
F0003C
E0001C
E0001C
E0001C
E0001C
E0001C
E0001C
F0003C
700038
700038
780078
380070
3E00F0
1F87E0
0FFFC0
03FF00
ENDCHAR
STARTCHAR 014D
ENCODING 333
SWIDTH 600 0
DWIDTH 20 0
BBX 16 23 2 0
BITMAP
1FF8
1FF8
1FF8
0000
0000
0FF0
1FF8
3E7C
780E
700F
E007
E007
E007
E007
E007
E007
E007
E007
700F
700E
3C3C
1FFC
0FF0
ENDCHAR
STARTCHAR 014E
ENCODING 334
SWIDTH 780 0
DWIDTH 26 0
BBX 22 31 2 0
BITMAP
030300
030300
03FF00
01FE00
007800
000000
000000
01FE00
07FF80
1FFFE0
3E01E0
3C00F0
780078
700038
700038
F0003C
E0001C
E0001C
E0001C
E0001C
E0001C
E0001C
F0003C
700038
700038
780078
380070
3E00F0
1F87E0
0FFFC0
03FF00
ENDCHAR
STARTCHAR 014F
ENCODING 335
SWIDTH 600 0
DWIDTH 20 0
BBX 16 25 2 0
BITMAP
1818
1818
1FF8
0FF0
03C0
0000
0000
0FF0
1FF8
3E7C
780E
700F
E007
E007
E007
E007
E007
E007
E007
E007
700F
700E
3C3C
1FFC
0FF0
ENDCHAR
STARTCHAR 0150
ENCODING 336
SWIDTH 780 0
DWIDTH 26 0
BBX 22 31 2 0
BITMAP
01E780
01C700
038E00
030C00
061800
000000
000000
01FE00
07FF80
1FFFE0
3E01E0
3C00F0
780078
700038
700038
F0003C
E0001C
E0001C
E0001C
E0001C
E0001C
E0001C
F0003C
700038
700038
780078
380070
3E00F0
1F87E0
0FFFC0
03FF00
ENDCHAR
STARTCHAR 0151
ENCODING 337
SWIDTH 600 0
DWIDTH 20 0
BBX 16 26 2 0
BITMAP
071C
0F3C
0E38
1C70
1860
30C0
0000
0000
0FF0
1FF8
3E7C
780E
700F
E007
E007
E007
E007
E007
E007
E007
E007
700F
700E
3C3C
1FFC
0FF0
ENDCHAR
STARTCHAR 0152
ENCODING 338
SWIDTH 900 0
DWIDTH 30 0
BBX 27 24 2 0
BITMAP
01FFFFE0
07FFFFE0
1FEFFFE0
3E038000
3C038000
78038000
70038000
70038000
F0038000
E0038000
E003FFC0
E003FFC0
E003FFC0
E0038000
E0038000
E0038000
70038000
70038000
78038000
38038000
3E038000
1F87FFE0
0FFFFFE0
03FFFFE0
ENDCHAR
STARTCHAR 0153
ENCODING 339
SWIDTH 930 0
DWIDTH 31 0
BBX 28 18 2 0
BITMAP
0FE03F00
1FF8FF80
3E7DE3C0
701F80E0
700F80E0
E00F0070
E0070070
E007FFF0
E007FFF0
E007FFF0
E0070000
E0070000
E00F0000
700F8000
701FC000
3C3DE0E0
1FF8FFE0
0FF07FC0
ENDCHAR
STARTCHAR 0154
ENCODING 340
SWIDTH 600 0
DWIDTH 20 0
BBX 17 31 3 0
BITMAP
00F000
00E000
01C000
038000
030000
000000
000000
FFC000
FFF800
FFFC00
E03E00
E00E00
E00E00
E00E00
E00E00
E00E00
E00E00
E01E00
E0FC00
FFF000
FFE000
E0E000
E07000
E07800
E03800
E01C00
E01C00
E00E00
E00F00
E00700
E00780
ENDCHAR
STARTCHAR 0155
ENCODING 341
SWIDTH 390 0
DWIDTH 13 0
BBX 10 26 3 0
BITMAP
03C0
0380
0780
0700
0E00
1C00
0000
0000
C3C0
CFC0
DFC0
F800
F000
E000
E000
E000
E000
E000
E000
E000
E000
E000
E000
E000
E000
E000
ENDCHAR
STARTCHAR 0156
ENCODING 342
SWIDTH 600 0
DWIDTH 20 0
BBX 17 31 3 -7
BITMAP
FFC000
FFF800
FFFC00
E03E00
E00E00
E00E00
E00E00
E00E00
E00E00
E00E00
E01E00
E0FC00
FFF000
FFE000
E0E000
E07000
E07800
E03800
E01C00
E01C00
E00E00
E00F00
E00700
E00780
000000
000000
01C000
01C000
018000
038000
030000
ENDCHAR
STARTCHAR 0157
ENCODING 343
SWIDTH 390 0
DWIDTH 13 0
BBX 11 25 2 -7
BITMAP
61E0
67E0
6FE0
7C00
7800
7000
7000
7000
7000
7000
7000
7000
7000
7000
7000
7000
7000
7000
0000
0000
7000
7000
6000
6000
C000
ENDCHAR
STARTCHAR 0158
ENCODING 344
SWIDTH 600 0
DWIDTH 20 0
BBX 17 31 3 0
BITMAP
383800
1CF000
0FE000
07C000
038000
000000
000000
FFC000
FFF800
FFFC00
E03E00
E00E00
E00E00
E00E00
E00E00
E00E00
E00E00
E01E00
E0FC00
FFF000
FFE000
E0E000
E07000
E07800
E03800
E01C00
E01C00
E00E00
E00F00
E00700
E00780
ENDCHAR
STARTCHAR 0159
ENCODING 345
SWIDTH 390 0
DWIDTH 13 0
BBX 12 26 2 0
BITMAP
C070
70E0
39C0
1F80
0F00
0F00
0000
0000
61E0
67E0
6FE0
7C00
7800
7000
7000
7000
7000
7000
7000
7000
7000
7000
7000
7000
7000
7000
ENDCHAR
STARTCHAR 015A
ENCODING 346
SWIDTH 540 0
DWIDTH 18 0
BBX 15 31 2 0
BITMAP
00F0
00E0
01C0
0380
0300
0000
0000
0FF0
3FFC
7FFC
F000
E000
E000
E000
E000
F000
7800
3F00
1FC0
07F0
01F8
003C
001C
001E
000E
000E
001C
001C
F078
FFF8
FFE0
ENDCHAR
STARTCHAR 015B
ENCODING 347
SWIDTH 450 0
DWIDTH 15 0
BBX 12 26 2 0
BITMAP
01E0
01C0
03C0
0380
0700
0E00
0000
0000
1FE0
7FF0
F0E0
E000
E000
E000
F000
7C00
3F80
0FE0
01F0
0070
0070
0030
0070
C0F0
FFE0
FFC0
ENDCHAR
STARTCHAR 015C
ENCODING 348
SWIDTH 540 0
DWIDTH 18 0
BBX 15 31 2 0
BITMAP
07C0
07C0
0EE0
1C70
3038
0000
0000
0FF0
3FFC
7FFC
F000
E000
E000
E000
E000
F000
7800
3F00
1FC0
07F0
01F8
003C
001C
001E
000E
000E
001C
001C
F078
FFF8
FFE0
ENDCHAR
STARTCHAR 015D
ENCODING 349
SWIDTH 450 0
DWIDTH 15 0
BBX 12 26 2 0
BITMAP
0E00
0F00
1F80
39C0
70E0
E070
0000
0000
1FE0
7FF0
F0E0
E000
E000
E000
F000
7C00
3F80
0FE0
01F0
0070
0070
0030
0070
C0F0
FFE0
FFC0
ENDCHAR
STARTCHAR 015E
ENCODING 350
SWIDTH 540 0
DWIDTH 18 0
BBX 15 32 2 -8
BITMAP
0FF0
3FFC
7FFC
F000
E000
E000
E000
E000
F000
7800
3F00
1FC0
07F0
01F8
003C
001C
001E
000E
000E
001C
001C
F078
FFF8
FFE0
0300
0600
0780
01C0
01C0
01C0
1F80
1F00
ENDCHAR
STARTCHAR 015F
ENCODING 351
SWIDTH 450 0
DWIDTH 15 0
BBX 12 26 2 -8
BITMAP
1FE0
7FF0
F0E0
E000
E000
E000
F000
7C00
3F80
0FE0
01F0
0070
0070
0030
0070
C0F0
FFE0
FFC0
0600
0600
0F00
0380
0180
0180
1F80
1E00
ENDCHAR
STARTCHAR 0160
ENCODING 352
SWIDTH 540 0
DWIDTH 18 0
BBX 15 31 2 0
BITMAP
3838
1C70
0EE0
07C0
0380
0000
0000
0FF0
3FFC
7FFC
F000
E000
E000
E000
E000
F000
7800
3F00
1FC0
07F0
01F8
003C
001C
001E
000E
000E
001C
001C
F078
FFF8
FFE0
ENDCHAR
STARTCHAR 0161
ENCODING 353
SWIDTH 450 0
DWIDTH 15 0
BBX 12 26 2 0
BITMAP
C070
70E0
39C0
1F80
0F00
0F00
0000
0000
1FE0
7FF0
F0E0
E000
E000
E000
F000
7C00
3F80
0FE0
01F0
0070
0070
0030
0070
C0F0
FFE0
FFC0
ENDCHAR
STARTCHAR 0162
ENCODING 354
SWIDTH 540 0
DWIDTH 18 0
BBX 18 32 0 -8
BITMAP
FFFFC0
FFFFC0
FFFFC0
00E000
00E000
00E000
00E000
00E000
00E000
00E000
00E000
00E000
00E000
00E000
00E000
00E000
00E000
00E000
00E000
00E000
00E000
00E000
00E000
00E000
00C000
00C000
01E000
007000
003800
003800
03F000
03E000
ENDCHAR
STARTCHAR 0163
ENCODING 355
SWIDTH 360 0
DWIDTH 12 0
BBX 10 30 1 -8
BITMAP
1800
1800
3800
3800
7FC0
FFC0
3800
3800
3800
3800
3800
3800
3800
3800
3800
3800
3800
3800
3800
3C00
1FC0
0FC0
0600
0600
0F00
0380
0180
0180
1F80
1F00
ENDCHAR
STARTCHAR 0164
ENCODING 356
SWIDTH 540 0
DWIDTH 18 0
BBX 18 31 0 0
BITMAP
0E1C00
073800
03F800
01F000
01E000
000000
000000
FFFFC0
FFFFC0
FFFFC0
00E000
00E000
00E000
00E000
00E000
00E000
00E000
00E000
00E000
00E000
00E000
00E000
00E000
00E000
00E000
00E000
00E000
00E000
00E000
00E000
00E000
ENDCHAR
STARTCHAR 0165
ENCODING 357
SWIDTH 360 0
DWIDTH 12 0
BBX 15 25 1 0
BITMAP
000E
001C
001C
1818
1818
3800
3800
7FC0
FFC0
3800
3800
3800
3800
3800
3800
3800
3800
3800
3800
3800
3800
3800
3C00
1FC0
0FC0
ENDCHAR
STARTCHAR 0166
ENCODING 358
SWIDTH 540 0
DWIDTH 18 0
BBX 18 24 0 0
BITMAP
FFFFC0
FFFFC0
FFFFC0
00E000
00E000
00E000
00E000
00E000
00E000
00E000
00E000
1FFF00
1FFF00
00E000
00E000
00E000
00E000
00E000
00E000
00E000
00E000
00E000
00E000
00E000
ENDCHAR
STARTCHAR 0167
ENCODING 359
SWIDTH 360 0
DWIDTH 12 0
BBX 10 22 1 0
BITMAP
1800
1800
3800
3800
7FC0
FFC0
3800
3800
3800
3800
FFC0
FFC0
FFC0
3800
3800
3800
3800
3800
3800
3C00
1FC0
0FC0
ENDCHAR
STARTCHAR 0168
ENCODING 360
SWIDTH 720 0
DWIDTH 24 0
BBX 18 30 3 0
BITMAP
0F8600
0FFE00
18FC00
183800
000000
000000
E001C0
E001C0
E001C0
E001C0
E001C0
E001C0
E001C0
E001C0
E001C0
E001C0
E001C0
E001C0
E001C0
E001C0
E001C0
E001C0
E001C0
E001C0
E001C0
7003C0
780780
3F1F00
1FFE00
07FC00
ENDCHAR
STARTCHAR 0169
ENCODING 361
SWIDTH 600 0
DWIDTH 20 0
BBX 15 25 3 0
BITMAP
0008
3F18
3FF8
63F0
6060
0000
0000
E00E
E00E
E00E
E00E
E00E
E00E
E00E
E00E
E00E
E00E
E00E
E00E
E01E
E01E
E03E
F87E
7FEE
3FCE
ENDCHAR
STARTCHAR 016A
ENCODING 362
SWIDTH 720 0
DWIDTH 24 0
BBX 18 29 3 0
BITMAP
0FFC00
0FFC00
0FFC00
000000
000000
E001C0
E001C0
E001C0
E001C0
E001C0
E001C0
E001C0
E001C0
E001C0
E001C0
E001C0
E001C0
E001C0
E001C0
E001C0
E001C0
E001C0
E001C0
E001C0
7003C0
780780
3F1F00
1FFE00
07FC00
ENDCHAR
STARTCHAR 016B
ENCODING 363
SWIDTH 600 0
DWIDTH 20 0
BBX 15 23 3 0
BITMAP
3FF0
3FF0
3FF0
0000
0000
E00E
E00E
E00E
E00E
E00E
E00E
E00E
E00E
E00E
E00E
E00E
E00E
E01E
E01E
E03E
F87E
7FEE
3FCE
ENDCHAR
STARTCHAR 016C
ENCODING 364
SWIDTH 720 0
DWIDTH 24 0
BBX 18 31 3 0
BITMAP
0C0C00
0C0C00
07FC00
07F800
01E000
000000
000000
E001C0
E001C0
E001C0
E001C0
E001C0
E001C0
E001C0
E001C0
E001C0
E001C0
E001C0
E001C0
E001C0
E001C0
E001C0
E001C0
E001C0
E001C0
E001C0
7003C0
780780
3F1F00
1FFE00
07FC00
ENDCHAR
STARTCHAR 016D
ENCODING 365
SWIDTH 600 0
DWIDTH 20 0
BBX 15 25 3 0
BITMAP
3010
3030
1FF0
1FE0
0780
0000
0000
E00E
E00E
E00E
E00E
E00E
E00E
E00E
E00E
E00E
E00E
E00E
E00E
E01E
E01E
E03E
F87E
7FEE
3FCE
ENDCHAR
STARTCHAR 016E
ENCODING 366
SWIDTH 720 0
DWIDTH 24 0
BBX 18 33 3 0
BITMAP
01E000
03F000
021800
021800
031800
03F000
01E000
000000
000000
E001C0
E001C0
E001C0
E001C0
E001C0
E001C0
E001C0
E001C0
E001C0
E001C0
E001C0
E001C0
E001C0
E001C0
E001C0
E001C0
E001C0
E001C0
E001C0
7003C0
780780
3F1F00
1FFE00
07FC00
ENDCHAR
STARTCHAR 016F
ENCODING 367
SWIDTH 600 0
DWIDTH 20 0
BBX 15 27 3 0
BITMAP
07C0
0EE0
0C60
0860
0C60
0FC0
0380
0000
0000
E00E
E00E
E00E
E00E
E00E
E00E
E00E
E00E
E00E
E00E
E00E
E00E
E01E
E01E
E03E
F87E
7FEE
3FCE
ENDCHAR
STARTCHAR 0170
ENCODING 368
SWIDTH 720 0
DWIDTH 24 0
BBX 18 31 3 0
BITMAP
039E00
071C00
0E3800
0C3000
186000
000000
000000
E001C0
E001C0
E001C0
E001C0
E001C0
E001C0
E001C0
E001C0
E001C0
E001C0
E001C0
E001C0
E001C0
E001C0
E001C0
E001C0
E001C0
E001C0
E001C0
7003C0
780780
3F1F00
1FFE00
07FC00
ENDCHAR
STARTCHAR 0171
ENCODING 369
SWIDTH 600 0
DWIDTH 20 0
BBX 15 26 3 0
BITMAP
0E38
0E38
1C70
18E0
30C0
6180
0000
0000
E00E
E00E
E00E
E00E
E00E
E00E
E00E
E00E
E00E
E00E
E00E
E00E
E01E
E01E
E03E
F87E
7FEE
3FCE
ENDCHAR
STARTCHAR 0172
ENCODING 370
SWIDTH 720 0
DWIDTH 24 0
BBX 18 31 3 -7
BITMAP
E001C0
E001C0
E001C0
E001C0
E001C0
E001C0
E001C0
E001C0
E001C0
E001C0
E001C0
E001C0
E001C0
E001C0
E001C0
E001C0
E001C0
E001C0
E001C0
7003C0
780780
3F1F00
1FFE00
07FC00
001C00
001800
003800
003800
003800
003F00
001F00
ENDCHAR
STARTCHAR 0173
ENCODING 371
SWIDTH 600 0
DWIDTH 20 0
BBX 15 25 3 -7
BITMAP
E00E
E00E
E00E
E00E
E00E
E00E
E00E
E00E
E00E
E00E
E00E
E00E
E01E
E01E
E03E
F87E
7FEE
3FCE
001C
0018
0030
0030
0030
003E
003E
ENDCHAR
STARTCHAR 0174
ENCODING 372
SWIDTH 930 0
DWIDTH 31 0
BBX 30 31 0 0
BITMAP
0007C000
0007C000
000EE000
001C7000
00303800
00000000
00000000
F003801C
7007801C
7007C01C
7007C01C
3806C038
380EE038
380EE038
380EE038
1C1C6070
1C1C7070
1C1C7070
1C187070
0E3838E0
0E3838E0
0E3838E0
0E701CE0
07701DC0
07701DC0
07600DC0
03E00D80
03E00F80
03C00F80
03C00780
01C00700
ENDCHAR
STARTCHAR 0175
ENCODING 373
SWIDTH 780 0
DWIDTH 26 0
BBX 26 26 0 0
BITMAP
000E0000
001E0000
003F0000
00738000
00E1C000
01C0E000
00000000
00000000
F01E01C0
701E0380
701E0380
703F0380
383F0380
38330700
38338700
38738700
1C718700
1C61CE00
1CE1CE00
1CE1CE00
0EC0CC00
0FC0FC00
0FC0FC00
07807C00
07807800
07807800
ENDCHAR
STARTCHAR 0176
ENCODING 374
SWIDTH 540 0
DWIDTH 18 0
BBX 19 31 0 0
BITMAP
01F000
03F000
03B800
071C00
0C0E00
000000
000000
E001E0
7001C0
7003C0
380380
3C0780
1C0700
1E0E00
0E0E00
0F1C00
071C00
03B800
03B800
01F000
01F000
00E000
00E000
00E000
00E000
00E000
00E000
00E000
00E000
00E000
00E000
ENDCHAR
STARTCHAR 0177
ENCODING 375
SWIDTH 510 0
DWIDTH 17 0
BBX 17 34 0 -8
BITMAP
01C000
03E000
07E000
077000
0E3800
180C00
000000
000000
E00380
700700
700700
700700
380E00
380E00
1C0E00
1C1C00
1C1C00
0E3800
0E3800
063800
077000
077000
037000
03E000
01E000
01C000
01C000
01C000
038000
038000
070000
9F0000
FE0000
F80000
ENDCHAR
STARTCHAR 0178
ENCODING 376
SWIDTH 540 0
DWIDTH 18 0
BBX 19 30 0 0
BITMAP
071C00
071C00
071C00
000000
000000
000000
E001E0
7001C0
7003C0
380380
3C0780
1C0700
1E0E00
0E0E00
0F1C00
071C00
03B800
03B800
01F000
01F000
00E000
00E000
00E000
00E000
00E000
00E000
00E000
00E000
00E000
00E000
ENDCHAR
STARTCHAR 0179
ENCODING 377
SWIDTH 570 0
DWIDTH 19 0
BBX 17 31 1 0
BITMAP
003800
007000
00E000
00C000
018000
000000
000000
7FFF00
7FFF00
7FFF00
000F00
000E00
001C00
003C00
003800
007000
00F000
00E000
01C000
03C000
038000
070000
0F0000
0E0000
1C0000
3C0000
380000
700000
FFFF80
FFFF80
FFFF80
ENDCHAR
STARTCHAR 017A
ENCODING 378
SWIDTH 450 0
DWIDTH 15 0
BBX 13 26 1 0
BITMAP
00F0
00E0
01C0
0380
0380
0600
0000
0000
7FF8
7FF8
0038
0070
00F0
00E0
01C0
0380
0380
0700
0E00
1E00
1C00
3800
7800
7000
FFF8
FFF8
ENDCHAR
STARTCHAR 017B
ENCODING 379
SWIDTH 570 0
DWIDTH 19 0
BBX 17 30 1 1
BITMAP
01C000
01C000
01C000
000000
000000
000000
7FFF00
7FFF00
7FFF00
000F00
000E00
001C00
003C00
003800
007000
00F000
00E000
01C000
03C000
038000
070000
0F0000
0E0000
1C0000
3C0000
380000
700000
FFFF80
FFFF80
FFFF80
ENDCHAR
STARTCHAR 017C
ENCODING 380
SWIDTH 450 0
DWIDTH 15 0
BBX 13 24 1 1
BITMAP
0700
0780
0700
0000
0000
0000
7FF8
7FF8
0038
0070
00F0
00E0
01C0
0380
0380
0700
0E00
1E00
1C00
3800
7800
7000
FFF8
FFF8
ENDCHAR
STARTCHAR 017D
ENCODING 381
SWIDTH 570 0
DWIDTH 19 0
BBX 17 31 1 0
BITMAP
0C1C00
0E3800
07F000
03E000
01C000
000000
000000
7FFF00
7FFF00
7FFF00
000F00
000E00
001C00
003C00
003800
007000
00F000
00E000
01C000
03C000
038000
070000
0F0000
0E0000
1C0000
3C0000
380000
700000
FFFF80
FFFF80
FFFF80
ENDCHAR
STARTCHAR 017E
ENCODING 382
SWIDTH 450 0
DWIDTH 15 0
BBX 13 26 1 0
BITMAP
6030
3870
1CE0
0FC0
0F80
0700
0000
0000
7FF8
7FF8
0038
0070
00F0
00E0
01C0
0380
0380
0700
0E00
1E00
1C00
3800
7800
7000
FFF8
FFF8
ENDCHAR
STARTCHAR 017F
ENCODING 383
SWIDTH 300 0
DWIDTH 10 0
BBX 9 25 3 1
BITMAP
3F80
7F80
F000
E000
E000
E000
E000
E000
E000
E000
E000
E000
E000
E000
E000
E000
E000
E000
E000
E000
E000
E000
E000
E000
E000
ENDCHAR
STARTCHAR 0180
ENCODING 384
SWIDTH 600 0
DWIDTH 20 0
BBX 19 25 0 0
BITMAP
1C0000
1C0000
1C0000
FFF800
FFF800
1C0000
1C0000
1CFC00
1DFF00
1F8F80
1E03C0
1E01C0
1C01C0
1C01C0
1C00E0
1C00E0
1C00E0
1C00E0
1C01C0
1C01C0
1C01C0
1E03C0
1F8780
1BFF00
18FE00
ENDCHAR
STARTCHAR 0181
ENCODING 385
SWIDTH 720 0
DWIDTH 24 0
BBX 23 24 0 0
BITMAP
1FFF00
7FFFE0
7FFFF8
E38078
E3803C
E3801C
03801C
03803C
038038
038078
03FFF0
03FF80
03FFF0
038078
03801C
03801C
03801C
03801E
03801C
03801C
03803C
03FFF8
03FFF0
03FFC0
ENDCHAR
STARTCHAR 0182
ENCODING 386
SWIDTH 600 0
DWIDTH 20 0
BBX 16 24 3 0
BITMAP
FFFC
FFFC
FFFC
E000
E000
E000
E000
E000
E000
E000
FFC0
FFF8
FFFC
E01E
E00E
E00F
E007
E007
E00F
E00E
E01E
FFFC
FFF8
FFE0
ENDCHAR
STARTCHAR 0183
ENCODING 387
SWIDTH 600 0
DWIDTH 20 0
BBX 16 25 3 0
BITMAP
FFFC
FFFC
E000
E000
E000
E000
E000
E7E0
EFF8
FC7C
F01E
F00E
E00E
E00E
E007
E007
E007
E007
E00E
E00E
E00E
F01E
FC3C
DFF8
C7F0
ENDCHAR
STARTCHAR 0184
ENCODING 388
SWIDTH 630 0
DWIDTH 21 0
BBX 16 24 3 0
BITMAP
E000
E000
E000
E000
E000
E000
E000
E000
E000
E000
FFE0
FFF8
FFFE
E01E
E00F
E007
E007
E007
E007
E007
700F
7C3E
3FFC
0FF8
ENDCHAR
STARTCHAR 0185
ENCODING 389
SWIDTH 600 0
DWIDTH 20 0
BBX 16 25 3 0
BITMAP
E000
E000
E000
E000
E000
E000
E000
E7E0
EFF8
FC7C
F01C
E00E
E00E
E00E
E00E
E007
E00F
E00E
E00E
E00E
F00E
701C
7C3C
3FF8
0FE0
ENDCHAR
STARTCHAR 0186
ENCODING 390
SWIDTH 630 0
DWIDTH 21 0
BBX 18 24 1 0
BITMAP
3FE000
FFF800
7FFE00
401F00
000F00
000780
000380
000380
0003C0
0001C0
0001C0
0001C0
0001C0
0001C0
0001C0
0003C0
000380
000380
000780
000F00
001E00
707E00
7FF800
7FF000
ENDCHAR
STARTCHAR 0187
ENCODING 391
SWIDTH 630 0
DWIDTH 21 0
BBX 21 29 2 0
BITMAP
000010
0000F8
0000F8
0001C0
0001C0
01FFC0
07FFC0
0FFF80
1E0080
3C0000
780000
700000
700000
F00000
E00000
E00000
E00000
E00000
E00000
E00000
F00000
700000
700000
780000
3C0000
3E0000
1F8380
0FFF80
03FF80
ENDCHAR
STARTCHAR 0188
ENCODING 392
SWIDTH 480 0
DWIDTH 16 0
BBX 16 25 2 1
BITMAP
001F
001F
0038
0038
0038
0038
0038
0FF8
1FF8
3E70
7800
7000
E000
E000
E000
E000
E000
E000
E000
E000
F000
7000
3C18
3FF8
0FF0
ENDCHAR
STARTCHAR 0189
ENCODING 393
SWIDTH 720 0
DWIDTH 24 0
BBX 21 24 1 0
BITMAP
3FF800
3FFF00
3FFF80
3807C0
3801E0
3800F0
380070
380078
380038
380038
380038
FFE038
FFE038
FFE038
380038
380038
380078
380070
3800F0
3801E0
3803C0
3FFF80
3FFF00
3FF800
ENDCHAR
STARTCHAR 018A
ENCODING 394
SWIDTH 810 0
DWIDTH 27 0
BBX 25 24 0 0
BITMAP
1FFF0000
7FFFE000
7FFFF800
E3807C00
E3801E00
E3800F00
03800700
03800700
03800780
03800380
03800380
03800380
03800380
03800380
03800380
03800780
03800700
03800700
03800F00
03801E00
03807C00
03FFF800
03FFF000
03FF8000
ENDCHAR
STARTCHAR 018B
ENCODING 395
SWIDTH 600 0
DWIDTH 20 0
BBX 15 24 2 0
BITMAP
7FFE
7FFE
7FFE
000E
000E
000E
000E
000E
000E
000E
03FE
1FFE
3FFE
780E
F00E
E00E
E00E
E00E
E00E
E00E
F00E
7FFE
3FFE
0FFE
ENDCHAR
STARTCHAR 018C
ENCODING 396
SWIDTH 600 0
DWIDTH 20 0
BBX 16 25 2 0
BITMAP
3FFF
3FFF
0007
0007
0007
0007
0007
0FC7
3FF7
3C7F
781F
F00F
E00F
E007
E007
E007
E007
E007
E007
E00F
F00F
701F
7C3F
3FF7
0FE7
ENDCHAR
STARTCHAR 018D
ENCODING 397
SWIDTH 600 0
DWIDTH 20 0
BBX 17 26 2 -8
BITMAP
07F000
1FFC00
3E3E00
780F00
700700
700700
E00780
E00380
E00380
E00700
700700
700700
380E00
3C1C00
1F7800
07E000
03F000
00F800
003800
001C00
001C00
201C00
303800
7FF800
1FF000
038000
ENDCHAR
STARTCHAR 018E
ENCODING 398
SWIDTH 540 0
DWIDTH 18 0
BBX 13 24 2 0
BITMAP
FFF8
FFF8
FFF8
0038
0038
0038
0038
0038
0038
0038
7FF8
7FF8
7FF8
0038
0038
0038
0038
0038
0038
0038
0038
FFF8
FFF8
FFF8
ENDCHAR
STARTCHAR 018F
ENCODING 399
SWIDTH 720 0
DWIDTH 24 0
BBX 21 24 2 0
BITMAP
0FFC00
7FFF00
7FFF80
6003C0
0001E0
0000E0
0000F0
000070
000070
000070
000070
FFFFF8
FFFFF8
FFFFF8
E00070
E00070
E00070
700070
7000E0
7801E0
3C03C0
1F0F80
0FFF00
07FC00
ENDCHAR
STARTCHAR 0190
ENCODING 400
SWIDTH 570 0
DWIDTH 19 0
BBX 16 24 2 0
BITMAP
07F8
1FFE
3E1F
7806
7000
7000
7000
7000
7800
3C00
1FFC
03FC
1FFC
7C00
7000
E000
E000
E000
E000
E000
F000
7C0F
3FFF
0FFE
ENDCHAR
STARTCHAR 0191
ENCODING 401
SWIDTH 570 0
DWIDTH 19 0
BBX 20 32 -1 -8
BITMAP
01FFF0
01FFF0
01FFF0
01C000
01C000
01C000
01C000
01C000
01C000
01C000
01FFE0
01FFE0
01FFE0
01C000
01C000
01C000
01C000
01C000
01C000
01C000
01C000
01C000
01C000
01C000
01C000
01C000
61C000
E1C000
F1C000
7FC000
7F8000
3F0000
ENDCHAR
STARTCHAR 0192
ENCODING 402
SWIDTH 390 0
DWIDTH 13 0
BBX 15 33 0 -7
BITMAP
00FE
01FE
01C0
0380
0380
0380
0380
0FF8
1FF8
0380
0380
0380
0380
0380
0380
0380
0380
0380
0380
0380
0380
0380
0380
0380
0380
0380
0380
8380
C380
C380
E700
FF00
3E00
ENDCHAR
STARTCHAR 0193
ENCODING 403
SWIDTH 720 0
DWIDTH 24 0
BBX 23 29 2 0
BITMAP
00000C
00003E
00007E
000070
000060
00FFE0
03FFE0
0FFFE0
1F0060
3C0000
380000
780000
700000
F00000
E00000
E00000
E00FF0
E00FF0
E00FF0
E00070
F00070
700070
700070
780070
3C0070
3E0070
1FC1F0
07FFF0
01FFE0
ENDCHAR
STARTCHAR 0194
ENCODING 404
SWIDTH 570 0
DWIDTH 19 0
BBX 19 32 0 -8
BITMAP
E000E0
F001E0
7001C0
7001C0
380380
380380
3C0780
1C0700
1C0700
0E0E00
0E0E00
0E0E00
071C00
071C00
03B800
03B800
03B800
01B000
01F000
01F000
00E000
01F000
01F000
01B000
03B800
03B800
031800
031800
033800
03F800
03F000
00E000
ENDCHAR
STARTCHAR 0195
ENCODING 405
SWIDTH 930 0
DWIDTH 31 0
BBX 25 25 3 0
BITMAP
E0000000
E0000000
E0000000
E0000000
E0000000
E0000000
E0000000
E7E00380
EFF80380
FC780380
F03C0380
F01C0380
E01C0380
E01C0380
E01C0380
E01C0380
E01C0380
E01C0380
E01C0380
E01C0380
E01C0380
E00E0380
E00F0F80
E007FF00
E003FE00
ENDCHAR
STARTCHAR 0196
ENCODING 406
SWIDTH 330 0
DWIDTH 11 0
BBX 8 24 3 0
BITMAP
E0
E0
E0
E0
E0
E0
E0
E0
E0
E0
E0
E0
E0
E0
E0
E0
E0
E0
E0
E0
E0
F1
7F
3F
ENDCHAR
STARTCHAR 0197
ENCODING 407
SWIDTH 330 0
DWIDTH 11 0
BBX 9 24 1 0
BITMAP
FF80
FF80
1E00
1C00
1C00
1C00
1C00
1C00
1C00
1C00
FF80
FF80
FF80
1C00
1C00
1C00
1C00
1C00
1C00
1C00
1C00
1C00
FF80
FF80
ENDCHAR
STARTCHAR 0198
ENCODING 408
SWIDTH 600 0
DWIDTH 20 0
BBX 17 24 3 0
BITMAP
E00780
E00F80
E01F80
E03C00
E03800
E07000
E0E000
E1C000
E3C000
E78000
E70000
EF8000
FF8000
FBC000
F1E000
E0F000
E07000
E07800
E03C00
E01C00
E00E00
E00F00
E00780
E00380
ENDCHAR
STARTCHAR 0199
ENCODING 409
SWIDTH 510 0
DWIDTH 17 0
BBX 14 25 3 1
BITMAP
7C00
FC00
E000
E000
E000
E000
E000
E03C
E078
E0F0
E1E0
E3C0
E780
E700
EE00
FE00
FF00
F780
E3C0
E1C0
E0E0
E0F0
E078
E038
E01C
ENDCHAR
STARTCHAR 019A
ENCODING 410
SWIDTH 240 0
DWIDTH 8 0
BBX 8 25 0 0
BITMAP
1C
1C
1C
1C
1C
1C
1C
1C
1C
1C
1C
FF
FF
1C
1C
1C
1C
1C
1C
1C
1C
1C
1C
1C
1C
ENDCHAR
STARTCHAR 019B
ENCODING 411
SWIDTH 540 0
DWIDTH 18 0
BBX 18 26 0 0
BITMAP
180000
7E0000
7F0000
07F800
07F800
1FC000
1DC000
01C000
01C000
01E000
01E000
03F000
037000
077000
073800
0E3800
0E3800
0E1C00
1C1C00
1C1C00
380E00
380E00
700700
700700
E007C0
E003C0
ENDCHAR
STARTCHAR 019C
ENCODING 412
SWIDTH 1020 0
DWIDTH 34 0
BBX 28 24 3 0
BITMAP
E0070070
E0070070
E0070070
E0070070
E0070070
E0070070
E0070070
E0070070
E0070070
E0070070
E0070070
E0070070
E0070070
E0070070
E0070070
E0070070
E00F0070
E00F0070
E00F0070
E00F00F0
F01F01F0
7CFFC7F0
7FF3FF70
1FC1FE30
ENDCHAR
STARTCHAR 019D
ENCODING 413
SWIDTH 750 0
DWIDTH 25 0
BBX 22 32 0 -8
BITMAP
1E001C
1F001C
1F001C
1F801C
1F801C
1DC01C
1DE01C
1CE01C
1C701C
1C781C
1C381C
1C1C1C
1C1E1C
1C0E1C
1C0F1C
1C079C
1C039C
1C03DC
1C01DC
1C00FC
1C00FC
1C007C
1C003C
1C003C
1C0000
1C0000
1C0000
1C0000
1C0000
FC0000
F80000
F00000
ENDCHAR
STARTCHAR 019E
ENCODING 414
SWIDTH 600 0
DWIDTH 20 0
BBX 15 26 3 -8
BITMAP
C7F0
CFF8
FC7C
F01C
F01C
E00E
E00E
E00E
E00E
E00E
E00E
E00E
E00E
E00E
E00E
E00E
E00E
E00E
000E
000E
000E
000E
000E
000E
000E
000E
ENDCHAR
STARTCHAR 019F
ENCODING 415
SWIDTH 780 0
DWIDTH 26 0
BBX 22 24 2 0
BITMAP
01FE00
07FF80
1FFFE0
3E01E0
3C00F0
780078
700038
700038
F0003C
E0001C
E0001C
FFFFFC
FFFFFC
E0001C
E0001C
F0003C
700038
700038
780078
380070
3C00F0
1F87E0
0FFFC0
03FF00
ENDCHAR
STARTCHAR 01A0
ENCODING 416
SWIDTH 780 0
DWIDTH 26 0
BBX 25 25 2 0
BITMAP
00000780
01FE0700
07FF8700
1FFFE700
3E01FE00
3C00FC00
78007800
70003800
70003800
F0003C00
E0001C00
E0001C00
E0001C00
E0001C00
E0001C00
E0001C00
F0003C00
70003800
70003800
78007800
38007000
3C00F000
1F87E000
0FFFC000
03FF0000
ENDCHAR
STARTCHAR 01A1
ENCODING 417
SWIDTH 600 0
DWIDTH 20 0
BBX 19 21 2 0
BITMAP
0000E0
0000E0
0000E0
0FF0E0
1FF9C0
3E7F80
700F00
700F00
E00700
E00700
E00700
E00700
E00700
E00700
E00700
E00700
700F00
700E00
3C3C00
1FFC00
0FF000
ENDCHAR
STARTCHAR 01A2
ENCODING 418
SWIDTH 1050 0
DWIDTH 35 0
BBX 31 24 2 0
BITMAP
01FE07F0
0FFF1FF8
1FDFFEFC
3E03F01C
3800E01E
7800F00E
7000700E
7000700E
F000780E
E000380E
E000380E
E000380E
E000380E
E000380E
E000380E
F000780E
7000700E
7000700E
7800F00E
3800E00E
3C01E00E
1F8FC00E
0FFF800E
03FE000E
ENDCHAR
STARTCHAR 01A3
ENCODING 419
SWIDTH 840 0
DWIDTH 28 0
BBX 23 26 2 -8
BITMAP
0FE1F8
1FFBFC
3E7F1E
701E0E
700E0E
E00E0E
E00E06
E00E06
E00F06
E00F06
E00E06
E00E06
E00E06
700E06
701C06
3C3C06
1FF806
0FE006
000006
000006
000006
000006
000006
000006
000006
000006
ENDCHAR
STARTCHAR 01A4
ENCODING 420
SWIDTH 660 0
DWIDTH 22 0
BBX 21 24 0 0
BITMAP
1FFF00
7FFFC0
7FFFE0
E380F0
E38078
E38038
038038
038038
038038
038038
038070
0380F0
03FFE0
03FFC0
03FC00
038000
038000
038000
038000
038000
038000
038000
038000
038000
ENDCHAR
STARTCHAR 01A5
ENCODING 421
SWIDTH 600 0
DWIDTH 20 0
BBX 16 33 3 -7
BITMAP
7C00
FC00
E000
E000
E000
E000
E000
E7F0
EFF8
FC7C
F01E
F00E
E00E
E00E
E007
E007
E007
E007
E00E
E00E
F00E
F01E
FC3C
FFF8
E7F0
E000
E000
E000
E000
E000
E000
E000
E000
ENDCHAR
STARTCHAR 01A6
ENCODING 422
SWIDTH 600 0
DWIDTH 20 0
BBX 17 27 3 -3
BITMAP
E00000
E00000
E00000
E00000
FFF000
FFFC00
E03E00
E01E00
E00E00
E00E00
E00E00
E00E00
E00E00
E01E00
E03C00
FFF800
FFE000
FFE000
E07000
E07000
E03800
E03C00
E01C00
E01E00
000E00
000700
000780
ENDCHAR
STARTCHAR 01A7
ENCODING 423
SWIDTH 540 0
DWIDTH 18 0
BBX 15 24 2 0
BITMAP
1FE0
7FF8
3FFC
203C
001C
001E
000E
001C
001C
007C
01F8
07F0
1FC0
7E00
F800
F000
E000
E000
E000
E000
F002
7C3E
3FFE
1FF8
ENDCHAR
STARTCHAR 01A8
ENCODING 424
SWIDTH 450 0
DWIDTH 15 0
BBX 12 18 2 0
BITMAP
3FC0
7FE0
70F0
0070
0070
0070
00F0
03E0
1FC0
7F00
F800
E000
C000
C000
E000
F030
7FF0
3FF0
ENDCHAR
STARTCHAR 01A9
ENCODING 425
SWIDTH 570 0
DWIDTH 19 0
BBX 17 24 1 0
BITMAP
7FFF00
7FFF00
7FFF00
780000
3C0000
1E0000
0F0000
070000
078000
03C000
01E000
00E000
01E000
01C000
038000
070000
0F0000
1E0000
1C0000
380000
700000
FFFF80
FFFF80
FFFF80
ENDCHAR
STARTCHAR 01AA
ENCODING 426
SWIDTH 330 0
DWIDTH 11 0
BBX 14 33 0 -7
BITMAP
7E00
FF00
E700
C700
F700
FF00
7F00
0700
0700
0700
0700
0700
0700
0700
0700
0700
0700
0700
0700
0700
0700
0700
0700
0700
0700
0700
0700
0700
0700
0380
03CC
03FC
00F8
ENDCHAR
STARTCHAR 01AB
ENCODING 427
SWIDTH 360 0
DWIDTH 12 0
BBX 10 30 1 -8
BITMAP
1800
1800
3800
3800
7FC0
FFC0
3800
3800
3800
3800
3800
3800
3800
3800
3800
3800
3800
3800
3800
3C00
1FC0
0FC0
00C0
00C0
00C0
00C0
00C0
0FC0
0FC0
0F80
ENDCHAR
STARTCHAR 01AC
ENCODING 428
SWIDTH 570 0
DWIDTH 19 0
BBX 19 24 0 0
BITMAP
1FFFE0
7FFFE0
7FFFE0
E0E000
E0E000
E0E000
00E000
00E000
00E000
00E000
00E000
00E000
00E000
00E000
00E000
00E000
00E000
00E000
00E000
00E000
00E000
00E000
00E000
00E000
ENDCHAR
STARTCHAR 01AD
ENCODING 429
SWIDTH 360 0
DWIDTH 12 0
BBX 10 25 1 1
BITMAP
0FC0
1FC0
3C00
3800
3800
3800
3800
7FC0
FFC0
3800
3800
3800
3800
3800
3800
3800
3800
3800
3800
3800
3800
3800
3C00
1FC0
0FC0
ENDCHAR
STARTCHAR 01AE
ENCODING 430
SWIDTH 540 0
DWIDTH 18 0
BBX 18 32 0 -8
BITMAP
FFFFC0
FFFFC0
FFFFC0
00E000
00E000
00E000
00E000
00E000
00E000
00E000
00E000
00E000
00E000
00E000
00E000
00E000
00E000
00E000
00E000
00E000
00E000
00E000
00E000
00E000
00E000
00E000
00E000
00E000
00E000
00FC00
007C00
003C00
ENDCHAR
STARTCHAR 01AF
ENCODING 431
SWIDTH 780 0
DWIDTH 26 0
BBX 24 25 3 0
BITMAP
000007
E001C7
E001CF
E001CE
E001FC
E001F8
E001C0
E001C0
E001C0
E001C0
E001C0
E001C0
E001C0
E001C0
E001C0
E001C0
E001C0
E001C0
E001C0
E001C0
7003C0
780780
3F1F80
1FFE00
07FC00
ENDCHAR
STARTCHAR 01B0
ENCODING 432
SWIDTH 660 0
DWIDTH 22 0
BBX 20 21 3 0
BITMAP
000070
000070
000070
E00E70
E00EE0
E00FE0
E00F80
E00E00
E00E00
E00E00
E00E00
E00E00
E00E00
E00E00
E00E00
E01E00
E01E00
E03E00
F87E00
7FEE00
3FCE00
ENDCHAR
STARTCHAR 01B1
ENCODING 433
SWIDTH 780 0
DWIDTH 26 0
BBX 24 24 1 0
BITMAP
FFC3FF
FFC3FF
FFC3FF
0781E0
0F00F0
0E0070
1C0038
3C001C
38001C
38001C
78001E
70000E
70000E
70000E
70000E
70001E
78001E
38001C
38001C
3C003C
1E0078
0FC3F0
07FFE0
01FF80
ENDCHAR
STARTCHAR 01B2
ENCODING 434
SWIDTH 720 0
DWIDTH 24 0
BBX 18 24 3 0
BITMAP
E01F00
E01FC0
E01FC0
E001C0
E001C0
E001C0
E001C0
E001C0
E001C0
E001C0
E001C0
E001C0
E001C0
E001C0
E001C0
E001C0
E001C0
E001C0
E001C0
7003C0
780780
3F1F00
1FFE00
07FC00
ENDCHAR
STARTCHAR 01B3
ENCODING 435
SWIDTH 570 0
DWIDTH 19 0
BBX 19 24 0 0
BITMAP
E001E0
7003E0
7003A0
380700
3C0700
1C0E00
1E0E00
0E1C00
0F1C00
071800
03B800
03B800
01F000
01F000
00E000
00E000
00E000
00E000
00E000
00E000
00E000
00E000
00E000
00E000
ENDCHAR
STARTCHAR 01B4
ENCODING 436
SWIDTH 540 0
DWIDTH 18 0
BBX 18 26 0 -8
BITMAP
E003C0
7007C0
700700
700700
380E00
380E00
1C0C00
1C1C00
1C1C00
0E1800
0E3800
063800
077000
077000
037000
03E000
01E000
01C000
01C000
01C000
038000
038000
070000
9F0000
FE0000
F80000
ENDCHAR
STARTCHAR 01B5
ENCODING 437
SWIDTH 570 0
DWIDTH 19 0
BBX 17 24 1 0
BITMAP
7FFF00
7FFF00
7FFF00
000F00
000E00
001C00
003C00
003800
007000
00F000
3FFE00
3FFE00
3FFE00
038000
070000
0F0000
0E0000
1C0000
3C0000
380000
700000
FFFF80
FFFF80
FFFF80
ENDCHAR
STARTCHAR 01B6
ENCODING 438
SWIDTH 450 0
DWIDTH 15 0
BBX 13 18 1 0
BITMAP
7FF8
7FF8
0038
0070
00F0
00E0
01C0
0380
7FF8
7FF8
0E00
1E00
1C00
3800
7800
7000
FFF8
FFF8
ENDCHAR
STARTCHAR 01B7
ENCODING 439
SWIDTH 570 0
DWIDTH 19 0
BBX 17 24 1 0
BITMAP
7FFF00
7FFF00
7FFF00
001E00
003C00
007800
00F000
01E000
038000
070000
0F8000
0FF800
0FFE00
001E00
000F00
000700
000780
000780
000780
000700
800F00
F03E00
FFFC00
7FF000
ENDCHAR
STARTCHAR 01B8
ENCODING 440
SWIDTH 570 0
DWIDTH 19 0
BBX 16 24 2 0
BITMAP
7FFF
7FFF
7FFF
3800
1C00
0E00
0700
0380
01C0
01E0
1FE0
3FE0
7800
7000
E000
E000
E000
E000
E000
F000
7800
7E0F
3FFF
0FFE
ENDCHAR
STARTCHAR 01B9
ENCODING 441
SWIDTH 480 0
DWIDTH 16 0
BBX 15 26 1 -8
BITMAP
7FFE
7FFE
7FFE
3800
1C00
0E00
0700
0380
01C0
00E0
01F0
0FF0
1FF0
3C00
7000
7000
E000
E000
E000
E000
E000
7000
7802
3F7E
1FFE
07F8
ENDCHAR
STARTCHAR 01BA
ENCODING 442
SWIDTH 480 0
DWIDTH 16 0
BBX 14 26 1 -8
BITMAP
FFF8
FFF8
FFF8
00F0
01E0
0380
0700
1E00
1FE0
1FF0
00F8
003C
001C
001C
001C
001C
003C
0078
3FF0
7FE0
FC00
E000
E010
FDF0
7FF0
1FC0
ENDCHAR
STARTCHAR 01BB
ENCODING 443
SWIDTH 570 0
DWIDTH 19 0
BBX 15 25 2 1
BITMAP
1FE0
7FF0
F078
4038
0038
0038
0038
0038
0038
0078
0070
7FFE
7FFE
01C0
0380
0780
0F00
0E00
1C00
3800
7800
F000
E000
FFFE
FFFE
ENDCHAR
STARTCHAR 01BC
ENCODING 444
SWIDTH 570 0
DWIDTH 19 0
BBX 17 24 1 0
BITMAP
FFFF00
FFFF00
FFFF00
1C0000
1C0000
1C0000
1C0000
1C0000
1C0000
1FC000
1FF800
1FFC00
001E00
000F00
000700
000780
000780
000780
000700
000700
800F00
F03E00
FFFC00
7FF000
ENDCHAR
STARTCHAR 01BD
ENCODING 445
SWIDTH 480 0
DWIDTH 16 0
BBX 14 18 1 0
BITMAP
FFF8
FFF8
FFF8
1800
1800
1800
1E00
1FE0
1FF8
0078
003C
001C
001C
001C
0038
E078
FFF0
7FC0
ENDCHAR
STARTCHAR 01BE
ENCODING 446
SWIDTH 450 0
DWIDTH 15 0
BBX 13 22 1 0
BITMAP
0400
0C00
0C00
0C00
3FF0
FFF0
0C00
0C00
0C00
0C00
0E00
0E00
0F80
07E0
01F0
0078
0038
0038
0038
E070
FFF0
7FC0
ENDCHAR
STARTCHAR 01BF
ENCODING 447
SWIDTH 570 0
DWIDTH 19 0
BBX 15 26 3 -8
BITMAP
C7E0
CFF8
FC7C
F01C
E01E
E00E
E00E
E00E
E00E
E00E
E01C
E01C
E03C
E078
E1F0
E7E0
FF80
FE00
E000
E000
E000
E000
E000
E000
E000
E000
ENDCHAR
STARTCHAR 01C0
ENCODING 448
SWIDTH 330 0
DWIDTH 11 0
BBX 3 25 4 0
BITMAP
E0
E0
E0
E0
E0
E0
E0
E0
E0
E0
E0
E0
E0
E0
E0
E0
E0
E0
E0
E0
E0
E0
E0
E0
E0
ENDCHAR
STARTCHAR 01C1
ENCODING 449
SWIDTH 540 0
DWIDTH 18 0
BBX 10 25 4 0
BITMAP
E0C0
E0C0
E0C0
E0C0
E0C0
E0C0
E0C0
E0C0
E0C0
E0C0
E0C0
E0C0
E0C0
E0C0
E0C0
E0C0
E0C0
E0C0
E0C0
E0C0
E0C0
E0C0
E0C0
E0C0
E0C0
ENDCHAR
STARTCHAR 01C2
ENCODING 450
SWIDTH 510 0
DWIDTH 17 0
BBX 13 25 2 0
BITMAP
0700
0700
0700
0700
0700
0700
0700
0700
FFF8
FFF8
FFF8
0700
0700
0700
FFF8
FFF8
0700
0700
0700
0700
0700
0700
0700
0700
0700
ENDCHAR
STARTCHAR 01C3
ENCODING 451
SWIDTH 240 0
DWIDTH 8 0
BBX 5 24 2 0
BITMAP
70
70
70
70
70
70
70
70
70
70
70
70
70
70
70
70
60
00
00
00
70
F0
F8
70
ENDCHAR
STARTCHAR 01C4
ENCODING 452
SWIDTH 1290 0
DWIDTH 43 0
BBX 39 31 3 0
BITMAP
0000003070
00000038E0
0000001FC0
0000000F80
0000000700
0000000000
0000000000
FFE001FFFC
FFFC01FFFC
FFFE01FFFC
E01F00003C
E007800038
E003C00070
E001C000F0
E001E000E0
E000E001C0
E000E003C0
E000E00380
E000E00700
E000E00F00
E000E00E00
E000E01C00
E000E03C00
E001E03800
E001C07000
E003C0F000
E00780E000
E00F01C000
FFFE03FFFE
FFFC03FFFE
FFE003FFFE
ENDCHAR
STARTCHAR 01C5
ENCODING 453
SWIDTH 1200 0
DWIDTH 40 0
BBX 36 26 3 0
BITMAP
000000C060
000000E1C0
FFE0007380
FFFC003F00
FFFE001F00
E01F001E00
E007800000
E003C00000
E001C1FFE0
E001E1FFE0
E000E000E0
E000E001E0
E000E001C0
E000E00380
E000E00780
E000E00700
E000E00E00
E000E01C00
E001E01C00
E001C03800
E003C07000
E00780F000
E00F00E000
FFFE01C000
FFFC01FFF0
FFE001FFF0
ENDCHAR
STARTCHAR 01C6
ENCODING 454
SWIDTH 1080 0
DWIDTH 36 0
BBX 33 26 2 0
BITMAP
0000060300
0007070E00
0007039C00
000701FC00
000700F800
0007007000
0007000000
0007000000
0FC70FFF80
3FF70FFF80
3C7F000780
781F000700
F00F000E00
E00F001C00
E007003C00
E007003800
E007007000
E00700F000
E00700E000
E00701C000
E00F038000
F00F038000
701F070000
7C3F0E0000
3FF70FFF80
0FE70FFF80
ENDCHAR
STARTCHAR 01C7
ENCODING 455
SWIDTH 780 0
DWIDTH 26 0
BBX 21 30 3 -6
BITMAP
E00038
E00038
E00038
E00038
E00038
E00038
E00038
E00038
E00038
E00038
E00038
E00038
E00038
E00038
E00038
E00038
E00038
E00038
E00038
E00038
E00038
FFFC38
FFFC38
FFFC38
000078
000070
000070
0009F0
000FE0
000FC0
ENDCHAR
STARTCHAR 01C8
ENCODING 456
SWIDTH 780 0
DWIDTH 26 0
BBX 20 32 3 -7
BITMAP
E00070
E00070
E00070
E00000
E00000
E00000
E00070
E00070
E00070
E00070
E00070
E00070
E00070
E00070
E00070
E00070
E00070
E00070
E00070
E00070
E00070
FFFC70
FFFC70
FFFC70
000070
000070
000070
000070
000070
0005F0
0007E0
0007C0
ENDCHAR
STARTCHAR 01C9
ENCODING 457
SWIDTH 510 0
DWIDTH 17 0
BBX 12 33 3 -8
BITMAP
E040
E0E0
E0F0
E060
E000
E000
E000
E0E0
E0E0
E0E0
E0E0
E0E0
E0E0
E0E0
E0E0
E0E0
E0E0
E0E0
E0E0
E0E0
E0E0
E0E0
E0E0
E0E0
E0E0
00E0
00E0
00E0
00E0
00E0
0BE0
0FC0
0F80
ENDCHAR
STARTCHAR 01CA
ENCODING 458
SWIDTH 1020 0
DWIDTH 34 0
BBX 28 30 3 -6
BITMAP
F000E070
F800E070
F800E070
FC00E070
FC00E070
EE00E070
EF00E070
E700E070
E380E070
E3C0E070
E1C0E070
E0E0E070
E0F0E070
E070E070
E078E070
E03CE070
E01CE070
E01EE070
E00EE070
E007E070
E007E070
E003E070
E001E070
E001E070
00000070
00000070
00000070
000001F0
00000FE0
00000FC0
ENDCHAR
STARTCHAR 01CB
ENCODING 459
SWIDTH 990 0
DWIDTH 33 0
BBX 28 33 3 -8
BITMAP
00000020
F000E070
F800E070
F800E070
FC00E000
FC00E000
EE00E000
EF00E070
E700E070
E380E070
E3C0E070
E1C0E070
E0E0E070
E0F0E070
E070E070
E078E070
E03CE070
E01CE070
E01EE070
E00EE070
E007E070
E007E070
E003E070
E001E070
E001E070
00000070
00000070
00000070
00000070
00000070
00000DF0
00000FE0
00000FC0
ENDCHAR
STARTCHAR 01CC
ENCODING 460
SWIDTH 870 0
DWIDTH 29 0
BBX 24 33 3 -8
BITMAP
000004
00000E
00000F
000006
000000
000000
000000
C7F00E
CFF80E
FE7C0E
F01E0E
F00E0E
E00E0E
E00E0E
E00E0E
E00E0E
E00E0E
E00E0E
E00E0E
E00E0E
E00E0E
E00E0E
E00E0E
E00E0E
E00E0E
00000E
00000E
00000E
00000E
00000E
0000BE
0000FC
0000F8
ENDCHAR
STARTCHAR 01CD
ENCODING 461
SWIDTH 630 0
DWIDTH 21 0
BBX 21 31 0 0
BITMAP
070700
038E00
01DC00
00F800
007000
000000
000000
007000
007800
00F800
00F800
00DC00
01DC00
01CC00
038E00
038E00
038700
070700
070700
0E0380
0E0380
0FFFC0
1FFFC0
1FFFC0
1C00E0
3800E0
3800F0
700070
700070
700038
E00038
ENDCHAR
STARTCHAR 01CE
ENCODING 462
SWIDTH 540 0
DWIDTH 18 0
BBX 14 26 2 0
BITMAP
3018
3830
1CE0
0FE0
07C0
0380
0000
0000
0FE0
3FF8
3C78
203C
001C
001C
001C
01FC
3FFC
7E1C
F01C
E01C
E01C
E01C
E03C
F0FC
7FCC
3F8C
ENDCHAR
STARTCHAR 01CF
ENCODING 463
SWIDTH 330 0
DWIDTH 11 0
BBX 10 31 1 0
BITMAP
C1C0
E380
7F00
3E00
1C00
0000
0000
FF80
FF80
1E00
1C00
1C00
1C00
1C00
1C00
1C00
1C00
1C00
1C00
1C00
1C00
1C00
1C00
1C00
1C00
1C00
1C00
1C00
1C00
FF80
FF80
ENDCHAR
STARTCHAR 01D0
ENCODING 464
SWIDTH 240 0
DWIDTH 8 0
BBX 11 26 -1 0
BITMAP
C060
E1C0
7380
3F00
1F00
0E00
0000
0000
0E00
0E00
0E00
0E00
0E00
0E00
0E00
0E00
0E00
0E00
0E00
0E00
0E00
0E00
0E00
0E00
0E00
0E00
ENDCHAR
STARTCHAR 01D1
ENCODING 465
SWIDTH 780 0
DWIDTH 26 0
BBX 22 31 2 0
BITMAP
038700
01CE00
00FC00
007800
007800
000000
000000
01FE00
07FF80
1FFFE0
3E01E0
3C00F0
780078
700038
700038
F0003C
E0001C
E0001C
E0001C
E0001C
E0001C
E0001C
F0003C
700038
700038
780078
380070
3E00F0
1F87E0
0FFFC0
03FF00
ENDCHAR
STARTCHAR 01D2
ENCODING 466
SWIDTH 600 0
DWIDTH 20 0
BBX 16 26 2 0
BITMAP
380C
1C38
0E70
07E0
03C0
03C0
0000
0000
0FF0
1FF8
3E7C
780E
700F
E007
E007
E007
E007
E007
E007
E007
E007
700F
700E
3C3C
1FFC
0FF0
ENDCHAR
STARTCHAR 01D3
ENCODING 467
SWIDTH 720 0
DWIDTH 24 0
BBX 18 31 3 0
BITMAP
0E1C00
073800
03F000
01F000
01E000
000000
000000
E001C0
E001C0
E001C0
E001C0
E001C0
E001C0
E001C0
E001C0
E001C0
E001C0
E001C0
E001C0
E001C0
E001C0
E001C0
E001C0
E001C0
E001C0
E001C0
7003C0
780780
3F1F00
1FFE00
07FC00
ENDCHAR
STARTCHAR 01D4
ENCODING 468
SWIDTH 600 0
DWIDTH 20 0
BBX 15 26 3 0
BITMAP
3018
3870
1CE0
0FC0
07C0
0380
0000
0000
E00E
E00E
E00E
E00E
E00E
E00E
E00E
E00E
E00E
E00E
E00E
E00E
E01E
E01E
E03E
F87E
7FEE
3FCE
ENDCHAR
STARTCHAR 01D5
ENCODING 469
SWIDTH 720 0
DWIDTH 24 0
BBX 18 34 3 0
BITMAP
0FFC00
0FFC00
0FFC00
000000
000000
061C00
071C00
061C00
000000
000000
E001C0
E001C0
E001C0
E001C0
E001C0
E001C0
E001C0
E001C0
E001C0
E001C0
E001C0
E001C0
E001C0
E001C0
E001C0
E001C0
E001C0
E001C0
E001C0
7003C0
780780
3F1F00
1FFE00
07FC00
ENDCHAR
STARTCHAR 01D6
ENCODING 470
SWIDTH 600 0
DWIDTH 20 0
BBX 15 28 3 0
BITMAP
3FF0
3FF0
3FF0
0000
0000
1C70
1C70
1870
0000
0000
E00E
E00E
E00E
E00E
E00E
E00E
E00E
E00E
E00E
E00E
E00E
E00E
E01E
E01E
E03E
F87E
7FEE
3FCE
ENDCHAR
STARTCHAR 01D7
ENCODING 471
SWIDTH 720 0
DWIDTH 24 0
BBX 18 35 3 0
BITMAP
003C00
003800
007000
00E000
01C000
000000
061C00
071C00
061C00
000000
000000
E001C0
E001C0
E001C0
E001C0
E001C0
E001C0
E001C0
E001C0
E001C0
E001C0
E001C0
E001C0
E001C0
E001C0
E001C0
E001C0
E001C0
E001C0
E001C0
7003C0
780780
3F1F00
1FFE00
07FC00
ENDCHAR
STARTCHAR 01D8
ENCODING 472
SWIDTH 600 0
DWIDTH 20 0
BBX 15 29 3 0
BITMAP
00F0
00E0
01C0
0380
0700
0000
1C70
1C70
1870
0000
0000
E00E
E00E
E00E
E00E
E00E
E00E
E00E
E00E
E00E
E00E
E00E
E00E
E01E
E01E
E03E
F87E
7FEE
3FCE
ENDCHAR
STARTCHAR 01D9
ENCODING 473
SWIDTH 720 0
DWIDTH 24 0
BBX 18 35 3 0
BITMAP
0E0C00
073800
03F000
01F000
00E000
000000
061C00
071C00
061C00
000000
000000
E001C0
E001C0
E001C0
E001C0
E001C0
E001C0
E001C0
E001C0
E001C0
E001C0
E001C0
E001C0
E001C0
E001C0
E001C0
E001C0
E001C0
E001C0
E001C0
7003C0
780780
3F1F00
1FFE00
07FC00
ENDCHAR
STARTCHAR 01DA
ENCODING 474
SWIDTH 600 0
DWIDTH 20 0
BBX 15 29 3 0
BITMAP
3830
1CE0
0FC0
07C0
0380
0000
1C70
1C70
1870
0000
0000
E00E
E00E
E00E
E00E
E00E
E00E
E00E
E00E
E00E
E00E
E00E
E00E
E01E
E01E
E03E
F87E
7FEE
3FCE
ENDCHAR
STARTCHAR 01DB
ENCODING 475
SWIDTH 720 0
DWIDTH 24 0
BBX 18 35 3 0
BITMAP
0F0000
078000
038000
01C000
006000
000000
061C00
071C00
061C00
000000
000000
E001C0
E001C0
E001C0
E001C0
E001C0
E001C0
E001C0
E001C0
E001C0
E001C0
E001C0
E001C0
E001C0
E001C0
E001C0
E001C0
E001C0
E001C0
E001C0
7003C0
780780
3F1F00
1FFE00
07FC00
ENDCHAR
STARTCHAR 01DC
ENCODING 476
SWIDTH 600 0
DWIDTH 20 0
BBX 15 29 3 0
BITMAP
1C00
1E00
0F00
0300
0180
0000
1C70
1C70
1870
0000
0000
E00E
E00E
E00E
E00E
E00E
E00E
E00E
E00E
E00E
E00E
E00E
E00E
E01E
E01E
E03E
F87E
7FEE
3FCE
ENDCHAR
STARTCHAR 01DD
ENCODING 477
SWIDTH 540 0
DWIDTH 18 0
BBX 15 18 2 0
BITMAP
3FC0
FFF0
F1F8
803C
001C
001E
000E
000E
FFFE
FFFE
FFFE
E00E
E00E
E01C
703C
7878
3FF0
1FE0
ENDCHAR
STARTCHAR 01DE
ENCODING 478
SWIDTH 630 0
DWIDTH 21 0
BBX 21 34 0 0
BITMAP
03FF00
03FF00
03FF00
000000
000000
038E00
038E00
038E00
000000
000000
007000
007800
00F800
00F800
00DC00
01DC00
01CC00
038E00
038E00
038700
070700
070700
0E0380
0E0380
0FFFC0
1FFFC0
1FFFC0
1C00E0
3800E0
3800F0
700070
700070
700038
E00038
ENDCHAR
STARTCHAR 01DF
ENCODING 479
SWIDTH 540 0
DWIDTH 18 0
BBX 14 28 2 0
BITMAP
3FF0
3FF0
3FF0
0000
0000
1C70
1C70
1870
0000
0000
0FE0
3FF8
3C78
203C
001C
001C
001C
01FC
3FFC
7E1C
F01C
E01C
E01C
E01C
E03C
F0FC
7FCC
3F8C
ENDCHAR
STARTCHAR 01E0
ENCODING 480
SWIDTH 630 0
DWIDTH 21 0
BBX 21 33 0 0
BITMAP
03FF00
03FF00
000000
000000
007000
007000
007000
000000
000000
007000
007800
00F800
00F800
00DC00
01DC00
01CC00
038E00
038E00
038700
070700
070700
0E0380
0E0380
0FFFC0
1FFFC0
1FFFC0
1C00E0
3800E0
3800F0
700070
700070
700038
E00038
ENDCHAR
STARTCHAR 01E1
ENCODING 481
SWIDTH 540 0
DWIDTH 18 0
BBX 14 28 2 0
BITMAP
3FF0
3FF0
0000
0000
0300
0380
0380
0100
0000
0000
0FE0
3FF8
3C78
203C
001C
001C
001C
01FC
3FFC
7E1C
F01C
E01C
E01C
E01C
E03C
F0FC
7FCC
3F8C
ENDCHAR
STARTCHAR 01E2
ENCODING 482
SWIDTH 870 0
DWIDTH 29 0
BBX 27 29 0 0
BITMAP
001FF800
001FF800
001FF800
00000000
00000000
001FFFE0
001FFFE0
003FFFE0
0039C000
0071C000
0071C000
00E1C000
00E1C000
01C1C000
01C1C000
0381FFE0
0381FFE0
0781FFE0
0701C000
0FFFC000
0FFFC000
0FFFC000
1C01C000
1C01C000
3801C000
3801C000
7001FFE0
7001FFE0
E001FFE0
ENDCHAR
STARTCHAR 01E3
ENCODING 483
SWIDTH 840 0
DWIDTH 28 0
BBX 25 23 2 0
BITMAP
00FFC000
00FFC000
00FFC000
00000000
00000000
1FE1F800
7FF3FE00
787F8F00
003E0700
003C0780
001C0380
001C0380
03FFFF80
3FFFFF80
7E1FFF80
F01C0000
E01C0000
E03C0000
E03E0000
E07E0000
F0E78300
7FC7FF00
3F81FF00
ENDCHAR
STARTCHAR 01E4
ENCODING 484
SWIDTH 720 0
DWIDTH 24 0
BBX 22 24 2 0
BITMAP
00FF80
03FFE0
0FFFE0
1F0060
3C0000
380000
700000
700000
F00000
E00000
E00000
E00FF0
E00FF0
E00FF0
E00070
F00070
700FFC
700FFC
780FFC
3C0070
3E0070
1FC1F0
07FFF0
01FFC0
ENDCHAR
STARTCHAR 01E5
ENCODING 485
SWIDTH 600 0
DWIDTH 20 0
BBX 18 26 2 -8
BITMAP
0FC700
3FF700
3C7F00
701F00
F00F00
E00F00
E00700
E00700
E00700
E00700
E00700
E00700
F00F00
700F00
783F00
3FF700
1FE700
000700
000700
01FFC0
01FFC0
000E00
400E00
7E7C00
7FF800
1FE000
ENDCHAR
STARTCHAR 01E6
ENCODING 486
SWIDTH 720 0
DWIDTH 24 0
BBX 20 31 2 0
BITMAP
038380
01C700
00EE00
007C00
003800
000000
000000
00FF80
03FFE0
0FFFE0
1F0060
3C0000
380000
780000
700000
F00000
E00000
E00000
E00FF0
E00FF0
E00FF0
E00070
F00070
700070
700070
780070
3C0070
3E0070
1FC1F0
07FFF0
01FFE0
ENDCHAR
STARTCHAR 01E7
ENCODING 487
SWIDTH 600 0
DWIDTH 20 0
BBX 16 34 2 -8
BITMAP
301C
1C38
0E70
07E0
07C0
03C0
0000
0000
0FC7
1FF7
3E7F
781F
700F
E00F
E007
E007
E007
E007
E007
E007
E00F
F00F
700F
7C3F
3FF7
0FE7
0007
0007
000E
000E
401E
7EFC
7FF8
1FE0
ENDCHAR
STARTCHAR 01E8
ENCODING 488
SWIDTH 600 0
DWIDTH 20 0
BBX 17 31 3 0
BITMAP
1C1800
0E7000
07F000
03E000
01C000
000000
000000
E00780
E00700
E00E00
E01C00
E03800
E07000
E0F000
E1E000
E3C000
E78000
EF0000
EF8000
FF8000
FBC000
F1E000
E0E000
E07000
E07800
E03C00
E01C00
E01E00
E00F00
E00780
E00380
ENDCHAR
STARTCHAR 01E9
ENCODING 489
SWIDTH 510 0
DWIDTH 17 0
BBX 18 33 -1 0
BITMAP
C0E000
71C000
3B8000
3F0000
1E0000
000000
000000
000000
0E0000
0E0000
0E0000
0E0000
0E0000
0E0000
0E0000
0E03C0
0E0780
0E0F00
0E1E00
0E3C00
0E7800
0E7000
0EE000
0FE000
0FF000
0F7800
0E3C00
0E1C00
0E0E00
0E0F00
0E0780
0E0380
0E01C0
ENDCHAR
STARTCHAR 01EA
ENCODING 490
SWIDTH 780 0
DWIDTH 26 0
BBX 22 31 2 -7
BITMAP
01FE00
07FF80
1FFFE0
3E01E0
3C00F0
780078
700038
700038
F0003C
E0001C
E0001C
E0001C
E0001C
E0001C
E0001C
F0003C
700038
700038
780078
380070
3E00F0
1F87E0
0FFFC0
03FF00
003800
003000
006000
006000
006000
007C00
007C00
ENDCHAR
STARTCHAR 01EB
ENCODING 491
SWIDTH 600 0
DWIDTH 20 0
BBX 16 25 2 -7
BITMAP
0FF0
1FF8
3E7C
780E
700F
E007
E007
E007
E007
E007
E007
E007
E007
700F
700E
3C3C
1FFC
0FF0
00C0
0180
0300
0300
0300
03E0
03E0
ENDCHAR
STARTCHAR 01EC
ENCODING 492
SWIDTH 780 0
DWIDTH 26 0
BBX 22 36 2 -7
BITMAP
03FF00
03FF00
03FF00
000000
000000
01FE00
07FF80
1FFFE0
3E01E0
3C00F0
780078
700038
700038
F0003C
E0001C
E0001C
E0001C
E0001C
E0001C
E0001C
F0003C
700038
700038
780078
380070
3E00F0
1F87E0
0FFFC0
03FF00
001800
003000
007000
006000
006000
007C00
003C00
ENDCHAR
STARTCHAR 01ED
ENCODING 493
SWIDTH 600 0
DWIDTH 20 0
BBX 16 30 2 -7
BITMAP
1FF8
1FF8
1FF8
0000
0000
0FF0
1FF8
3E7C
780E
700F
E007
E007
E007
E007
E007
E007
E007
E007
700F
700E
3C3C
1FFC
0FF0
00C0
0180
0300
0300
0300
03E0
03E0
ENDCHAR
STARTCHAR 01EE
ENCODING 494
SWIDTH 570 0
DWIDTH 19 0
BBX 17 31 1 0
BITMAP
1C3800
0E7000
07E000
03E000
03C000
000000
000000
7FFF00
7FFF00
7FFF00
001E00
003C00
007800
00F000
01E000
038000
070000
0F8000
0FF800
0FFE00
001E00
000F00
000700
000780
000780
000780
000700
800F00
F03E00
FFFC00
7FF000
ENDCHAR
STARTCHAR 01EF
ENCODING 495
SWIDTH 480 0
DWIDTH 16 0
BBX 15 34 0 -8
BITMAP
3018
1C38
0E70
07E0
07C0
0380
0000
0000
7FFE
7FFE
7FFC
0038
0078
0070
00E0
01C0
0380
0700
0F00
0FF0
0FF8
003C
001E
000E
000E
0006
000E
000E
000E
001E
803C
FDF8
FFF0
3FC0
ENDCHAR
STARTCHAR 01F0
ENCODING 496
SWIDTH 240 0
DWIDTH 8 0
BBX 12 34 -2 -8
BITMAP
6030
70E0
39C0
1F80
0F80
0700
0000
0000
0700
0700
0700
0700
0700
0700
0700
0700
0700
0700
0700
0700
0700
0700
0700
0700
0700
0700
0700
0700
0700
0700
0F00
DE00
FE00
F800
ENDCHAR
STARTCHAR 01F1
ENCODING 497
SWIDTH 1290 0
DWIDTH 43 0
BBX 39 24 3 0
BITMAP
FFE001FFFC
FFFC01FFFC
FFFE01FFFC
E01F00003C
E007800038
E003C00070
E001C000F0
E001E000E0
E000E001C0
E000E003C0
E000E00380
E000E00700
E000E00F00
E000E00E00
E000E01C00
E000E03C00
E001E03800
E001C07000
E003C0F000
E00780E000
E00F01C000
FFFE03FFFE
FFFC03FFFE
FFE003FFFE
ENDCHAR
STARTCHAR 01F2
ENCODING 498
SWIDTH 1200 0
DWIDTH 40 0
BBX 36 24 3 0
BITMAP
FFE0000000
FFFC000000
FFFE000000
E01F000000
E007800000
E003C00000
E001C1FFE0
E001E1FFE0
E000E000E0
E000E001E0
E000E001C0
E000E00380
E000E00780
E000E00700
E000E00E00
E000E01C00
E001E01C00
E001C03800
E003C07000
E00780F000
E00F00E000
FFFE01C000
FFFC01FFF0
FFE001FFF0
ENDCHAR
STARTCHAR 01F3
ENCODING 499
SWIDTH 1080 0
DWIDTH 36 0
BBX 33 25 2 0
BITMAP
0007000000
0007000000
0007000000
0007000000
0007000000
0007000000
0007000000
0FC70FFF80
3FF70FFF80
3C7F000780
781F000700
F00F000E00
E00F001C00
E007003C00
E007003800
E007007000
E00700F000
E00700E000
E00701C000
E00F038000
F00F038000
701F070000
7C3F0E0000
3FF70FFF80
0FE70FFF80
ENDCHAR
STARTCHAR 01F4
ENCODING 500
SWIDTH 720 0
DWIDTH 24 0
BBX 20 31 2 0
BITMAP
000F00
000E00
001C00
003800
003000
000000
000000
00FF80
03FFE0
0FFFE0
1F0060
3C0000
380000
780000
700000
F00000
E00000
E00000
E00FF0
E00FF0
E00FF0
E00070
F00070
700070
700070
780070
3C0070
3E0070
1FC1F0
07FFF0
01FFE0
ENDCHAR
STARTCHAR 01F5
ENCODING 501
SWIDTH 600 0
DWIDTH 20 0
BBX 16 34 2 -8
BITMAP
0078
0070
00E0
01E0
01C0
0300
0000
0000
0FC7
1FF7
3E7F
781F
700F
E00F
E007
E007
E007
E007
E007
E007
E00F
F00F
700F
7C3F
3FF7
0FE7
0007
0007
000E
000E
401E
7EFC
7FF8
1FE0
ENDCHAR
STARTCHAR 01F6
ENCODING 502
SWIDTH 930 0
DWIDTH 31 0
BBX 25 24 3 0
BITMAP
E0070000
E0070000
E0070000
E0070000
E0070000
E0070000
E0070380
E0070380
E0070380
E0070380
FFFF0380
FFFF0380
FFFF0380
E0070380
E0070380
E0070380
E0070380
E0070380
E0070380
E0070380
E0078380
E003CF80
E003FF00
E000FE00
ENDCHAR
STARTCHAR 01F7
ENCODING 503
SWIDTH 660 0
DWIDTH 22 0
BBX 17 32 3 -8
BITMAP
E1F800
E7FE00
EFBF00
FC0700
F80780
F00380
F00380
E00380
E00380
E00380
E00380
E00380
E00700
E00700
E00F00
E00E00
E01C00
E03C00
E07800
E1F000
E7C000
FF8000
FE0000
F80000
E00000
E00000
E00000
E00000
E00000
E00000
E00000
E00000
ENDCHAR
STARTCHAR 01F8
ENCODING 504
SWIDTH 750 0
DWIDTH 25 0
BBX 19 31 3 0
BITMAP
038000
01C000
00E000
006000
003000
000000
000000
F000E0
F800E0
F800E0
FC00E0
FC00E0
EE00E0
EF00E0
E700E0
E380E0
E3C0E0
E1C0E0
E0E0E0
E0F0E0
E070E0
E078E0
E03CE0
E01CE0
E01EE0
E00EE0
E007E0
E007E0
E003E0
E001E0
E001E0
ENDCHAR
STARTCHAR 01F9
ENCODING 505
SWIDTH 600 0
DWIDTH 20 0
BBX 15 26 3 0
BITMAP
1C00
1E00
0F00
0700
0380
01C0
0000
0000
C7F0
CFF8
FE7C
F01E
F00E
E00E
E00E
E00E
E00E
E00E
E00E
E00E
E00E
E00E
E00E
E00E
E00E
E00E
ENDCHAR
STARTCHAR 01FA
ENCODING 506
SWIDTH 630 0
DWIDTH 21 0
BBX 21 32 0 0
BITMAP
000E00
001C00
003800
007000
000000
007000
00FC00
018C00
018C00
018C00
01DC00
00F800
00F800
00DC00
01DC00
01CC00
018E00
038E00
038700
070700
070300
0E0380
0E0380
0FFFC0
1FFFC0
1FFFE0
3800E0
3800E0
700070
700070
700038
E00038
ENDCHAR
STARTCHAR 01FB
ENCODING 507
SWIDTH 540 0
DWIDTH 18 0
BBX 14 32 2 0
BITMAP
00F8
01E0
03C0
0000
0000
07C0
0EE0
0C60
0C60
0C60
07C0
0380
0000
0000
0FE0
3FF8
3C78
203C
001C
001C
001C
01FC
3FFC
7E1C
F01C
E01C
E01C
E01C
E03C
F0FC
7FCC
3F8C
ENDCHAR
STARTCHAR 01FC
ENCODING 508
SWIDTH 870 0
DWIDTH 29 0
BBX 27 31 0 0
BITMAP
00007800
00007000
0000E000
0001C000
00018000
00000000
00000000
001FFFE0
001FFFE0
003FFFE0
0039C000
0071C000
0071C000
00E1C000
00E1C000
01C1C000
01C1C000
0381FFE0
0381FFE0
0781FFE0
0701C000
0FFFC000
0FFFC000
0FFFC000
1C01C000
1C01C000
3801C000
3801C000
7001FFE0
7001FFE0
E001FFE0
ENDCHAR
STARTCHAR 01FD
ENCODING 509
SWIDTH 840 0
DWIDTH 28 0
BBX 25 26 2 0
BITMAP
0003C000
00078000
00070000
000E0000
000C0000
00180000
00000000
00000000
1FE1F800
7FF3FE00
787F8F00
003E0700
003C0780
001C0380
001C0380
03FFFF80
3FFFFF80
7E1FFF80
F01C0000
E01C0000
E03C0000
E03E0000
E07E0000
F0E78300
7FC7FF00
3F81FF00
ENDCHAR
STARTCHAR 01FE
ENCODING 510
SWIDTH 780 0
DWIDTH 26 0
BBX 22 32 2 -1
BITMAP
000F00
001E00
001C00
003800
007000
000000
000020
01FE38
07FFF0
1FFFE0
3E01E0
3C01F0
7803F8
700738
700738
F00E3C
E01C1C
E01C1C
E0381C
E0701C
E0E01C
E0E01C
F1C03C
738038
738038
7F0078
3E0070
3E00F0
1F87E0
3FFFC0
73FF00
300000
ENDCHAR
STARTCHAR 01FF
ENCODING 511
SWIDTH 600 0
DWIDTH 20 0
BBX 16 27 2 -1
BITMAP
0078
0078
00F0
00E0
01C0
0380
0000
0000
0FF7
1FFE
3E3C
781E
703E
E077
E067
E0E7
E1C7
E387
E387
E707
EE07
7C0F
7C0E
3C3C
7FFC
7FF0
2000
ENDCHAR
STARTCHAR 0200
ENCODING 512
SWIDTH 630 0
DWIDTH 21 0
BBX 21 31 0 0
BITMAP
0E7800
0E3800
071C00
038C00
018600
000000
000000
007000
007800
00F800
00F800
00DC00
01DC00
01CC00
038E00
038E00
038700
070700
070700
0E0380
0E0380
0FFFC0
1FFFC0
1FFFC0
1C00E0
3800E0
3800F0
700070
700070
700038
E00038
ENDCHAR
STARTCHAR 0201
ENCODING 513
SWIDTH 540 0
DWIDTH 18 0
BBX 14 26 2 0
BITMAP
E380
F3C0
71C0
38E0
1860
0C30
0000
0000
0FE0
3FF8
3C78
203C
001C
001C
001C
01FC
3FFC
7E1C
F01C
E01C
E01C
E01C
E03C
F0FC
7FCC
3F8C
ENDCHAR
STARTCHAR 0202
ENCODING 514
SWIDTH 630 0
DWIDTH 21 0
BBX 21 31 0 0
BITMAP
006000
01FC00
03FE00
030700
060300
000000
000000
007000
007800
00F800
00F800
00DC00
01DC00
01CC00
038E00
038E00
038700
070700
070700
0E0380
0E0380
0FFFC0
1FFFC0
1FFFC0
1C00E0
3800E0
3800F0
700070
700070
700038
E00038
ENDCHAR
STARTCHAR 0203
ENCODING 515
SWIDTH 540 0
DWIDTH 18 0
BBX 14 25 2 0
BITMAP
0380
0FE0
1FF0
3830
3010
0000
0000
0FE0
3FF8
3C78
203C
001C
001C
001C
01FC
3FFC
7E1C
F01C
E01C
E01C
E01C
E03C
F0FC
7FCC
3F8C
ENDCHAR
STARTCHAR 0204
ENCODING 516
SWIDTH 540 0
DWIDTH 18 0
BBX 14 31 3 0
BITMAP
E380
71C0
38C0
1860
0C30
0000
0000
FFFC
FFFC
FFFC
E000
E000
E000
E000
E000
E000
E000
FFF8
FFF8
FFF8
E000
E000
E000
E000
E000
E000
E000
E000
FFFC
FFFC
FFFC
ENDCHAR
STARTCHAR 0205
ENCODING 517
SWIDTH 540 0
DWIDTH 18 0
BBX 15 26 2 0
BITMAP
E380
73C0
71C0
38E0
1C60
0C30
0000
0000
0FE0
1FF8
3C7C
701C
701E
E00E
E00E
FFFE
FFFE
FFFE
E000
E000
E000
7000
7800
3E0C
1FFC
0FFC
ENDCHAR
STARTCHAR 0206
ENCODING 518
SWIDTH 540 0
DWIDTH 18 0
BBX 14 31 3 0
BITMAP
0180
0FE0
1FF0
3030
3030
0000
0000
FFFC
FFFC
FFFC
E000
E000
E000
E000
E000
E000
E000
FFF8
FFF8
FFF8
E000
E000
E000
E000
E000
E000
E000
E000
FFFC
FFFC
FFFC
ENDCHAR
STARTCHAR 0207
ENCODING 519
SWIDTH 540 0
DWIDTH 18 0
BBX 15 25 2 0
BITMAP
0380
0FE0
1FF0
1830
3018
0000
0000
0FE0
1FF8
3C7C
701C
701E
E00E
E00E
FFFE
FFFE
FFFE
E000
E000
E000
7000
7800
3E0C
1FFC
0FFC
ENDCHAR
STARTCHAR 0208
ENCODING 520
SWIDTH 330 0
DWIDTH 11 0
BBX 11 31 -1 0
BITMAP
E780
E380
71C0
38E0
1860
0000
0000
3FE0
3FE0
0780
0700
0700
0700
0700
0700
0700
0700
0700
0700
0700
0700
0700
0700
0700
0700
0700
0700
0700
0700
3FE0
3FE0
ENDCHAR
STARTCHAR 0209
ENCODING 521
SWIDTH 240 0
DWIDTH 8 0
BBX 12 26 -3 0
BITMAP
E380
F380
71C0
38E0
1860
0C30
0000
0000
0380
0380
0380
0380
0380
0380
0380
0380
0380
0380
0380
0380
0380
0380
0380
0380
0380
0380
ENDCHAR
STARTCHAR 020A
ENCODING 522
SWIDTH 330 0
DWIDTH 11 0
BBX 11 31 0 0
BITMAP
0400
3F80
7FC0
6060
C060
0000
0000
7FC0
7FC0
0F00
0E00
0E00
0E00
0E00
0E00
0E00
0E00
0E00
0E00
0E00
0E00
0E00
0E00
0E00
0E00
0E00
0E00
0E00
0E00
7FC0
7FC0
ENDCHAR
STARTCHAR 020B
ENCODING 523
SWIDTH 240 0
DWIDTH 8 0
BBX 10 25 -1 0
BITMAP
0C00
3F80
7FC0
E0C0
C040
0000
0000
0E00
0E00
0E00
0E00
0E00
0E00
0E00
0E00
0E00
0E00
0E00
0E00
0E00
0E00
0E00
0E00
0E00
0E00
ENDCHAR
STARTCHAR 020C
ENCODING 524
SWIDTH 780 0
DWIDTH 26 0
BBX 22 31 2 0
BITMAP
0E3800
071C00
031C00
018E00
00C700
000000
000000
01FE00
07FF80
1FFFE0
3E01E0
3C00F0
780078
700038
700038
F0003C
E0001C
E0001C
E0001C
E0001C
E0001C
E0001C
F0003C
700038
700038
780078
380070
3E00F0
1F87E0
0FFFC0
03FF00
ENDCHAR
STARTCHAR 020D
ENCODING 525
SWIDTH 600 0
DWIDTH 20 0
BBX 16 26 2 0
BITMAP
73C0
71C0
38E0
1860
0C30
0618
0000
0000
0FF0
1FF8
3E7C
780E
700F
E007
E007
E007
E007
E007
E007
E007
E007
700F
700E
3C3C
1FFC
0FF0
ENDCHAR
STARTCHAR 020E
ENCODING 526
SWIDTH 780 0
DWIDTH 26 0
BBX 22 31 2 0
BITMAP
003000
00FE00
01FF00
030300
030300
000000
000000
01FE00
07FF80
1FFFE0
3E01E0
3C00F0
780078
700038
700038
F0003C
E0001C
E0001C
E0001C
E0001C
E0001C
E0001C
F0003C
700038
700038
780078
380070
3E00F0
1F87E0
0FFFC0
03FF00
ENDCHAR
STARTCHAR 020F
ENCODING 527
SWIDTH 600 0
DWIDTH 20 0
BBX 16 25 2 0
BITMAP
0180
0FF0
0FF8
1818
1818
0000
0000
0FF0
1FF8
3E7C
780E
700F
E007
E007
E007
E007
E007
E007
E007
E007
700F
700E
3C3C
1FFC
0FF0
ENDCHAR
STARTCHAR 0210
ENCODING 528
SWIDTH 600 0
DWIDTH 20 0
BBX 17 31 3 0
BITMAP
F38000
71C000
38E000
186000
0C3000
000000
000000
FFC000
FFF800
FFFC00
E03E00
E00E00
E00E00
E00E00
E00E00
E00E00
E00E00
E01E00
E0FC00
FFF000
FFE000
E0E000
E07000
E07800
E03800
E01C00
E01C00
E00E00
E00F00
E00700
E00780
ENDCHAR
STARTCHAR 0211
ENCODING 529
SWIDTH 390 0
DWIDTH 13 0
BBX 12 26 1 0
BITMAP
E780
E380
71C0
31C0
18E0
0C70
0000
0000
30F0
33F0
37F0
3E00
3C00
3800
3800
3800
3800
3800
3800
3800
3800
3800
3800
3800
3800
3800
ENDCHAR
STARTCHAR 0212
ENCODING 530
SWIDTH 600 0
DWIDTH 20 0
BBX 17 31 3 0
BITMAP
010000
0FE000
1FF000
383000
301000
000000
000000
FFC000
FFF800
FFFC00
E03E00
E00E00
E00E00
E00E00
E00E00
E00E00
E00E00
E01E00
E0FC00
FFF000
FFE000
E0E000
E07000
E07800
E03800
E01C00
E01C00
E00E00
E00F00
E00700
E00780
ENDCHAR
STARTCHAR 0213
ENCODING 531
SWIDTH 390 0
DWIDTH 13 0
BBX 10 25 3 0
BITMAP
0C00
7F80
7FC0
C0C0
C0C0
0000
0000
C3C0
CFC0
DFC0
F800
F000
E000
E000
E000
E000
E000
E000
E000
E000
E000
E000
E000
E000
E000
ENDCHAR
STARTCHAR 0214
ENCODING 532
SWIDTH 720 0
DWIDTH 24 0
BBX 18 31 3 0
BITMAP
38E000
1C7000
0E3000
061800
030C00
000000
000000
E001C0
E001C0
E001C0
E001C0
E001C0
E001C0
E001C0
E001C0
E001C0
E001C0
E001C0
E001C0
E001C0
E001C0
E001C0
E001C0
E001C0
E001C0
E001C0
7003C0
780780
3F1F00
1FFE00
07FC00
ENDCHAR
STARTCHAR 0215
ENCODING 533
SWIDTH 600 0
DWIDTH 20 0
BBX 15 26 3 0
BITMAP
E380
F380
71C0
38E0
1860
0C30
0000
0000
E00E
E00E
E00E
E00E
E00E
E00E
E00E
E00E
E00E
E00E
E00E
E00E
E01E
E01E
E03E
F87E
7FEE
3FCE
ENDCHAR
STARTCHAR 0216
ENCODING 534
SWIDTH 720 0
DWIDTH 24 0
BBX 18 31 3 0
BITMAP
006000
03F800
07FC00
0C0C00
0C0400
000000
000000
E001C0
E001C0
E001C0
E001C0
E001C0
E001C0
E001C0
E001C0
E001C0
E001C0
E001C0
E001C0
E001C0
E001C0
E001C0
E001C0
E001C0
E001C0
E001C0
7003C0
780780
3F1F00
1FFE00
07FC00
ENDCHAR
STARTCHAR 0217
ENCODING 535
SWIDTH 600 0
DWIDTH 20 0
BBX 15 25 3 0
BITMAP
0300
0FE0
1FF0
3830
3010
0000
0000
E00E
E00E
E00E
E00E
E00E
E00E
E00E
E00E
E00E
E00E
E00E
E00E
E01E
E01E
E03E
F87E
7FEE
3FCE
ENDCHAR
STARTCHAR 0218
ENCODING 536
SWIDTH 540 0
DWIDTH 18 0
BBX 15 31 2 -7
BITMAP
0FF0
3FFC
7FFC
F000
E000
E000
E000
E000
F000
7800
3F00
1FC0
07F0
01F8
003C
001C
001E
000E
000E
001C
001C
F078
FFF8
FFE0
0000
0000
0380
0300
0700
0600
0600
ENDCHAR
STARTCHAR 0219
ENCODING 537
SWIDTH 450 0
DWIDTH 15 0
BBX 12 25 2 -7
BITMAP
1FE0
7FF0
F0E0
E000
E000
E000
F000
7C00
3F80
0FE0
01F0
0070
0070
0030
0070
C0F0
FFE0
FFC0
0000
0000
0700
0700
0600
0E00
0C00
ENDCHAR
STARTCHAR 021A
ENCODING 538
SWIDTH 540 0
DWIDTH 18 0
BBX 18 31 0 -7
BITMAP
FFFFC0
FFFFC0
FFFFC0
00E000
00E000
00E000
00E000
00E000
00E000
00E000
00E000
00E000
00E000
00E000
00E000
00E000
00E000
00E000
00E000
00E000
00E000
00E000
00E000
00E000
000000
000000
00E000
00E000
00E000
00C000
018000
ENDCHAR
STARTCHAR 021B
ENCODING 539
SWIDTH 360 0
DWIDTH 12 0
BBX 10 29 1 -7
BITMAP
1800
1800
3800
3800
7FC0
FFC0
3800
3800
3800
3800
3800
3800
3800
3800
3800
3800
3800
3800
3800
3C00
1FC0
0FC0
0000
0000
0700
0700
0600
0600
0C00
ENDCHAR
STARTCHAR 021C
ENCODING 540
SWIDTH 570 0
DWIDTH 19 0
BBX 16 30 1 -6
BITMAP
0FF0
3FFC
FC3E
600E
000F
0007
0007
000F
000E
001E
00FC
07F0
0FFC
0E1E
000E
0007
0007
0007
0007
0007
0007
000F
001E
003C
00FC
03F0
1FE0
FF00
FC00
C000
ENDCHAR
STARTCHAR 021D
ENCODING 541
SWIDTH 480 0
DWIDTH 16 0
BBX 14 26 1 -8
BITMAP
3FC0
7FF0
7078
4038
0038
0038
0038
0038
00F0
03E0
1FE0
1FF0
0838
003C
001C
001C
001C
001C
0038
0078
00F0
03E0
1FC0
FF00
FC00
C000
ENDCHAR
STARTCHAR 021E
ENCODING 542
SWIDTH 720 0
DWIDTH 24 0
BBX 18 31 3 0
BITMAP
0E0E00
073C00
03F800
01F000
00E000
000000
000000
E001C0
E001C0
E001C0
E001C0
E001C0
E001C0
E001C0
E001C0
E001C0
E001C0
FFFFC0
FFFFC0
FFFFC0
E001C0
E001C0
E001C0
E001C0
E001C0
E001C0
E001C0
E001C0
E001C0
E001C0
E001C0
ENDCHAR
STARTCHAR 021F
ENCODING 543
SWIDTH 600 0
DWIDTH 20 0
BBX 19 33 -1 0
BITMAP
C0E000
71C000
3B8000
3F0000
1E0000
000000
000000
000000
0E0000
0E0000
0E0000
0E0000
0E0000
0E0000
0E0000
0E7F00
0EFF80
0FE7C0
0F01C0
0F00E0
0E00E0
0E00E0
0E00E0
0E00E0
0E00E0
0E00E0
0E00E0
0E00E0
0E00E0
0E00E0
0E00E0
0E00E0
0E00E0
ENDCHAR
STARTCHAR 0220
ENCODING 544
SWIDTH 720 0
DWIDTH 24 0
BBX 19 32 3 -8
BITMAP
E1FC00
E7FF00
EFBF80
FC03C0
F801C0
F001C0
F001E0
E000E0
E000E0
E000E0
E000E0
E000E0
E000E0
E000E0
E000E0
E000E0
E000E0
E000E0
E000E0
E000E0
E000E0
E000E0
E000E0
E000E0
0000E0
0000E0
0000E0
0000E0
0000E0
0000E0
0000E0
0000E0
ENDCHAR
STARTCHAR 0221
ENCODING 545
SWIDTH 840 0
DWIDTH 28 0
BBX 26 28 2 -4
BITMAP
00070000
00070000
00070000
00070000
00070000
00070000
00070000
0FC70000
3FF70000
3C7F0000
781F0000
F00F0000
E00F0000
E0070000
E0070000
E0070000
E0070000
E0070F00
E0073FC0
E00F7FC0
F00FF1C0
701FE1C0
7C3BC7C0
3FF1FF80
0FE1FE00
00038000
00038000
00038000
ENDCHAR
STARTCHAR 0222
ENCODING 546
SWIDTH 660 0
DWIDTH 22 0
BBX 18 24 2 0
BITMAP
700380
700380
700380
700380
700380
780380
380780
3C0F00
1FFE00
07FC00
1FFE00
3C0F80
700380
F001C0
E001C0
E001C0
E001C0
E001C0
E001C0
7003C0
780380
3E1F80
1FFF00
07FC00
ENDCHAR
STARTCHAR 0223
ENCODING 547
SWIDTH 570 0
DWIDTH 19 0
BBX 16 25 2 0
BITMAP
700E
700E
700E
700E
700E
700E
700E
781E
3C3C
1FF8
1FF8
3C7C
700E
E00F
E007
E007
E007
E007
E007
E007
E00F
700E
7C3E
3FFC
0FF0
ENDCHAR
STARTCHAR 0224
ENCODING 548
SWIDTH 570 0
DWIDTH 19 0
BBX 17 31 1 -7
BITMAP
7FFF00
7FFF00
7FFF00
000F00
000E00
001C00
003C00
003800
007000
00F000
00E000
01C000
03C000
038000
070000
0F0000
0E0000
1C0000
3C0000
380000
700000
FFFF80
FFFF80
FFFF80
000380
000380
000380
000380
001F00
001F00
000800
ENDCHAR
STARTCHAR 0225
ENCODING 549
SWIDTH 450 0
DWIDTH 15 0
BBX 13 25 1 -7
BITMAP
7FF8
7FF8
0038
0070
00F0
00E0
01C0
0380
0380
0700
0E00
1E00
1C00
3800
7800
7000
FFF8
FFF8
0018
0018
0018
0038
01F8
01F0
0060
ENDCHAR
STARTCHAR 0226
ENCODING 550
SWIDTH 630 0
DWIDTH 21 0
BBX 21 30 0 1
BITMAP
007000
007000
007000
000000
000000
000000
007000
007800
00F800
00F800
00DC00
01DC00
01CC00
038E00
038E00
038700
070700
070700
0E0380
0E0380
0FFFC0
1FFFC0
1FFFC0
1C00E0
3800E0
3800F0
700070
700070
700038
E00038
ENDCHAR
STARTCHAR 0227
ENCODING 551
SWIDTH 540 0
DWIDTH 18 0
BBX 14 25 2 0
BITMAP
0100
0380
0380
0380
0000
0000
0000
0FE0
3FF8
3C78
203C
001C
001C
001C
01FC
3FFC
7E1C
F01C
E01C
E01C
E01C
E03C
F0FC
7FCC
3F8C
ENDCHAR
STARTCHAR 0228
ENCODING 552
SWIDTH 540 0
DWIDTH 18 0
BBX 14 32 3 -8
BITMAP
FFFC
FFFC
FFFC
E000
E000
E000
E000
E000
E000
E000
FFF8
FFF8
FFF8
E000
E000
E000
E000
E000
E000
E000
E000
FFFC
FFFC
FFFC
0300
0300
0780
01C0
00C0
00C0
0FC0
0F00
ENDCHAR
STARTCHAR 0229
ENCODING 553
SWIDTH 540 0
DWIDTH 18 0
BBX 15 26 2 -8
BITMAP
0FE0
1FF8
3C7C
701C
701E
E00E
E00E
FFFE
FFFE
FFFE
E000
E000
E000
7000
7800
3E0C
1FFC
0FFC
0180
0180
03C0
00E0
0060
0060
07E0
07C0
ENDCHAR
STARTCHAR 022A
ENCODING 554
SWIDTH 780 0
DWIDTH 26 0
BBX 22 34 2 0
BITMAP
03FF00
03FF00
03FF00
000000
000000
018700
038700
018600
000000
000000
01FE00
07FF80
1FFFE0
3E01E0
3C00F0
780078
700038
700038
F0003C
E0001C
E0001C
E0001C
E0001C
E0001C
E0001C
F0003C
700038
700038
780078
380070
3E00F0
1F87E0
0FFFC0
03FF00
ENDCHAR
STARTCHAR 022B
ENCODING 555
SWIDTH 600 0
DWIDTH 20 0
BBX 16 28 2 0
BITMAP
1FF8
1FF8
1FF8
0000
0000
0C38
1E38
0C30
0000
0000
0FF0
1FF8
3E7C
780E
700F
E007
E007
E007
E007
E007
E007
E007
E007
700F
700E
3C3C
1FFC
0FF0
ENDCHAR
STARTCHAR 022C
ENCODING 556
SWIDTH 780 0
DWIDTH 26 0
BBX 22 34 2 0
BITMAP
03FF00
03FF00
03FF00
000000
01C180
03FB00
033F00
060E00
000000
000000
01FE00
07FF80
1FFFE0
3E01E0
3C00F0
780078
700038
700038
F0003C
E0001C
E0001C
E0001C
E0001C
E0001C
E0001C
F0003C
700038
700038
780078
380070
3E00F0
1F87E0
0FFFC0
03FF00
ENDCHAR
STARTCHAR 022D
ENCODING 557
SWIDTH 600 0
DWIDTH 20 0
BBX 16 28 2 0
BITMAP
1FF8
1FF8
1FF8
0000
0F0C
1FD8
19F8
1070
0000
0000
0FF0
1FF8
3E7C
780E
700F
E007
E007
E007
E007
E007
E007
E007
E007
700F
700E
3C3C
1FFC
0FF0
ENDCHAR
STARTCHAR 022E
ENCODING 558
SWIDTH 780 0
DWIDTH 26 0
BBX 22 30 2 1
BITMAP
007800
007800
003000
000000
000000
000000
01FE00
07FF80
1FFFE0
3E01E0
3C00F0
780078
700038
700038
F0003C
E0001C
E0001C
E0001C
E0001C
E0001C
E0001C
F0003C
700038
700038
780078
380070
3E00F0
1F87E0
0FFFC0
03FF00
ENDCHAR
STARTCHAR 022F
ENCODING 559
SWIDTH 600 0
DWIDTH 20 0
BBX 16 24 2 1
BITMAP
03C0
03C0
0180
0000
0000
0000
0FF0
1FF8
3E7C
780E
700F
E007
E007
E007
E007
E007
E007
E007
E007
700F
700E
3C3C
1FFC
0FF0
ENDCHAR
STARTCHAR 0230
ENCODING 560
SWIDTH 780 0
DWIDTH 26 0
BBX 22 33 2 0
BITMAP
03FF00
03FF00
000000
000000
003800
007800
003800
000000
000000
01FE00
07FF80
1FFFE0
3E01E0
3C00F0
780078
700038
700038
F0003C
E0001C
E0001C
E0001C
E0001C
E0001C
E0001C
F0003C
700038
700038
780078
380070
3E00F0
1F87E0
0FFFC0
03FF00
ENDCHAR
STARTCHAR 0231
ENCODING 561
SWIDTH 600 0
DWIDTH 20 0
BBX 16 28 2 0
BITMAP
1FF8
1FF8
0000
0000
0180
03C0
03C0
0180
0000
0000
0FF0
1FF8
3E7C
780E
700F
E007
E007
E007
E007
E007
E007
E007
E007
700F
700E
3C3C
1FFC
0FF0
ENDCHAR
STARTCHAR 0232
ENCODING 562
SWIDTH 540 0
DWIDTH 18 0
BBX 19 29 0 0
BITMAP
0FFC00
0FFC00
0FFC00
000000
000000
E001E0
7001C0
7003C0
380380
3C0780
1C0700
1E0E00
0E0E00
0F1C00
071C00
03B800
03B800
01F000
01F000
00E000
00E000
00E000
00E000
00E000
00E000
00E000
00E000
00E000
00E000
ENDCHAR
STARTCHAR 0233
ENCODING 563
SWIDTH 510 0
DWIDTH 17 0
BBX 17 31 0 -8
BITMAP
0FF800
0FF800
0FF800
000000
000000
E00380
700700
700700
700700
380E00
380E00
1C0E00
1C1C00
1C1C00
0E3800
0E3800
063800
077000
077000
037000
03E000
01E000
01C000
01C000
01C000
038000
038000
070000
9F0000
FE0000
F80000
ENDCHAR
STARTCHAR 0234
ENCODING 564
SWIDTH 360 0
DWIDTH 12 0
BBX 12 26 0 -1
BITMAP
1C00
1C00
1C00
1C00
1C00
1C00
1C00
1C00
1C00
1C00
1C00
1C00
1C00
1C00
1C00
1C00
1C00
1DC0
1FE0
1FF0
3C30
3C30
7C70
6FF0
E7E0
6000
ENDCHAR
STARTCHAR 0235
ENCODING 565
SWIDTH 720 0
DWIDTH 24 0
BBX 22 19 3 -1
BITMAP
C7F000
CFF800
FE7C00
F01E00
F00E00
E00E00
E00E00
E00E00
E00E00
E00E00
E00EC0
E00FF0
E00FF8
E00E18
E01E1C
E03F38
E03FF8
E033F0
003000
ENDCHAR
STARTCHAR 0236
ENCODING 566
SWIDTH 360 0
DWIDTH 12 0
BBX 12 23 1 -1
BITMAP
1800
1800
3800
3800
7FC0
FFC0
3800
3800
3800
3800
3800
3800
3800
3800
3B00
3FE0
3FE0
3870
7870
7C60
FFE0
CFC0
4000
ENDCHAR
STARTCHAR 0237
ENCODING 567
SWIDTH 240 0
DWIDTH 8 0
BBX 8 26 -2 -8
BITMAP
07
07
07
07
07
07
07
07
07
07
07
07
07
07
07
07
07
07
07
07
07
07
0F
DE
FE
F8
ENDCHAR
STARTCHAR 0238
ENCODING 568
SWIDTH 960 0
DWIDTH 32 0
BBX 29 25 2 0
BITMAP
00070000
00070000
00070000
00070000
00070000
00070000
00070000
0FC73F00
3FF77FC0
3C7FE3E0
781F80E0
F00F0070
E00F0070
E0070070
E0070070
E0070038
E0070078
E0070070
E0070070
E00F0070
F00F8070
701F80E0
7C39E1E0
3FF8FFC0
0FE07F80
ENDCHAR
STARTCHAR 0239
ENCODING 569
SWIDTH 960 0
DWIDTH 32 0
BBX 29 26 2 -8
BITMAP
0FE07F00
1FF8FFC0
3C79E3E0
701F80E0
700F8070
E00F0070
E00F0070
E0070070
E0070038
E0070078
E0070070
E0070070
E00F0070
F00F0070
701F80F0
7C3FC1E0
3FF7FFC0
0FE73F80
00070000
00070000
00070000
00070000
00070000
00070000
00070000
00070000
ENDCHAR
STARTCHAR 023A
ENCODING 570
SWIDTH 630 0
DWIDTH 21 0
BBX 21 28 0 -3
BITMAP
000300
007300
007F00
00FE00
00FE00
00DE00
01DC00
01CC00
039E00
039E00
039F00
073F00
073700
0E3380
0E7380
0FFFC0
1FFFC0
1FFFC0
1CC0E0
38C0E0
3980F0
718070
738070
730038
E30038
070000
060000
060000
ENDCHAR
STARTCHAR 023B
ENCODING 571
SWIDTH 630 0
DWIDTH 21 0
BBX 18 28 2 -3
BITMAP
000300
01FF00
07FFC0
0FFF80
1E0680
3C0E00
780C00
700C00
701C00
F01800
E01800
E03800
E03000
E03000
E07000
E06000
F06000
70C000
70C000
79C000
3D8000
3F8000
1FC380
0FFF80
03FF80
070000
060000
060000
ENDCHAR
STARTCHAR 023C
ENCODING 572
SWIDTH 480 0
DWIDTH 16 0
BBX 14 32 2 -7
BITMAP
001C
0018
0018
0038
0030
0030
0070
0FF0
1FF8
3EF0
78C0
71C0
E180
E180
E380
E300
E300
E700
E600
E600
FE00
7C00
3C18
3FF8
1FF0
3800
3000
3000
7000
6000
6000
E000
ENDCHAR
STARTCHAR 023D
ENCODING 573
SWIDTH 510 0
DWIDTH 17 0
BBX 17 24 0 0
BITMAP
1C0000
1C0000
1C0000
1C0000
1C0000
1C0000
1C0000
1C0000
1C0000
1C0000
1C0000
FFF000
FFF000
1C0000
1C0000
1C0000
1C0000
1C0000
1C0000
1C0000
1C0000
1FFF80
1FFF80
1FFF80
ENDCHAR
STARTCHAR 023E
ENCODING 574
SWIDTH 540 0
DWIDTH 18 0
BBX 18 28 0 -3
BITMAP
000180
FFFFC0
FFFFC0
FFFFC0
00E600
00EE00
00EC00
00FC00
00F800
00F800
00F000
00F000
00E000
00E000
00E000
00E000
01E000
01E000
03E000
03E000
07E000
06E000
0EE000
0CE000
1CE000
180000
180000
300000
ENDCHAR
STARTCHAR 023F
ENCODING 575
SWIDTH 450 0
DWIDTH 15 0
BBX 13 26 2 -8
BITMAP
1FE0
7FF0
F0E0
E000
E000
E000
F000
7C00
3F80
0FE0
01F0
0070
0070
0030
0070
C0F0
FFE0
FFC0
1C00
1C00
0E00
0E00
0F00
07D8
03F8
01F8
ENDCHAR
STARTCHAR 0240
ENCODING 576
SWIDTH 450 0
DWIDTH 15 0
BBX 14 26 1 -8
BITMAP
7FF8
7FF8
0038
0070
00F0
00E0
01C0
0380
0380
0700
0E00
1E00
1C00
3800
7800
7000
FC00
FE00
0E00
0700
0700
0300
0380
03F4
01FC
007C
ENDCHAR
STARTCHAR 0241
ENCODING 577
SWIDTH 420 0
DWIDTH 14 0
BBX 14 24 0 0
BITMAP
1FC0
FFF0
FFF8
4078
003C
003C
001C
003C
0038
0038
0070
00F0
03E0
0FC0
0F00
0E00
0E00
0E00
0E00
0E00
0E00
0E00
0E00
0E00
ENDCHAR
STARTCHAR 0242
ENCODING 578
SWIDTH 420 0
DWIDTH 14 0
BBX 12 18 1 0
BITMAP
3F80
FFE0
F1E0
80F0
0070
0070
0070
0070
0070
00F0
00E0
01C0
0780
1F00
1E00
1C00
1C00
1C00
ENDCHAR
STARTCHAR 0243
ENCODING 579
SWIDTH 630 0
DWIDTH 21 0
BBX 20 24 0 0
BITMAP
1FFC00
1FFF80
1FFFC0
1C03E0
1C01E0
1C00E0
1C00E0
1C00E0
1C01E0
1C01C0
1FFF80
1FFE00
1FFF80
1C01E0
1C00E0
1C00F0
FFE070
FFE070
1C00F0
1C00F0
1C01E0
1FFFC0
1FFF80
1FFE00
ENDCHAR
STARTCHAR 0244
ENCODING 580
SWIDTH 720 0
DWIDTH 24 0
BBX 24 24 0 0
BITMAP
1C0038
1C0038
1C0038
1C0038
1C0038
1C0038
1C0038
1C0038
1C0038
1C0038
FFFFFF
FFFFFF
1C0038
1C0038
1C0038
1C0038
1C0038
1C0038
1C0038
0E0078
0F00F0
07E3E0
03FFC0
00FF80
ENDCHAR
STARTCHAR 0245
ENCODING 581
SWIDTH 600 0
DWIDTH 20 0
BBX 20 24 0 0
BITMAP
007000
00F000
00F000
00F800
01F800
019800
039C00
039C00
030E00
070E00
070600
060700
0E0700
0E0300
1C0380
1C0380
1C01C0
3801C0
3801C0
3800E0
7000E0
7000E0
700070
E00070
ENDCHAR
STARTCHAR 0246
ENCODING 582
SWIDTH 540 0
DWIDTH 18 0
BBX 14 28 3 -3
BITMAP
0030
FFFC
FFFC
FFFC
E060
E060
E0E0
E0C0
E0C0
E0C0
E1C0
FFF8
FFF8
FFF8
E380
E300
E300
E300
E700
E600
E600
E600
FFFC
FFFC
FFFC
0C00
1800
1800
ENDCHAR
STARTCHAR 0247
ENCODING 583
SWIDTH 540 0
DWIDTH 18 0
BBX 15 32 2 -7
BITMAP
001C
0018
0018
0038
0030
0030
0070
0FE0
1FF8
3CFC
70DC
70DE
E1CE
E18E
FFFE
FFFE
FFFE
E300
E600
E600
7600
7C00
3E0C
1FFC
1FFC
1800
3800
3000
3000
7000
6000
6000
ENDCHAR
STARTCHAR 0248
ENCODING 584
SWIDTH 270 0
DWIDTH 9 0
BBX 12 30 -3 -6
BITMAP
0380
0380
0380
0380
0380
0380
0380
0380
0380
0380
0380
1FF0
1FF0
1FF0
0380
0380
0380
0380
0380
0380
0380
0380
0380
0380
0380
0380
0780
8F00
FF00
FC00
ENDCHAR
STARTCHAR 0249
ENCODING 585
SWIDTH 240 0
DWIDTH 8 0
BBX 10 32 -2 -7
BITMAP
0700
0700
0700
0000
0000
0000
0700
0700
0700
0700
0700
0700
0700
3FC0
3FC0
3FC0
0700
0700
0700
0700
0700
0700
0700
0700
0700
0700
0700
0700
0F00
DE00
FE00
F800
ENDCHAR
STARTCHAR 024A
ENCODING 586
SWIDTH 750 0
DWIDTH 25 0
BBX 24 32 2 -8
BITMAP
03FC30
0FFF30
1FFFB0
3C01F0
3800F0
780070
700070
700070
F00070
E00070
E00070
E00070
E00070
E00070
E00070
E00070
700070
700070
780070
3800F0
3C01F0
1F07F0
0FFF70
03FC70
000070
000070
000070
000070
000078
00003F
00003F
00000F
ENDCHAR
STARTCHAR 024B
ENCODING 587
SWIDTH 600 0
DWIDTH 20 0
BBX 19 26 2 -8
BITMAP
0FC700
1FF700
3C7F00
781F00
F00F00
E00F00
E00700
E00700
E00700
E00700
E00700
E00700
E00F00
F00F00
701F00
7C3F00
3FF700
0FE700
000700
000700
000700
000700
000700
0007A0
0003E0
0001E0
ENDCHAR
STARTCHAR 024C
ENCODING 588
SWIDTH 600 0
DWIDTH 20 0
BBX 20 24 0 0
BITMAP
1FF800
1FFF00
1FFF80
1C07C0
1C01C0
1C01C0
1C01C0
1C01C0
1C01C0
1C01C0
1C03C0
1C1F80
FFFE00
FFFC00
1C1C00
1C0E00
1C0F00
1C0700
1C0380
1C0380
1C01C0
1C01E0
1C00E0
1C00F0
ENDCHAR
STARTCHAR 024D
ENCODING 589
SWIDTH 390 0
DWIDTH 13 0
BBX 13 18 0 0
BITMAP
1878
19F8
1BF8
1F00
1E00
1C00
1C00
FFC0
FFC0
FFC0
1C00
1C00
1C00
1C00
1C00
1C00
1C00
1C00
ENDCHAR
STARTCHAR 024E
ENCODING 590
SWIDTH 540 0
DWIDTH 18 0
BBX 19 24 0 0
BITMAP
E001E0
7001C0
7003C0
380380
FFFFE0
FFFFE0
FFFFE0
0E0E00
0F1C00
071C00
03B800
03B800
01F000
01F000
00E000
00E000
00E000
00E000
00E000
00E000
00E000
00E000
00E000
00E000
ENDCHAR
STARTCHAR 024F
ENCODING 591
SWIDTH 510 0
DWIDTH 17 0
BBX 17 26 0 -8
BITMAP
E00380
700700
700700
700700
380E00
380E00
FFFF80
FFFF80
1C1C00
0E3800
0E3800
063800
077000
077000
037000
03E000
01E000
01C000
01C000
01C000
038000
038000
070000
9F0000
FE0000
F80000
ENDCHAR
STARTCHAR 0250
ENCODING 592
SWIDTH 540 0
DWIDTH 18 0
BBX 14 18 3 0
BITMAP
C7F0
CFF8
DC3C
F01C
E01C
E01C
E01C
E03C
E0F8
FFF0
FF00
E000
E000
E000
E000
F070
7FF0
3FE0
ENDCHAR
STARTCHAR 0251
ENCODING 593
SWIDTH 600 0
DWIDTH 20 0
BBX 18 18 2 0
BITMAP
0FC700
3FF700
3C7F00
781F00
F00F00
E00F00
E00700
E00700
E00700
E00700
E00700
E00700
E00F00
F00F00
701F00
7C3F00
3FF7C0
0FE3C0
ENDCHAR
STARTCHAR 0252
ENCODING 594
SWIDTH 600 0
DWIDTH 20 0
BBX 19 18 0 0
BITMAP
F8FE00
F9FF00
3F8F80
1E03C0
1C01C0
1C01C0
1C01C0
1C00E0
1C00E0
1C00E0
1C00E0
1C01C0
1C01C0
1C01C0
1E03C0
1F8780
1BFF00
18FE00
ENDCHAR
STARTCHAR 0253
ENCODING 595
SWIDTH 600 0
DWIDTH 20 0
BBX 16 25 3 1
BITMAP
7C00
FC00
E000
E000
E000
E000
E000
E7E0
EFF8
FC7C
F01E
F00E
E00E
E00E
E007
E007
E007
E007
E00E
E00E
F00E
F01E
FC3C
DFF8
C7F0
ENDCHAR
STARTCHAR 0254
ENCODING 596
SWIDTH 480 0
DWIDTH 16 0
BBX 13 18 1 0
BITMAP
7F80
FFE0
63E0
00F0
0078
0038
0038
0038
0038
0038
0038
0038
0038
0070
00F0
C3E0
FFC0
7F80
ENDCHAR
STARTCHAR 0255
ENCODING 597
SWIDTH 510 0
DWIDTH 17 0
BBX 14 19 2 -2
BITMAP
07F0
1FF8
3F78
7800
7000
F000
E000
E000
E000
E000
E3F8
EFFC
FE1C
780C
781C
7C3C
FFF8
EFF0
C000
ENDCHAR
STARTCHAR 0256
ENCODING 598
SWIDTH 600 0
DWIDTH 20 0
BBX 19 33 2 -8
BITMAP
000700
000700
000700
000700
000700
000700
000700
0FC700
3FF700
3C7F00
781F00
F00F00
E00F00
E00700
E00700
E00700
E00700
E00700
E00700
E00F00
F00F00
701F00
7C3F00
3FF700
0FE700
000700
000700
000700
000700
000700
000780
0003E0
0001E0
ENDCHAR
STARTCHAR 0257
ENCODING 599
SWIDTH 600 0
DWIDTH 20 0
BBX 19 25 2 1
BITMAP
0003E0
0007E0
000700
000700
000700
000700
000700
0FC700
3FF700
3C7F00
781F00
F00F00
E00F00
E00700
E00700
E00700
E00700
E00700
E00700
E00F00
F00F00
701F00
7C3F00
3FF700
0FE700
ENDCHAR
STARTCHAR 0258
ENCODING 600
SWIDTH 540 0
DWIDTH 18 0
BBX 15 18 2 0
BITMAP
0FC0
3FF0
7878
703C
E01C
E01C
E00E
FFFE
FFFE
FFFE
000E
000E
001E
001C
003C
E0F8
FFF0
7FC0
ENDCHAR
STARTCHAR 0259
ENCODING 601
SWIDTH 540 0
DWIDTH 18 0
BBX 15 18 2 0
BITMAP
3FC0
FFF0
F1F8
803C
001C
001E
000E
000E
FFFE
FFFE
FFFE
E00E
E00E
E01C
703C
7878
3FF0
1FE0
ENDCHAR
STARTCHAR 025A
ENCODING 602
SWIDTH 780 0
DWIDTH 26 0
BBX 24 18 2 0
BITMAP
3FC000
FFF000
F0F800
803C00
001C00
001CC0
000FE0
007FE0
07FEE0
3FCE77
FE0E7F
E00E3E
E00C00
E01C00
701C00
787800
3FF000
1FE000
ENDCHAR
STARTCHAR 025B
ENCODING 603
SWIDTH 480 0
DWIDTH 16 0
BBX 14 18 1 0
BITMAP
0FF8
3FFC
3C38
7000
7000
7000
7800
3FE0
0FE0
1FE0
7800
7000
E000
E000
7000
781C
3FFC
1FF8
ENDCHAR
STARTCHAR 025C
ENCODING 604
SWIDTH 480 0
DWIDTH 16 0
BBX 14 18 1 0
BITMAP
3FC0
FFF0
70F8
0038
0038
0038
0038
1FF0
1FC0
1FF0
0078
001C
001C
001C
003C
E078
FFF0
7FE0
ENDCHAR
STARTCHAR 025D
ENCODING 605
SWIDTH 690 0
DWIDTH 23 0
BBX 22 18 1 0
BITMAP
3FC000
FFF000
70F980
003F80
003F80
003BC0
0039C4
1FF1FC
1FC0FC
1FF000
007800
001C00
001C00
001C00
003C00
E07800
FFF000
7FE000
ENDCHAR
STARTCHAR 025E
ENCODING 606
SWIDTH 600 0
DWIDTH 20 0
BBX 16 18 2 0
BITMAP
07F8
1FFE
3F1E
7807
7007
E007
E007
E03E
E1F8
E1FE
E00F
E007
E003
7007
7807
3C0F
1FFE
0FF8
ENDCHAR
STARTCHAR 025F
ENCODING 607
SWIDTH 240 0
DWIDTH 8 0
BBX 10 26 -2 -8
BITMAP
0700
0700
0700
0700
0700
0700
0700
3FC0
3FC0
3FC0
0700
0700
0700
0700
0700
0700
0700
0700
0700
0700
0700
0700
0F00
DE00
FE00
F800
ENDCHAR
STARTCHAR 0260
ENCODING 608
SWIDTH 600 0
DWIDTH 20 0
BBX 19 33 2 -7
BITMAP
0003E0
0007E0
000700
000700
000700
000700
000700
0FC700
3FF700
3C7F00
781F00
700F00
E00F00
E00700
E00700
E00700
E00700
E00700
E00700
E00F00
F00F00
700F00
7C3F00
3FF700
0FE700
000700
000700
000E00
000E00
401E00
7EFC00
7FF800
1FE000
ENDCHAR
STARTCHAR 0261
ENCODING 609
SWIDTH 600 0
DWIDTH 20 0
BBX 16 26 2 -8
BITMAP
0FC7
1FF7
3E7F
781F
700F
E00F
E007
E007
E007
E007
E007
E007
E00F
F00F
700F
7C3F
3FF7
0FE7
0007
0007
000E
000E
401E
7EFC
7FF8
1FE0
ENDCHAR
STARTCHAR 0262
ENCODING 610
SWIDTH 570 0
DWIDTH 19 0
BBX 15 18 2 0
BITMAP
07F8
1FFC
3F3C
7800
7000
E000
E000
E000
E0FE
E0FE
E00E
E00E
E00E
F00E
700E
3C1E
3FFE
0FFC
ENDCHAR
STARTCHAR 0263
ENCODING 611
SWIDTH 480 0
DWIDTH 16 0
BBX 17 26 0 -8
BITMAP
E00380
700700
700700
380E00
380E00
380E00
1C1C00
1C1C00
0E3800
0E3800
077000
077000
036000
03E000
03E000
01C000
03E000
03E000
077000
077000
067000
063000
063000
07F000
07E000
01C000
ENDCHAR
STARTCHAR 0264
ENCODING 612
SWIDTH 480 0
DWIDTH 16 0
BBX 17 18 0 0
BITMAP
E00380
F00780
380E00
1C1C00
1C3C00
0E3800
077000
03E000
03E000
01C000
03E000
076000
077000
063000
063000
077000
07F000
03E000
ENDCHAR
STARTCHAR 0265
ENCODING 613
SWIDTH 600 0
DWIDTH 20 0
BBX 15 25 3 -7
BITMAP
E00E
E00E
E00E
E00E
E00E
E00E
E00E
E00E
E00E
E00E
E00E
E00E
E01E
E01E
E03E
F87E
7FEE
3FCE
000E
000E
000E
000E
000E
000E
000E
ENDCHAR
STARTCHAR 0266
ENCODING 614
SWIDTH 600 0
DWIDTH 20 0
BBX 15 25 3 1
BITMAP
7C00
FC00
E000
E000
E000
E000
E000
E7F0
EFF8
FE7C
F01C
F00E
E00E
E00E
E00E
E00E
E00E
E00E
E00E
E00E
E00E
E00E
E00E
E00E
E00E
ENDCHAR
STARTCHAR 0267
ENCODING 615
SWIDTH 600 0
DWIDTH 20 0
BBX 15 33 3 -7
BITMAP
7C00
FC00
E000
E000
E000
E000
E000
E7F0
EFF8
FE7C
F01C
F00E
E00E
E00E
E00E
E00E
E00E
E00E
E00E
E00E
E00E
E00E
E00E
E00E
E00E
000E
000E
000E
000E
000E
007E
007C
0078
ENDCHAR
STARTCHAR 0268
ENCODING 616
SWIDTH 240 0
DWIDTH 8 0
BBX 8 24 0 1
BITMAP
1C
1C
1C
00
00
00
1C
1C
1C
1C
1C
1C
1C
FF
FF
FF
1C
1C
1C
1C
1C
1C
1C
1C
ENDCHAR
STARTCHAR 0269
ENCODING 617
SWIDTH 330 0
DWIDTH 11 0
BBX 7 18 3 0
BITMAP
E0
E0
E0
E0
E0
E0
E0
E0
E0
E0
E0
E0
E0
E0
E0
F0
7E
3E
ENDCHAR
STARTCHAR 026A
ENCODING 618
SWIDTH 300 0
DWIDTH 10 0
BBX 8 18 1 0
BITMAP
FF
FF
1C
1C
1C
1C
1C
1C
1C
1C
1C
1C
1C
1C
1C
1C
FF
FF
ENDCHAR
STARTCHAR 026B
ENCODING 619
SWIDTH 360 0
DWIDTH 12 0
BBX 12 25 0 0
BITMAP
0700
0700
0700
0700
0700
0700
0700
0700
0700
0700
3F10
7F30
6FF0
C7E0
0700
0700
0700
0700
0700
0700
0700
0700
0700
0700
0700
ENDCHAR
STARTCHAR 026C
ENCODING 620
SWIDTH 330 0
DWIDTH 11 0
BBX 11 25 0 0
BITMAP
0700
0700
0700
0700
0700
0700
0700
0700
7F00
FF00
FF00
C700
E700
FFE0
7FE0
0700
0700
0700
0700
0700
0700
0700
0700
0700
0700
ENDCHAR
STARTCHAR 026D
ENCODING 621
SWIDTH 240 0
DWIDTH 8 0
BBX 8 33 3 -8
BITMAP
E0
E0
E0
E0
E0
E0
E0
E0
E0
E0
E0
E0
E0
E0
E0
E0
E0
E0
E0
E0
E0
E0
E0
E0
E0
E0
E0
E0
E0
E0
FB
7F
3F
ENDCHAR
STARTCHAR 026E
ENCODING 622
SWIDTH 630 0
DWIDTH 21 0
BBX 18 33 3 -8
BITMAP
E00000
E00000
E00000
E00000
E00000
E00000
E00000
FFFF80
FFFF80
FFFF80
E00700
E00E00
E01C00
E03800
E07000
E0E000
E1C000
E3E000
E3FC00
E3FF00
E00F80
E00380
E00380
E001C0
E001C0
0001C0
0001C0
000380
000380
100700
1FFF00
1FFC00
07F000
ENDCHAR
STARTCHAR 026F
ENCODING 623
SWIDTH 930 0
DWIDTH 31 0
BBX 25 18 3 0
BITMAP
E01C0380
E01C0380
E01C0380
E01C0380
E01C0380
E01C0380
E01C0380
E01C0380
E01C0380
E01C0380
E01C0380
E01C0380
E01C0380
E03C0380
E03E0780
F0EF0F80
7FEFFD80
3F83F180
ENDCHAR
STARTCHAR 0270
ENCODING 624
SWIDTH 930 0
DWIDTH 31 0
BBX 25 26 3 -8
BITMAP
E01C0380
E01C0380
E01C0380
E01C0380
E01C0380
E01C0380
E01C0380
E01C0380
E01C0380
E01C0380
E01C0380
E01C0380
E01C0380
E03C0380
E03E0780
F0EF0F80
7FEFFF80
3F83F380
00000380
00000380
00000380
00000380
00000380
00000380
00000380
00000380
ENDCHAR
STARTCHAR 0271
ENCODING 625
SWIDTH 930 0
DWIDTH 31 0
BBX 25 26 3 -8
BITMAP
C7E0FE00
CFF9FF00
FC7BCF80
F03E0380
E01E0380
E01C0380
E01C0180
E01C0180
E01C0180
E01C0180
E01C0180
E01C0180
E01C0180
E01C0180
E01C0180
E01C0180
E01C0180
E01C0180
00000180
00000180
00000180
00000180
00000380
00001F80
00001F80
00001F00
ENDCHAR
STARTCHAR 0272
ENCODING 626
SWIDTH 600 0
DWIDTH 20 0
BBX 19 26 -1 -8
BITMAP
0C7F00
0CFF80
0FE7C0
0F01E0
0F00E0
0E00E0
0E00E0
0E00E0
0E00E0
0E00E0
0E00E0
0E00E0
0E00E0
0E00E0
0E00E0
0E00E0
0E00E0
0E00E0
0E0000
0E0000
0E0000
0E0000
0E0000
BC0000
FC0000
F80000
ENDCHAR
STARTCHAR 0273
ENCODING 627
SWIDTH 600 0
DWIDTH 20 0
BBX 19 26 3 -8
BITMAP
C7F000
CFF800
FE7C00
F01E00
F00E00
E00E00
E00E00
E00E00
E00E00
E00E00
E00E00
E00E00
E00E00
E00E00
E00E00
E00E00
E00E00
E00E00
000E00
000E00
000E00
000E00
000E00
000F20
0007E0
0003E0
ENDCHAR
STARTCHAR 0274
ENCODING 628
SWIDTH 630 0
DWIDTH 21 0
BBX 15 18 3 0
BITMAP
F00E
F00E
F80E
FC0E
FC0E
EE0E
EF0E
E70E
E38E
E38E
E1CE
E1EE
E0E6
E076
E07E
E03E
E01E
E01E
ENDCHAR
STARTCHAR 0275
ENCODING 629
SWIDTH 600 0
DWIDTH 20 0
BBX 16 18 2 0
BITMAP
0FF0
1FF8
3E3C
780E
700F
E007
E007
E007
FFFF
FFFF
E007
E007
E007
700F
700E
3C3C
1FFC
0FF0
ENDCHAR
STARTCHAR 0276
ENCODING 630
SWIDTH 840 0
DWIDTH 28 0
BBX 25 18 2 0
BITMAP
0FE7FF80
1FFFFF80
3E7FFF80
780F0000
700F0000
E0070000
E0070000
E007FF80
E007FF80
E007FF80
E0070000
E0070000
E0070000
700F0000
700F0000
3C3F0000
1FFFFF80
0FF7FF80
ENDCHAR
STARTCHAR 0277
ENCODING 631
SWIDTH 780 0
DWIDTH 26 0
BBX 22 18 2 0
BITMAP
03FF00
0FFFC0
1F87E0
3C00F0
780078
700038
F0001C
E0301C
E0301C
E0301C
E0301C
E0301C
E0301C
E0781C
707838
78FC78
3FCFF0
1F87E0
ENDCHAR
STARTCHAR 0278
ENCODING 632
SWIDTH 720 0
DWIDTH 24 0
BBX 20 33 2 -8
BITMAP
007000
007000
007000
007000
007000
007000
007000
03FC00
1FFF00
3F7FC0
7871E0
7070E0
F07070
E07070
E07070
E07070
E07070
E07070
E07070
E07070
7070E0
7871E0
3E77C0
1FFF80
07FE00
007000
007000
007000
007000
007000
007000
007000
007000
ENDCHAR
STARTCHAR 0279
ENCODING 633
SWIDTH 390 0
DWIDTH 13 0
BBX 10 18 1 0
BITMAP
01C0
01C0
01C0
01C0
01C0
01C0
01C0
01C0
01C0
01C0
01C0
01C0
03C0
03C0
07C0
1FC0
FDC0
F1C0
ENDCHAR
STARTCHAR 027A
ENCODING 634
SWIDTH 390 0
DWIDTH 13 0
BBX 10 25 1 0
BITMAP
01C0
01C0
01C0
01C0
01C0
01C0
01C0
01C0
01C0
01C0
01C0
01C0
01C0
01C0
01C0
01C0
01C0
01C0
01C0
03C0
03C0
07C0
1FC0
FDC0
F1C0
ENDCHAR
STARTCHAR 027B
ENCODING 635
SWIDTH 390 0
DWIDTH 13 0
BBX 14 26 1 -8
BITMAP
01C0
01C0
01C0
01C0
01C0
01C0
01C0
01C0
01C0
01C0
01C0
01C0
03C0
03C0
07C0
1FC0
FDC0
F1C0
01C0
01C0
01C0
01C0
01C0
01E4
00FC
007C
ENDCHAR
STARTCHAR 027C
ENCODING 636
SWIDTH 390 0
DWIDTH 13 0
BBX 10 26 3 -8
BITMAP
C3C0
CFC0
DFC0
F800
F000
E000
E000
E000
E000
E000
E000
E000
E000
E000
E000
E000
E000
E000
E000
E000
E000
E000
E000
E000
E000
E000
ENDCHAR
STARTCHAR 027D
ENCODING 637
SWIDTH 390 0
DWIDTH 13 0
BBX 10 26 3 -8
BITMAP
C3C0
CFC0
DFC0
F800
F000
E000
E000
E000
E000
E000
E000
E000
E000
E000
E000
E000
E000
E000
E000
E000
E000
E000
E000
FA00
7E00
3E00
ENDCHAR
STARTCHAR 027E
ENCODING 638
SWIDTH 330 0
DWIDTH 11 0
BBX 8 18 3 0
BITMAP
3F
7F
F3
E0
E0
E0
E0
E0
E0
E0
E0
E0
E0
E0
E0
E0
E0
E0
ENDCHAR
STARTCHAR 027F
ENCODING 639
SWIDTH 330 0
DWIDTH 11 0
BBX 8 26 1 -8
BITMAP
FC
FE
9E
07
07
07
07
07
07
07
07
07
07
07
07
07
07
07
07
07
07
07
07
07
07
07
ENDCHAR
STARTCHAR 0280
ENCODING 640
SWIDTH 540 0
DWIDTH 18 0
BBX 15 18 3 0
BITMAP
FFC0
FFF0
FFF8
E01C
E01C
E01C
E01C
E03C
FFF8
FFF0
FFC0
E1E0
E0E0
E070
E078
E038
E01C
E01E
ENDCHAR
STARTCHAR 0281
ENCODING 641
SWIDTH 540 0
DWIDTH 18 0
BBX 15 18 3 0
BITMAP
E01E
E01C
E03C
E038
E070
E0E0
E0E0
FFC0
FFF0
FFF8
E03C
E01C
E01C
E01C
E01C
E0F8
FFF8
FFE0
ENDCHAR
STARTCHAR 0282
ENCODING 642
SWIDTH 450 0
DWIDTH 15 0
BBX 12 25 2 -7
BITMAP
1FE0
7FF0
F0E0
E000
E000
E000
F000
7C00
3F80
0FE0
01F0
0070
0070
0030
0070
C0F0
FFE0
FFC0
E000
E000
E000
E000
FE00
7E00
0C00
ENDCHAR
STARTCHAR 0283
ENCODING 643
SWIDTH 240 0
DWIDTH 8 0
BBX 11 34 -1 -8
BITMAP
0080
07E0
0FE0
0E00
0E00
0E00
0E00
0E00
0E00
0E00
0E00
0E00
0E00
0E00
0E00
0E00
0E00
0E00
0E00
0E00
0E00
0E00
0E00
0E00
0E00
0E00
0E00
0E00
0E00
0E00
0E00
BC00
FC00
F800
ENDCHAR
STARTCHAR 0284
ENCODING 644
SWIDTH 240 0
DWIDTH 8 0
BBX 11 34 -1 -8
BITMAP
0080
07E0
0FE0
0E00
0E00
0E00
0E00
0E00
0E00
0E00
0E00
0E00
0E00
0E00
0E00
7F80
7F80
7F80
0E00
0E00
0E00
0E00
0E00
0E00
0E00
0E00
0E00
0E00
0E00
0E00
0E00
BC00
FC00
F800
ENDCHAR
STARTCHAR 0285
ENCODING 645
SWIDTH 240 0
DWIDTH 8 0
BBX 10 26 0 -8
BITMAP
F000
F800
3800
1C00
1C00
1C00
1C00
1C00
1C00
1C00
1C00
1C00
1C00
1C00
1C00
1C00
1C00
1C00
1C00
1C00
1C00
1C00
1C00
1E40
0FC0
07C0
ENDCHAR
STARTCHAR 0286
ENCODING 646
SWIDTH 240 0
DWIDTH 8 0
BBX 14 34 -4 -8
BITMAP
0010
00FC
01FC
01C0
01C0
01C0
01C0
01C0
01C0
01C0
01C0
01C0
01C0
01C0
01C0
01C0
01C0
01C0
01C0
01C0
01C0
01C0
01C0
01C0
01C0
01C0
3FF0
7FF0
79C0
E1C0
E1C0
7F80
7F80
1E00
ENDCHAR
STARTCHAR 0287
ENCODING 647
SWIDTH 360 0
DWIDTH 12 0
BBX 11 22 1 -4
BITMAP
FC00
FE00
0F00
0700
0700
0700
0700
0700
0700
0700
0700
0700
0700
0700
0700
0700
FFE0
FFC0
0700
0700
0600
0600
ENDCHAR
STARTCHAR 0288
ENCODING 648
SWIDTH 360 0
DWIDTH 12 0
BBX 10 30 1 -8
BITMAP
1800
1800
3800
3800
7FC0
FFC0
3800
3800
3800
3800
3800
3800
3800
3800
3800
3800
3800
3800
3800
3800
3800
3800
3800
3800
3800
3800
3C00
1E40
1FC0
07C0
ENDCHAR
STARTCHAR 0289
ENCODING 649
SWIDTH 600 0
DWIDTH 20 0
BBX 20 18 0 0
BITMAP
1C01C0
1C01C0
1C01C0
1C01C0
1C01C0
1C01C0
1C01C0
FFFFF0
FFFFF0
FFFFF0
1C01C0
1C01C0
1C03C0
1C03C0
1C07C0
1F0FC0
0FFDC0
07F9C0
ENDCHAR
STARTCHAR 028A
ENCODING 650
SWIDTH 600 0
DWIDTH 20 0
BBX 18 18 1 0
BITMAP
FF3FC0
FF3FC0
FF3FC0
1C0E00
380700
380700
700380
700380
700380
700380
700380
700380
700380
780380
380700
1E1F00
0FFE00
07F800
ENDCHAR
STARTCHAR 028B
ENCODING 651
SWIDTH 600 0
DWIDTH 20 0
BBX 15 18 3 0
BITMAP
E0F8
E0FC
E09C
E00E
E00E
E00E
E00E
E00E
E00E
E00E
E00E
E00E
E00E
E01C
F01C
783C
3FF8
1FE0
ENDCHAR
STARTCHAR 028C
ENCODING 652
SWIDTH 480 0
DWIDTH 16 0
BBX 17 18 0 0
BITMAP
01C000
03E000
03E000
076000
077000
077000
0E3800
0E3800
0E3800
1C1C00
1C1C00
381C00
380E00
380E00
700700
700700
700700
E00380
ENDCHAR
STARTCHAR 028D
ENCODING 653
SWIDTH 780 0
DWIDTH 26 0
BBX 26 18 0 0
BITMAP
07807800
07807800
07807C00
0FC07C00
0FC0FC00
0EC0EC00
0CE0CE00
1CE1CE00
1C61CE00
1C718600
38738700
38738700
38330700
383F0380
703F0380
701E0380
701E0380
F01E01C0
ENDCHAR
STARTCHAR 028E
ENCODING 654
SWIDTH 510 0
DWIDTH 17 0
BBX 17 26 0 0
BITMAP
000F80
003F80
007F80
007000
00E000
00E000
01C000
01C000
01C000
03C000
03E000
076000
077000
077000
0E7000
0E3800
0E3800
1C1C00
1C1C00
3C1C00
380E00
380E00
700700
700700
700700
E00380
ENDCHAR
STARTCHAR 028F
ENCODING 655
SWIDTH 450 0
DWIDTH 15 0
BBX 16 18 0 0
BITMAP
F00F
700E
781C
381C
1C38
1C78
0E70
07E0
07E0
03C0
03C0
0380
0380
0380
0380
0380
0380
0380
ENDCHAR
STARTCHAR 0290
ENCODING 656
SWIDTH 450 0
DWIDTH 15 0
BBX 17 26 1 -8
BITMAP
7FF800
7FF800
003800
007000
00F000
00E000
01C000
038000
038000
070000
0E0000
1E0000
1C0000
380000
780000
700000
FFF800
FFF800
001800
001800
001800
001800
001C00
001E80
000F80
000780
ENDCHAR
STARTCHAR 0291
ENCODING 657
SWIDTH 540 0
DWIDTH 18 0
BBX 17 21 1 -3
BITMAP
7FF800
7FF800
003800
007000
00F000
00E000
01C000
038000
038000
070000
0E0C00
1E3F00
1C7F00
38E380
79C380
718700
FFFF00
FFFC00
070000
060000
020000
ENDCHAR
STARTCHAR 0292
ENCODING 658
SWIDTH 480 0
DWIDTH 16 0
BBX 15 26 0 -8
BITMAP
7FFE
7FFE
7FFC
0038
0078
0070
00E0
01C0
0380
0700
0F00
0FF0
0FF8
003C
001E
000E
000E
0006
000E
000E
000E
001E
803C
FDF8
FFF0
3FC0
ENDCHAR
STARTCHAR 0293
ENCODING 659
SWIDTH 480 0
DWIDTH 16 0
BBX 18 26 -1 -8
BITMAP
3FFF00
3FFF00
3FFE00
001C00
003C00
003800
007000
00E000
01C000
038000
078000
07F800
07FC00
001E00
000F00
000700
000700
0F8300
3FE700
7FFF00
E03F00
E01F00
F01F80
7DFFC0
3FF9C0
0FC080
ENDCHAR
STARTCHAR 0294
ENCODING 660
SWIDTH 420 0
DWIDTH 14 0
BBX 13 26 0 0
BITMAP
0200
3FE0
FFF0
6078
4038
0038
0038
0038
0038
0038
0070
00F0
01E0
07C0
0F80
0E00
0E00
0E00
0E00
0E00
0E00
0E00
0E00
0E00
0E00
0E00
ENDCHAR
STARTCHAR 0295
ENCODING 661
SWIDTH 420 0
DWIDTH 14 0
BBX 13 25 1 1
BITMAP
1FE0
7FF8
7830
E000
E000
E000
E000
E000
E000
7000
7800
3C00
1F00
0F80
0380
0380
0380
0380
0380
0380
0380
0380
0380
0380
0380
ENDCHAR
STARTCHAR 0296
ENCODING 662
SWIDTH 420 0
DWIDTH 14 0
BBX 13 25 0 0
BITMAP
0E00
0E00
0E00
0E00
0E00
0E00
0E00
0E00
0E00
0E00
0E00
0F80
03C0
01E0
0070
0078
0038
0038
0038
0038
0038
4038
70F0
FFF0
3FC0
ENDCHAR
STARTCHAR 0297
ENCODING 663
SWIDTH 450 0
DWIDTH 15 0
BBX 13 26 2 -8
BITMAP
07F0
1FF8
3E70
3800
7000
7000
7000
E000
E000
E000
E000
E000
E000
E000
E000
E000
E000
E000
E000
F000
7000
7000
3808
3FF8
1FF8
07E0
ENDCHAR
STARTCHAR 0298
ENCODING 664
SWIDTH 780 0
DWIDTH 26 0
BBX 22 24 2 0
BITMAP
01FE00
07FF80
1FFFE0
3E01E0
3C00F0
780078
700038
700038
F0003C
E0001C
E0301C
E0781C
E0781C
E0781C
E0001C
F0003C
700038
700038
780078
380070
3E00F0
1F87E0
0FFFC0
03FF00
ENDCHAR
STARTCHAR 0299
ENCODING 665
SWIDTH 570 0
DWIDTH 19 0
BBX 15 18 3 0
BITMAP
FFC0
FFF8
FFFC
E01C
E01C
E01C
E01C
FFF8
FFE0
FFF8
E03C
E01E
E00E
E00E
E01C
E07C
FFF8
FFE0
ENDCHAR
STARTCHAR 029A
ENCODING 666
SWIDTH 600 0
DWIDTH 20 0
BBX 16 18 2 0
BITMAP
1FE0
7FF8
787C
E01E
E00E
E007
7007
7F87
1F87
7F87
F007
E007
C007
C00E
E01E
F03C
7FF8
3FF0
ENDCHAR
STARTCHAR 029B
ENCODING 667
SWIDTH 570 0
DWIDTH 19 0
BBX 18 25 2 1
BITMAP
0007C0
000FC0
000E00
000C00
000C00
000C00
000C00
07FC00
1FFC00
3F3C00
780000
700000
E00000
E00000
E00000
E0FE00
E0FE00
E00E00
E00E00
E00E00
F00E00
700E00
3C1E00
3FFE00
0FFC00
ENDCHAR
STARTCHAR 029C
ENCODING 668
SWIDTH 630 0
DWIDTH 21 0
BBX 15 18 3 0
BITMAP
E00E
E00E
E00E
E00E
E00E
E00E
E00E
E00E
FFFE
FFFE
E00E
E00E
E00E
E00E
E00E
E00E
E00E
E00E
ENDCHAR
STARTCHAR 029D
ENCODING 669
SWIDTH 240 0
DWIDTH 8 0
BBX 11 32 -3 -7
BITMAP
0380
0380
0380
0000
0000
0000
0380
0380
0380
0380
0380
0380
0380
0380
0380
0380
0380
0380
0380
0380
0380
0380
0380
0380
3FE0
7FE0
F380
E380
E380
F700
7F00
3E00
ENDCHAR
STARTCHAR 029E
ENCODING 670
SWIDTH 510 0
DWIDTH 17 0
BBX 14 25 1 -7
BITMAP
E01C
F01C
781C
381C
1C1C
1E1C
0F1C
073C
03FC
03FC
01DC
039C
071C
0F1C
1E1C
3C1C
781C
F01C
001C
001C
001C
001C
001C
001C
001C
ENDCHAR
STARTCHAR 029F
ENCODING 671
SWIDTH 420 0
DWIDTH 14 0
BBX 11 18 3 0
BITMAP
E000
E000
E000
E000
E000
E000
E000
E000
E000
E000
E000
E000
E000
E000
E000
E000
FFE0
FFE0
ENDCHAR
STARTCHAR 02A0
ENCODING 672
SWIDTH 600 0
DWIDTH 20 0
BBX 19 33 2 -7
BITMAP
0003E0
0007E0
000700
000700
000700
000700
000700
0FC700
3FF700
3C7F00
781F00
F00F00
E00F00
E00700
E00700
E00700
E00700
E00700
E00700
E00F00
F00F00
701F00
7C3F00
3FF700
0FE700
000700
000700
000700
000700
000700
000700
000700
000700
ENDCHAR
STARTCHAR 02A1
ENCODING 673
SWIDTH 420 0
DWIDTH 14 0
BBX 13 26 0 0
BITMAP
0200
3FE0
FFF0
6078
4038
0038
0038
0038
0038
0038
0078
00F0
01E0
07C0
0F80
0E00
0E00
0E00
7FE0
7FE0
7FE0
0E00
0E00
0E00
0E00
0E00
ENDCHAR
STARTCHAR 02A2
ENCODING 674
SWIDTH 420 0
DWIDTH 14 0
BBX 13 25 1 1
BITMAP
1FE0
7FF8
7830
E000
E000
E000
E000
E000
E000
7000
7800
3C00
1F00
0F80
0380
0380
0380
3FF0
3FF0
3FF0
0380
0380
0380
0380
0380
ENDCHAR
STARTCHAR 02A3
ENCODING 675
SWIDTH 960 0
DWIDTH 32 0
BBX 29 25 2 0
BITMAP
00070000
00070000
00070000
00070000
00070000
00070000
00070000
0FC7FFF0
3FF7FFF0
3C7F0070
781F00F0
F00F00E0
E00F01C0
E00703C0
E0070380
E0070700
E0070E00
E0070E00
E0071C00
E00F3800
F00F7800
701F7000
7C3FE000
3FF7FFF8
0FE7FFF8
ENDCHAR
STARTCHAR 02A4
ENCODING 676
SWIDTH 960 0
DWIDTH 32 0
BBX 30 33 2 -8
BITMAP
00070000
00070000
00070000
00070000
00070000
00070000
00070000
0FC7FFF8
3FF7FFF8
3C7FFFF0
781F00F0
F00F00E0
E00F01C0
E0070380
E0070700
E0070E00
E0071C00
E0073C00
E0073FC0
E00F3FE0
F00F00F0
701F0078
7C3F0038
3FF70038
0FE7001C
0000001C
00000038
00000038
00000038
000000F0
0001F7E0
0001FFC0
0000FF00
ENDCHAR
STARTCHAR 02A5
ENCODING 677
SWIDTH 1020 0
DWIDTH 34 0
BBX 32 28 2 -3
BITMAP
00070000
00070000
00070000
00070000
00070000
00070000
00070000
0FC7FFF0
3FF7FFF0
3C7F0070
781F00F0
F00F00E0
E00F01C0
E00703C0
E0070380
E0070700
E0070E00
E0070E08
E0071C7E
E00F38FF
F00F79C7
701F7387
7C3FE38F
3FF7FFFE
0FE7FFFC
00000E00
00000E00
00000400
ENDCHAR
STARTCHAR 02A6
ENCODING 678
SWIDTH 750 0
DWIDTH 25 0
BBX 23 22 1 0
BITMAP
180000
180000
380000
380000
7FFFF8
FFFFFC
381E1C
383800
383800
383800
383C00
381F80
380FE0
3801F8
38007C
38001E
38000E
38000E
3C000E
1E007C
1FFFF8
07FFE0
ENDCHAR
STARTCHAR 02A7
ENCODING 679
SWIDTH 480 0
DWIDTH 16 0
BBX 17 33 1 -7
BITMAP
000F80
001F80
003C00
183800
183800
383800
383800
7FF800
FFF800
383800
383800
383800
383800
383800
383800
383800
383800
383800
383800
383800
383800
383800
3C3800
1FF800
0FF800
003800
003800
003800
003800
003800
027800
03F000
03E000
ENDCHAR
STARTCHAR 02A8
ENCODING 680
SWIDTH 840 0
DWIDTH 28 0
BBX 26 22 1 0
BITMAP
18000000
18000000
38000000
38000000
7FC07F80
FFC1FF80
3803F780
38078000
38070000
38070000
380E0000
380E0000
380E0000
380E0000
380E7F80
380EFFC0
380FE1C0
380780C0
380F81C0
3C3FC3C0
1FF9FF80
0FE0FF00
ENDCHAR
STARTCHAR 02A9
ENCODING 681
SWIDTH 840 0
DWIDTH 28 0
BBX 26 34 0 -8
BITMAP
00400000
03F80000
07F00000
0F000000
0E000000
0E000000
0E000000
0E000000
3FF8FE00
FFFDFF80
0E1FC780
0E1E03C0
0E1E01C0
0E1C01C0
0E1C01C0
0E1C01C0
0E1C01C0
0E1C01C0
0E1C01C0
0E1C01C0
0E1C01C0
0E1C01C0
0E1C01C0
0E1C01C0
0E1C01C0
0E1C01C0
000001C0
000001C0
000001C0
000001C0
000001C0
000017C0
00001F80
00001F00
ENDCHAR
STARTCHAR 02AA
ENCODING 682
SWIDTH 660 0
DWIDTH 22 0
BBX 18 25 3 0
BITMAP
E00000
E00000
E00000
E00000
E00000
E00000
E00000
E0FF00
E3FF80
E78780
E70000
E70000
E70000
E78000
E3F000
E1FC00
E07F00
E00F80
E00380
E001C0
E001C0
E00380
FC0780
FFFF00
EFFC00
ENDCHAR
STARTCHAR 02AB
ENCODING 683
SWIDTH 600 0
DWIDTH 20 0
BBX 16 25 3 0
BITMAP
E000
E000
E000
E000
E000
E000
E000
FFFF
FFFF
E00E
E00E
E01C
E038
E078
E070
E0E0
E1E0
E1C0
E380
E700
E700
EE00
FC00
FFFF
FFFF
ENDCHAR
STARTCHAR 02AC
ENCODING 684
SWIDTH 480 0
DWIDTH 16 0
BBX 17 24 0 0
BITMAP
C1C180
E1C380
61C300
636300
636700
336600
363600
363600
363E00
1C1C00
1C1C00
000000
000000
E1C380
61C300
63E300
636300
736700
376600
363600
363600
1E3C00
1C1C00
1C1C00
ENDCHAR
STARTCHAR 02AD
ENCODING 685
SWIDTH 570 0
DWIDTH 19 0
BBX 14 24 3 0
BITMAP
FFFC
FFFC
FFFC
E01C
E01C
E01C
E01C
E01C
0000
0000
0000
0000
0000
0000
0000
0000
FFFC
FFFC
FFFC
E01C
E01C
E01C
E01C
E01C
ENDCHAR
STARTCHAR 02AE
ENCODING 686
SWIDTH 600 0
DWIDTH 20 0
BBX 19 26 -1 -8
BITMAP
F800E0
FC00E0
1E00E0
0E00E0
0E00E0
0E00E0
0E00E0
0E00E0
0E00E0
0E00E0
0E00E0
0E00E0
0E00E0
0E01E0
0F01E0
0787E0
07FEE0
01FCE0
0000E0
0000E0
0000E0
0000E0
0000E0
0000E0
0000E0
0000E0
ENDCHAR
STARTCHAR 02AF
ENCODING 687
SWIDTH 600 0
DWIDTH 20 0
BBX 22 26 -1 -8
BITMAP
F800E0
FC00E0
1E00E0
0E00E0
0E00E0
0E00E0
0E00E0
0E00E0
0E00E0
0E00E0
0E00E0
0E00E0
0E00E0
0E01E0
0F01E0
0787E0
07FEE0
01FCE0
0000E0
0000E0
0000E0
0000E0
0000E0
000070
00007C
00003C
ENDCHAR
STARTCHAR 02B0
ENCODING 688
SWIDTH 390 0
DWIDTH 13 0
BBX 10 15 2 10
BITMAP
C000
C000
C000
C000
C000
FF80
E180
C0C0
C0C0
C0C0
C0C0
C0C0
C0C0
C0C0
C0C0
ENDCHAR
STARTCHAR 02B1
ENCODING 689
SWIDTH 390 0
DWIDTH 13 0
BBX 10 15 2 10
BITMAP
7000
F000
C000
C000
C000
FF80
E180
C0C0
C0C0
C0C0
C0C0
C0C0
C0C0
C0C0
C0C0
ENDCHAR
STARTCHAR 02B2
ENCODING 690
SWIDTH 150 0
DWIDTH 5 0
BBX 5 19 -1 5
BITMAP
18
18
00
00
18
18
18
18
18
18
18
18
18
18
18
18
18
30
F0
ENDCHAR
STARTCHAR 02B3
ENCODING 691
SWIDTH 240 0
DWIDTH 8 0
BBX 7 11 2 10
BITMAP
04
DE
F0
C0
C0
C0
C0
C0
C0
C0
C0
ENDCHAR
STARTCHAR 02B4
ENCODING 692
SWIDTH 240 0
DWIDTH 8 0
BBX 7 11 0 9
BITMAP
06
06
06
06
06
06
06
06
0E
F6
E0
ENDCHAR
STARTCHAR 02B5
ENCODING 693
SWIDTH 240 0
DWIDTH 8 0
BBX 10 15 0 5
BITMAP
0600
0600
0600
0600
0600
0600
0600
0600
0E00
F600
E600
0600
0600
0700
03C0
ENDCHAR
STARTCHAR 02B6
ENCODING 694
SWIDTH 360 0
DWIDTH 12 0
BBX 9 10 2 10
BITMAP
C180
C300
C300
C600
FE00
C780
C180
C180
C180
FF00
ENDCHAR
STARTCHAR 02B7
ENCODING 695
SWIDTH 510 0
DWIDTH 17 0
BBX 17 10 0 10
BITMAP
C1C180
61C300
614300
636300
336600
322600
363600
163400
1C1C00
1C1C00
ENDCHAR
STARTCHAR 02B8
ENCODING 696
SWIDTH 330 0
DWIDTH 11 0
BBX 11 15 0 5
BITMAP
C060
60C0
60C0
31C0
3180
1180
1B00
1B00
0A00
0E00
0600
0C00
0C00
1800
F000
ENDCHAR
STARTCHAR 02B9
ENCODING 697
SWIDTH 150 0
DWIDTH 5 0
BBX 4 8 1 16
BITMAP
70
70
70
F0
E0
E0
C0
C0
ENDCHAR
STARTCHAR 02BA
ENCODING 698
SWIDTH 330 0
DWIDTH 11 0
BBX 11 8 1 16
BITMAP
71E0
71C0
71C0
F1C0
E380
E380
C380
C300
ENDCHAR
STARTCHAR 02BB
ENCODING 699
SWIDTH 150 0
DWIDTH 5 0
BBX 4 8 1 16
BITMAP
30
30
70
70
E0
E0
E0
E0
ENDCHAR
STARTCHAR 02BC
ENCODING 700
SWIDTH 150 0
DWIDTH 5 0
BBX 4 8 1 16
BITMAP
70
70
70
F0
E0
E0
C0
C0
ENDCHAR
STARTCHAR 02BD
ENCODING 701
SWIDTH 150 0
DWIDTH 5 0
BBX 5 8 0 16
BITMAP
F0
70
70
70
38
38
38
18
ENDCHAR
STARTCHAR 02BE
ENCODING 702
SWIDTH 150 0
DWIDTH 5 0
BBX 4 7 1 19
BITMAP
C0
E0
30
30
60
E0
C0
ENDCHAR
STARTCHAR 02BF
ENCODING 703
SWIDTH 150 0
DWIDTH 5 0
BBX 4 7 1 19
BITMAP
70
F0
C0
C0
C0
70
30
ENDCHAR
STARTCHAR 02C0
ENCODING 704
SWIDTH 270 0
DWIDTH 9 0
BBX 9 10 0 16
BITMAP
FF00
6700
0380
0180
0380
0300
0F00
1C00
1800
1800
ENDCHAR
STARTCHAR 02C1
ENCODING 705
SWIDTH 270 0
DWIDTH 9 0
BBX 8 11 1 15
BITMAP
08
7F
E3
C0
C0
C0
E0
78
1C
0C
0C
ENDCHAR
STARTCHAR 02C2
ENCODING 706
SWIDTH 270 0
DWIDTH 9 0
BBX 8 8 1 18
BITMAP
03
0E
38
E0
C0
38
0E
01
ENDCHAR
STARTCHAR 02C3
ENCODING 707
SWIDTH 270 0
DWIDTH 9 0
BBX 8 8 1 18
BITMAP
80
60
18
06
07
1C
E0
80
ENDCHAR
STARTCHAR 02C4
ENCODING 708
SWIDTH 270 0
DWIDTH 9 0
BBX 8 8 1 18
BITMAP
10
18
28
24
44
46
C2
83
ENDCHAR
STARTCHAR 02C5
ENCODING 709
SWIDTH 270 0
DWIDTH 9 0
BBX 7 8 1 18
BITMAP
82
82
44
44
2C
28
38
10
ENDCHAR
STARTCHAR 02C6
ENCODING 710
SWIDTH 390 0
DWIDTH 13 0
BBX 12 6 1 20
BITMAP
0E00
0F00
1F80
39C0
70E0
E070
ENDCHAR
STARTCHAR 02C7
ENCODING 711
SWIDTH 390 0
DWIDTH 13 0
BBX 12 6 1 20
BITMAP
C070
70E0
39C0
1F80
0F00
0F00
ENDCHAR
STARTCHAR 02C8
ENCODING 712
SWIDTH 150 0
DWIDTH 5 0
BBX 3 8 1 17
BITMAP
E0
E0
E0
E0
E0
E0
E0
E0
ENDCHAR
STARTCHAR 02C9
ENCODING 713
SWIDTH 360 0
DWIDTH 12 0
BBX 10 3 1 20
BITMAP
FFC0
FFC0
FFC0
ENDCHAR
STARTCHAR 02CA
ENCODING 714
SWIDTH 270 0
DWIDTH 9 0
BBX 7 6 1 20
BITMAP
1E
1E
3C
38
70
E0
ENDCHAR
STARTCHAR 02CB
ENCODING 715
SWIDTH 270 0
DWIDTH 9 0
BBX 7 6 1 20
BITMAP
F0
70
38
1C
0C
06
ENDCHAR
STARTCHAR 02CC
ENCODING 716
SWIDTH 150 0
DWIDTH 5 0
BBX 3 9 1 -7
BITMAP
E0
E0
E0
E0
E0
E0
E0
E0
E0
ENDCHAR
STARTCHAR 02CD
ENCODING 717
SWIDTH 360 0
DWIDTH 12 0
BBX 10 2 1 -5
BITMAP
FFC0
FFC0
ENDCHAR
STARTCHAR 02CE
ENCODING 718
SWIDTH 270 0
DWIDTH 9 0
BBX 7 6 1 -7
BITMAP
F0
70
38
1C
0C
06
ENDCHAR
STARTCHAR 02CF
ENCODING 719
SWIDTH 270 0
DWIDTH 9 0
BBX 7 6 1 -7
BITMAP
1E
1E
3C
38
70
E0
ENDCHAR
STARTCHAR 02D0
ENCODING 720
SWIDTH 300 0
DWIDTH 10 0
BBX 5 18 3 0
BITMAP
F8
F0
70
20
20
00
00
00
00
00
00
00
00
00
20
70
F0
F8
ENDCHAR
STARTCHAR 02D1
ENCODING 721
SWIDTH 300 0
DWIDTH 10 0
BBX 5 5 3 13
BITMAP
F8
F0
70
20
20
ENDCHAR
STARTCHAR 02D2
ENCODING 722
SWIDTH 180 0
DWIDTH 6 0
BBX 4 7 1 6
BITMAP
80
E0
70
30
30
70
E0
ENDCHAR
STARTCHAR 02D3
ENCODING 723
SWIDTH 180 0
DWIDTH 6 0
BBX 4 7 1 6
BITMAP
10
70
60
C0
C0
60
70
ENDCHAR
STARTCHAR 02D4
ENCODING 724
SWIDTH 270 0
DWIDTH 9 0
BBX 7 5 1 8
BITMAP
38
38
38
FE
FE
ENDCHAR
STARTCHAR 02D5
ENCODING 725
SWIDTH 270 0
DWIDTH 9 0
BBX 7 5 1 8
BITMAP
FE
FE
38
38
38
ENDCHAR
STARTCHAR 02D6
ENCODING 726
SWIDTH 270 0
DWIDTH 9 0
BBX 7 6 1 7
BITMAP
38
38
FE
FE
38
38
ENDCHAR
STARTCHAR 02D7
ENCODING 727
SWIDTH 270 0
DWIDTH 9 0
BBX 8 2 1 9
BITMAP
FF
FF
ENDCHAR
STARTCHAR 02D8
ENCODING 728
SWIDTH 390 0
DWIDTH 13 0
BBX 11 5 1 20
BITMAP
C060
40C0
7FC0
3F80
1E00
ENDCHAR
STARTCHAR 02D9
ENCODING 729
SWIDTH 180 0
DWIDTH 6 0
BBX 4 4 1 21
BITMAP
20
F0
F0
60
ENDCHAR
STARTCHAR 02DA
ENCODING 730
SWIDTH 300 0
DWIDTH 10 0
BBX 8 7 1 20
BITMAP
3C
66
C3
C3
C6
7E
3C
ENDCHAR
STARTCHAR 02DB
ENCODING 731
SWIDTH 240 0
DWIDTH 8 0
BBX 6 7 1 -6
BITMAP
38
70
60
E0
E0
7C
7C
ENDCHAR
STARTCHAR 02DC
ENCODING 732
SWIDTH 420 0
DWIDTH 14 0
BBX 13 5 1 20
BITMAP
0018
3E10
7FF0
63F0
C1C0
ENDCHAR
STARTCHAR 02DD
ENCODING 733
SWIDTH 420 0
DWIDTH 14 0
BBX 12 6 1 20
BITMAP
1C70
1C70
38E0
31C0
6180
C300
ENDCHAR
STARTCHAR 02DE
ENCODING 734
SWIDTH 240 0
DWIDTH 8 0
BBX 12 7 -4 6
BITMAP
0400
7E00
FE00
6E00
0730
07F0
03E0
ENDCHAR
STARTCHAR 02DF
ENCODING 735
SWIDTH 270 0
DWIDTH 9 0
BBX 7 7 1 19
BITMAP
44
EE
7C
38
7C
EE
44
ENDCHAR
STARTCHAR 02E0
ENCODING 736
SWIDTH 330 0
DWIDTH 11 0
BBX 11 15 0 5
BITMAP
C060
60C0
60C0
3180
3180
1B00
1B00
0E00
0E00
0E00
0A00
1B00
1B00
1B00
0E00
ENDCHAR
STARTCHAR 02E1
ENCODING 737
SWIDTH 150 0
DWIDTH 5 0
BBX 2 15 2 10
BITMAP
C0
C0
C0
C0
C0
C0
C0
C0
C0
C0
C0
C0
C0
C0
C0
ENDCHAR
STARTCHAR 02E2
ENCODING 738
SWIDTH 300 0
DWIDTH 10 0
BBX 8 12 1 9
BITMAP
08
7F
C1
C0
E0
78
1E
03
01
03
FF
38
ENDCHAR
STARTCHAR 02E3
ENCODING 739
SWIDTH 330 0
DWIDTH 11 0
BBX 10 10 1 10
BITMAP
C180
6380
3300
3E00
1C00
1C00
3600
3300
6380
C1C0
ENDCHAR
STARTCHAR 02E4
ENCODING 740
SWIDTH 270 0
DWIDTH 9 0
BBX 8 15 1 10
BITMAP
3C
FF
C0
C0
C0
C0
E0
70
3C
0C
0C
0C
0C
0C
0C
ENDCHAR
STARTCHAR 02E5
ENCODING 741
SWIDTH 390 0
DWIDTH 13 0
BBX 8 23 3 0
BITMAP
FF
FF
03
03
03
03
03
03
03
03
03
03
03
03
03
03
03
03
03
03
03
03
03
ENDCHAR
STARTCHAR 02E6
ENCODING 742
SWIDTH 390 0
DWIDTH 13 0
BBX 8 23 3 0
BITMAP
03
03
03
03
03
03
FF
FF
03
03
03
03
03
03
03
03
03
03
03
03
03
03
03
ENDCHAR
STARTCHAR 02E7
ENCODING 743
SWIDTH 390 0
DWIDTH 13 0
BBX 8 23 3 0
BITMAP
03
03
03
03
03
03
03
03
03
03
FF
FF
03
03
03
03
03
03
03
03
03
03
03
ENDCHAR
STARTCHAR 02E8
ENCODING 744
SWIDTH 390 0
DWIDTH 13 0
BBX 8 23 3 0
BITMAP
03
03
03
03
03
03
03
03
03
03
03
03
03
03
03
FF
FF
03
03
03
03
03
03
ENDCHAR
STARTCHAR 02E9
ENCODING 745
SWIDTH 390 0
DWIDTH 13 0
BBX 8 23 3 0
BITMAP
03
03
03
03
03
03
03
03
03
03
03
03
03
03
03
03
03
03
03
03
03
FF
FF
ENDCHAR
STARTCHAR 02EA
ENCODING 746
SWIDTH 390 0
DWIDTH 13 0
BBX 8 12 3 6
BITMAP
C0
C0
C0
C0
C0
C0
C0
C0
C0
C0
FF
FF
ENDCHAR
STARTCHAR 02EB
ENCODING 747
SWIDTH 390 0
DWIDTH 13 0
BBX 8 12 3 6
BITMAP
C0
C0
C0
C0
C0
FF
FF
FF
C0
C0
C0
C0
ENDCHAR
STARTCHAR 02EC
ENCODING 748
SWIDTH 390 0
DWIDTH 13 0
BBX 12 6 1 -7
BITMAP
E070
70E0
39C0
1F80
0F00
0F00
ENDCHAR
STARTCHAR 02ED
ENCODING 749
SWIDTH 480 0
DWIDTH 16 0
BBX 14 7 1 20
BITMAP
FFFC
FFFC
FFFC
0000
0000
FFFC
FFFC
ENDCHAR
STARTCHAR 02EE
ENCODING 750
SWIDTH 330 0
DWIDTH 11 0
BBX 11 8 1 16
BITMAP
71E0
71C0
71C0
F1C0
E380
E380
C380
C300
ENDCHAR
STARTCHAR 02EF
ENCODING 751
SWIDTH 390 0
DWIDTH 13 0
BBX 10 7 2 -8
BITMAP
E1C0
6180
7380
3F00
3E00
1E00
0C00
ENDCHAR
STARTCHAR 02F0
ENCODING 752
SWIDTH 390 0
DWIDTH 13 0
BBX 10 7 2 -8
BITMAP
0C00
1E00
3F00
3300
7380
E1C0
C1C0
ENDCHAR
STARTCHAR 02F1
ENCODING 753
SWIDTH 330 0
DWIDTH 11 0
BBX 9 9 1 -8
BITMAP
0080
0380
1F80
7C00
F000
FC00
1F00
0780
0080
ENDCHAR
STARTCHAR 02F2
ENCODING 754
SWIDTH 330 0
DWIDTH 11 0
BBX 9 9 1 -8
BITMAP
8000
E000
FC00
1F00
0780
1F80
7C00
F000
C000
ENDCHAR
STARTCHAR 02F3
ENCODING 755
SWIDTH 330 0
DWIDTH 11 0
BBX 7 7 2 -9
BITMAP
38
FE
C6
C6
C6
FE
7C
ENDCHAR
STARTCHAR 02F4
ENCODING 756
SWIDTH 270 0
DWIDTH 9 0
BBX 7 6 1 9
BITMAP
F0
70
38
1C
0C
06
ENDCHAR
STARTCHAR 02F5
ENCODING 757
SWIDTH 420 0
DWIDTH 14 0
BBX 12 6 1 9
BITMAP
F380
71C0
38E0
18E0
0C70
0430
ENDCHAR
STARTCHAR 02F6
ENCODING 758
SWIDTH 420 0
DWIDTH 14 0
BBX 12 6 1 9
BITMAP
1C70
1CF0
38E0
71C0
6180
C300
ENDCHAR
STARTCHAR 02F7
ENCODING 759
SWIDTH 420 0
DWIDTH 14 0
BBX 12 4 1 -6
BITMAP
3C10
7F30
7FF0
C1E0
ENDCHAR
STARTCHAR 02F8
ENCODING 760
SWIDTH 240 0
DWIDTH 8 0
BBX 5 18 2 7
BITMAP
70
F8
F0
70
00
00
00
00
00
00
00
00
00
00
70
F0
F8
70
ENDCHAR
STARTCHAR 02F9
ENCODING 761
SWIDTH 270 0
DWIDTH 9 0
BBX 7 8 1 15
BITMAP
FE
FE
C0
C0
C0
C0
C0
C0
ENDCHAR
STARTCHAR 02FA
ENCODING 762
SWIDTH 270 0
DWIDTH 9 0
BBX 7 8 1 15
BITMAP
FE
FE
06
06
06
06
06
06
ENDCHAR
STARTCHAR 02FB
ENCODING 763
SWIDTH 270 0
DWIDTH 9 0
BBX 7 8 1 0
BITMAP
C0
C0
C0
C0
C0
C0
FE
FE
ENDCHAR
STARTCHAR 02FC
ENCODING 764
SWIDTH 270 0
DWIDTH 9 0
BBX 7 8 1 0
BITMAP
06
06
06
06
06
06
FE
FE
ENDCHAR
STARTCHAR 02FD
ENCODING 765
SWIDTH 510 0
DWIDTH 17 0
BBX 15 6 1 -7
BITMAP
C006
C006
C006
C006
FFFE
FFFE
ENDCHAR
STARTCHAR 02FE
ENCODING 766
SWIDTH 510 0
DWIDTH 17 0
BBX 15 6 1 -7
BITMAP
C000
C000
C000
C000
FFFE
FFFE
ENDCHAR
STARTCHAR 02FF
ENCODING 767
SWIDTH 510 0
DWIDTH 17 0
BBX 15 10 1 -7
BITMAP
0180
0780
1E00
7800
FFFE
FFFE
3C00
0F00
0380
0080
ENDCHAR
STARTCHAR 0300
ENCODING 768
SWIDTH 0 0
DWIDTH 0 0
BBX 6 6 -16 20
BITMAP
E0
F0
70
38
1C
0C
ENDCHAR
STARTCHAR 0301
ENCODING 769
SWIDTH 0 0
DWIDTH 0 0
BBX 7 6 -11 20
BITMAP
1E
1C
3C
78
70
C0
ENDCHAR
STARTCHAR 0302
ENCODING 770
SWIDTH 0 0
DWIDTH 0 0
BBX 12 6 -6 20
BITMAP
0F00
0F00
1F80
39C0
70E0
E070
ENDCHAR
STARTCHAR 0303
ENCODING 771
SWIDTH 0 0
DWIDTH 0 0
BBX 12 5 -16 20
BITMAP
0030
7C30
FFE0
C7E0
8180
ENDCHAR
STARTCHAR 0304
ENCODING 772
SWIDTH 0 0
DWIDTH 0 0
BBX 10 3 -5 20
BITMAP
FFC0
FFC0
FFC0
ENDCHAR
STARTCHAR 0305
ENCODING 773
SWIDTH 0 0
DWIDTH 0 0
BBX 14 2 -7 26
BITMAP
FFFC
FFFC
ENDCHAR
STARTCHAR 0306
ENCODING 774
SWIDTH 0 0
DWIDTH 0 0
BBX 10 5 -5 20
BITMAP
C0C0
C0C0
FFC0
7F80
1E00
ENDCHAR
STARTCHAR 0307
ENCODING 775
SWIDTH 0 0
DWIDTH 0 0
BBX 4 3 -2 22
BITMAP
F0
F0
60
ENDCHAR
STARTCHAR 0308
ENCODING 776
SWIDTH 0 0
DWIDTH 0 0
BBX 10 3 -5 21
BITMAP
E180
E1C0
6180
ENDCHAR
STARTCHAR 0309
ENCODING 777
SWIDTH 0 0
DWIDTH 0 0
BBX 6 7 -12 20
BITMAP
F8
38
1C
18
78
60
60
ENDCHAR
STARTCHAR 030A
ENCODING 778
SWIDTH 0 0
DWIDTH 0 0
BBX 8 7 -4 20
BITMAP
3C
66
C3
C3
67
7E
3C
ENDCHAR
STARTCHAR 030B
ENCODING 779
SWIDTH 0 0
DWIDTH 0 0
BBX 12 6 -4 20
BITMAP
1C70
38E0
39E0
71C0
E380
C300
ENDCHAR
STARTCHAR 030C
ENCODING 780
SWIDTH 0 0
DWIDTH 0 0
BBX 12 6 -6 20
BITMAP
C070
70E0
39C0
1F80
0F00
0F00
ENDCHAR
STARTCHAR 030D
ENCODING 781
SWIDTH 0 0
DWIDTH 0 0
BBX 2 5 -1 20
BITMAP
C0
C0
C0
C0
C0
ENDCHAR
STARTCHAR 030E
ENCODING 782
SWIDTH 0 0
DWIDTH 0 0
BBX 8 5 -4 20
BITMAP
E7
E7
E7
E7
E7
ENDCHAR
STARTCHAR 030F
ENCODING 783
SWIDTH 0 0
DWIDTH 0 0
BBX 12 6 -17 20
BITMAP
E380
E380
71C0
38C0
1860
0C30
ENDCHAR
STARTCHAR 0310
ENCODING 784
SWIDTH 0 0
DWIDTH 0 0
BBX 10 8 -5 20
BITMAP
0C00
1E00
1E00
C0C0
C0C0
FFC0
7F80
1E00
ENDCHAR
STARTCHAR 0311
ENCODING 785
SWIDTH 0 0
DWIDTH 0 0
BBX 10 5 -5 20
BITMAP
0C00
7F80
7FC0
C0C0
C0C0
ENDCHAR
STARTCHAR 0312
ENCODING 786
SWIDTH 0 0
DWIDTH 0 0
BBX 5 8 -3 16
BITMAP
18
18
38
38
70
70
70
F0
ENDCHAR
STARTCHAR 0313
ENCODING 787
SWIDTH 0 0
DWIDTH 0 0
BBX 4 8 -2 16
BITMAP
70
70
70
70
E0
E0
C0
C0
ENDCHAR
STARTCHAR 0314
ENCODING 788
SWIDTH 0 0
DWIDTH 0 0
BBX 5 8 -3 16
BITMAP
F0
70
70
70
38
38
38
18
ENDCHAR
STARTCHAR 0315
ENCODING 789
SWIDTH 0 0
DWIDTH 0 0
BBX 5 8 -2 16
BITMAP
78
70
70
70
E0
E0
E0
C0
ENDCHAR
STARTCHAR 0316
ENCODING 790
SWIDTH 0 0
DWIDTH 0 0
BBX 6 6 -3 -7
BITMAP
E0
F0
70
38
1C
0C
ENDCHAR
STARTCHAR 0317
ENCODING 791
SWIDTH 0 0
DWIDTH 0 0
BBX 6 6 -3 -7
BITMAP
1C
3C
38
70
E0
C0
ENDCHAR
STARTCHAR 0318
ENCODING 792
SWIDTH 0 0
DWIDTH 0 0
BBX 6 6 -3 -7
BITMAP
0C
0C
FC
FC
0C
0C
ENDCHAR
STARTCHAR 0319
ENCODING 793
SWIDTH 0 0
DWIDTH 0 0
BBX 6 6 -3 -7
BITMAP
C0
C0
FC
FC
C0
C0
ENDCHAR
STARTCHAR 031A
ENCODING 794
SWIDTH 0 0
DWIDTH 0 0
BBX 9 8 -3 23
BITMAP
FF80
FF80
0180
0180
0180
0180
0180
0180
ENDCHAR
STARTCHAR 031B
ENCODING 795
SWIDTH 0 0
DWIDTH 0 0
BBX 7 6 -3 18
BITMAP
1E
1C
1C
38
F0
E0
ENDCHAR
STARTCHAR 031C
ENCODING 796
SWIDTH 0 0
DWIDTH 0 0
BBX 4 7 -2 -7
BITMAP
70
E0
C0
C0
60
70
10
ENDCHAR
STARTCHAR 031D
ENCODING 797
SWIDTH 0 0
DWIDTH 0 0
BBX 8 5 -4 -7
BITMAP
18
18
18
FF
FF
ENDCHAR
STARTCHAR 031E
ENCODING 798
SWIDTH 0 0
DWIDTH 0 0
BBX 8 5 -4 -7
BITMAP
FF
FF
18
18
18
ENDCHAR
STARTCHAR 031F
ENCODING 799
SWIDTH 0 0
DWIDTH 0 0
BBX 8 7 -4 -8
BITMAP
18
18
FF
FF
18
18
18
ENDCHAR
STARTCHAR 0320
ENCODING 800
SWIDTH 0 0
DWIDTH 0 0
BBX 8 2 -4 -5
BITMAP
FF
FF
ENDCHAR
STARTCHAR 0321
ENCODING 801
SWIDTH 0 0
DWIDTH 0 0
BBX 6 9 -6 -8
BITMAP
1C
1C
1C
1C
1C
1C
FC
F8
F0
ENDCHAR
STARTCHAR 0322
ENCODING 802
SWIDTH 0 0
DWIDTH 0 0
BBX 6 9 0 -8
BITMAP
E0
E0
E0
E0
E0
E0
FC
7C
3C
ENDCHAR
STARTCHAR 0323
ENCODING 803
SWIDTH 0 0
DWIDTH 0 0
BBX 4 4 -12 -6
BITMAP
60
F0
F0
60
ENDCHAR
STARTCHAR 0324
ENCODING 804
SWIDTH 0 0
DWIDTH 0 0
BBX 10 3 -5 -6
BITMAP
E1C0
E1C0
6180
ENDCHAR
STARTCHAR 0325
ENCODING 805
SWIDTH 0 0
DWIDTH 0 0
BBX 8 6 -4 -8
BITMAP
7E
66
C3
C3
66
7E
ENDCHAR
STARTCHAR 0326
ENCODING 806
SWIDTH 0 0
DWIDTH 0 0
BBX 4 5 -2 -7
BITMAP
70
70
60
E0
C0
ENDCHAR
STARTCHAR 0327
ENCODING 807
SWIDTH 0 0
DWIDTH 0 0
BBX 6 8 -3 -8
BITMAP
30
30
78
1C
0C
0C
FC
F0
ENDCHAR
STARTCHAR 0328
ENCODING 808
SWIDTH 0 0
DWIDTH 0 0
BBX 6 7 -3 -6
BITMAP
30
70
60
E0
E0
FC
7C
ENDCHAR
STARTCHAR 0329
ENCODING 809
SWIDTH 0 0
DWIDTH 0 0
BBX 2 6 -1 -7
BITMAP
C0
C0
C0
C0
C0
C0
ENDCHAR
STARTCHAR 032A
ENCODING 810
SWIDTH 0 0
DWIDTH 0 0
BBX 12 5 -6 -7
BITMAP
FFF0
FFF0
C030
C030
C030
ENDCHAR
STARTCHAR 032B
ENCODING 811
SWIDTH 0 0
DWIDTH 0 0
BBX 12 4 -6 -6
BITMAP
C630
C630
FFF0
79C0
ENDCHAR
STARTCHAR 032C
ENCODING 812
SWIDTH 0 0
DWIDTH 0 0
BBX 12 6 -6 -7
BITMAP
E070
70E0
39C0
1F80
0F00
0F00
ENDCHAR
STARTCHAR 032D
ENCODING 813
SWIDTH 0 0
DWIDTH 0 0
BBX 12 6 -6 -7
BITMAP
0F00
0F00
1F80
39C0
70E0
E070
ENDCHAR
STARTCHAR 032E
ENCODING 814
SWIDTH 0 0
DWIDTH 0 0
BBX 10 4 -5 -6
BITMAP
C0C0
E1C0
7F80
3F00
ENDCHAR
STARTCHAR 032F
ENCODING 815
SWIDTH 0 0
DWIDTH 0 0
BBX 10 4 -5 -6
BITMAP
3F00
7F80
E1C0
C0C0
ENDCHAR
STARTCHAR 0330
ENCODING 816
SWIDTH 0 0
DWIDTH 0 0
BBX 12 4 -6 -6
BITMAP
3C30
7F70
EFE0
C3C0
ENDCHAR
STARTCHAR 0331
ENCODING 817
SWIDTH 0 0
DWIDTH 0 0
BBX 10 2 -5 -5
BITMAP
FFC0
FFC0
ENDCHAR
STARTCHAR 0332
ENCODING 818
SWIDTH 0 0
DWIDTH 0 0
BBX 14 2 -7 -5
BITMAP
FFFC
FFFC
ENDCHAR
STARTCHAR 0333
ENCODING 819
SWIDTH 0 0
DWIDTH 0 0
BBX 14 6 -7 -7
BITMAP
FFFC
FFFC
0000
0000
FFFC
FFFC
ENDCHAR
STARTCHAR 0334
ENCODING 820
SWIDTH 0 0
DWIDTH 0 0
BBX 12 4 -6 7
BITMAP
3C30
7F70
E7E0
C1E0
ENDCHAR
STARTCHAR 0335
ENCODING 821
SWIDTH 0 0
DWIDTH 0 0
BBX 14 2 -7 9
BITMAP
FFFC
FFFC
ENDCHAR
STARTCHAR 0336
ENCODING 822
SWIDTH 0 0
DWIDTH 0 0
BBX 24 3 -12 8
BITMAP
FFFFFF
FFFFFF
FFFFFF
ENDCHAR
STARTCHAR 0337
ENCODING 823
SWIDTH 0 0
DWIDTH 0 0
BBX 9 7 -4 6
BITMAP
0300
0780
1F00
7C00
F000
E000
8000
ENDCHAR
STARTCHAR 0338
ENCODING 824
SWIDTH 0 0
DWIDTH 0 0
BBX 12 27 -6 -2
BITMAP
0030
0070
0070
0060
00E0
00C0
01C0
01C0
0180
0380
0300
0700
0700
0600
0E00
0C00
1C00
1C00
1800
3800
3000
3000
7000
6000
E000
E000
C000
ENDCHAR
STARTCHAR 0339
ENCODING 825
SWIDTH 0 0
DWIDTH 0 0
BBX 4 7 -2 -7
BITMAP
E0
70
30
30
70
E0
80
ENDCHAR
STARTCHAR 033A
ENCODING 826
SWIDTH 0 0
DWIDTH 0 0
BBX 12 5 -6 -7
BITMAP
C030
C030
C030
FFF0
FFF0
ENDCHAR
STARTCHAR 033B
ENCODING 827
SWIDTH 0 0
DWIDTH 0 0
BBX 12 7 -6 -8
BITMAP
FFF0
FFF0
C030
C030
C030
FFF0
FFF0
ENDCHAR
STARTCHAR 033C
ENCODING 828
SWIDTH 0 0
DWIDTH 0 0
BBX 12 4 -6 -6
BITMAP
79E0
FFF0
C630
C610
ENDCHAR
STARTCHAR 033D
ENCODING 829
SWIDTH 0 0
DWIDTH 0 0
BBX 6 6 -3 20
BITMAP
CC
FC
70
78
FC
08
ENDCHAR
STARTCHAR 033E
ENCODING 830
SWIDTH 0 0
DWIDTH 0 0
BBX 4 10 -2 19
BITMAP
30
F0
C0
C0
E0
70
30
30
F0
C0
ENDCHAR
STARTCHAR 033F
ENCODING 831
SWIDTH 0 0
DWIDTH 0 0
BBX 14 7 -7 25
BITMAP
FFFC
FFFC
0000
0000
FFFC
FFFC
FFFC
ENDCHAR
STARTCHAR 0340
ENCODING 832
SWIDTH 0 0
DWIDTH 0 0
BBX 6 6 -5 20
BITMAP
E0
F0
70
38
1C
0C
ENDCHAR
STARTCHAR 0341
ENCODING 833
SWIDTH 0 0
DWIDTH 0 0
BBX 6 6 -1 20
BITMAP
1C
3C
38
70
E0
C0
ENDCHAR
STARTCHAR 0342
ENCODING 834
SWIDTH 0 0
DWIDTH 0 0
BBX 12 5 -6 20
BITMAP
0030
7C30
FFF0
C7E0
C1C0
ENDCHAR
STARTCHAR 0343
ENCODING 835
SWIDTH 0 0
DWIDTH 0 0
BBX 4 6 -2 20
BITMAP
E0
F0
30
30
70
40
ENDCHAR
STARTCHAR 0344
ENCODING 836
SWIDTH 0 0
DWIDTH 0 0
BBX 12 6 -5 20
BITMAP
0780
0700
EE60
EE70
EC60
0C00
ENDCHAR
STARTCHAR 0345
ENCODING 837
SWIDTH 0 0
DWIDTH 0 0
BBX 5 5 -1 -8
BITMAP
C0
C0
E0
F8
78
ENDCHAR
STARTCHAR 0346
ENCODING 838
SWIDTH 0 0
DWIDTH 0 0
BBX 14 5 -7 20
BITMAP
FFFC
FFFC
C00C
C00C
C00C
ENDCHAR
STARTCHAR 0347
ENCODING 839
SWIDTH 0 0
DWIDTH 0 0
BBX 14 6 -7 -7
BITMAP
FFFC
FFFC
0000
0000
FFFC
FFFC
ENDCHAR
STARTCHAR 0348
ENCODING 840
SWIDTH 0 0
DWIDTH 0 0
BBX 8 6 -4 -7
BITMAP
E7
E7
E7
E7
E7
E7
ENDCHAR
STARTCHAR 0349
ENCODING 841
SWIDTH 0 0
DWIDTH 0 0
BBX 6 6 -3 -8
BITMAP
FC
FC
0C
0C
0C
0C
ENDCHAR
STARTCHAR 034A
ENCODING 842
SWIDTH 0 0
DWIDTH 0 0
BBX 12 6 -6 20
BITMAP
0330
7F30
FFF0
CFE0
CDC0
0800
ENDCHAR
STARTCHAR 034B
ENCODING 843
SWIDTH 0 0
DWIDTH 0 0
BBX 12 12 -6 19
BITMAP
0600
0F00
0600
0000
3C30
7F70
EFE0
C3C0
0000
0E00
0F00
0600
ENDCHAR
STARTCHAR 034C
ENCODING 844
SWIDTH 0 0
DWIDTH 0 0
BBX 12 9 -6 20
BITMAP
1030
7E60
7FE0
C3C0
0000
3C30
7F60
67E0
C1C0
ENDCHAR
STARTCHAR 034D
ENCODING 845
SWIDTH 0 0
DWIDTH 0 0
BBX 10 5 -5 -6
BITMAP
2100
FFC0
FFC0
6180
2100
ENDCHAR
STARTCHAR 034E
ENCODING 846
SWIDTH 0 0
DWIDTH 0 0
BBX 6 7 -3 -8
BITMAP
30
78
FC
30
30
30
30
ENDCHAR
STARTCHAR 034F
ENCODING 847
SWIDTH 0 0
DWIDTH 0 0
BBX 24 24 -12 0
BITMAP
F87E1F
F87E1F
C00003
C00003
C01803
00DB00
0300C0
0200C0
040020
CC0033
C00003
C80013
CC0013
C00003
C40033
040030
020040
0300C0
00C300
C0DB03
C00003
C00003
F87E1F
F87E1F
ENDCHAR
STARTCHAR 0350
ENCODING 848
SWIDTH 0 0
DWIDTH 0 0
BBX 6 6 -3 20
BITMAP
C0
F0
3C
3C
F8
C0
ENDCHAR
STARTCHAR 0351
ENCODING 849
SWIDTH 0 0
DWIDTH 0 0
BBX 4 7 -2 20
BITMAP
30
70
60
C0
40
70
30
ENDCHAR
STARTCHAR 0352
ENCODING 850
SWIDTH 0 0
DWIDTH 0 0
BBX 10 8 -5 20
BITMAP
3F00
7F80
F3C0
C0C0
0C00
1E00
1E00
0C00
ENDCHAR
STARTCHAR 0353
ENCODING 851
SWIDTH 0 0
DWIDTH 0 0
BBX 6 6 -3 -7
BITMAP
48
FC
78
78
FC
4C
ENDCHAR
STARTCHAR 0354
ENCODING 852
SWIDTH 0 0
DWIDTH 0 0
BBX 6 7 -3 -8
BITMAP
04
1C
F8
E0
F0
3C
0C
ENDCHAR
STARTCHAR 0355
ENCODING 853
SWIDTH 0 0
DWIDTH 0 0
BBX 6 7 -3 -8
BITMAP
80
E0
78
1C
3C
F0
C0
ENDCHAR
STARTCHAR 0356
ENCODING 854
SWIDTH 0 0
DWIDTH 0 0
BBX 13 7 -6 -8
BITMAP
8000
E0E0
79E0
19E0
79B0
E330
8318
ENDCHAR
STARTCHAR 0357
ENCODING 855
SWIDTH 0 0
DWIDTH 0 0
BBX 4 7 -2 20
BITMAP
C0
E0
30
30
30
F0
E0
ENDCHAR
STARTCHAR 0358
ENCODING 856
SWIDTH 0 0
DWIDTH 0 0
BBX 4 3 4 22
BITMAP
F0
F0
60
ENDCHAR
STARTCHAR 0359
ENCODING 857
SWIDTH 0 0
DWIDTH 0 0
BBX 6 7 -3 -8
BITMAP
30
30
FC
FC
78
FC
48
ENDCHAR
STARTCHAR 035A
ENCODING 858
SWIDTH 0 0
DWIDTH 0 0
BBX 12 7 -6 -8
BITMAP
79E0
FFF0
C630
8610
C630
FFF0
79E0
ENDCHAR
STARTCHAR 035B
ENCODING 859
SWIDTH 0 0
DWIDTH 0 0
BBX 6 6 -3 20
BITMAP
60
C0
FC
FC
0C
18
ENDCHAR
STARTCHAR 035C
ENCODING 860
SWIDTH 0 0
DWIDTH 0 0
BBX 26 7 -13 -8
BITMAP
E00001C0
60000180
78000780
3E001E00
0FFFFC00
03FFF000
001E0000
ENDCHAR
STARTCHAR 035D
ENCODING 861
SWIDTH 0 0
DWIDTH 0 0
BBX 26 6 -13 20
BITMAP
E00001C0
70000380
38000700
1F003E00
0FFFFC00
03FFE000
ENDCHAR
STARTCHAR 035E
ENCODING 862
SWIDTH 0 0
DWIDTH 0 0
BBX 20 2 -10 21
BITMAP
FFFFF0
FFFFF0
ENDCHAR
STARTCHAR 035F
ENCODING 863
SWIDTH 0 0
DWIDTH 0 0
BBX 20 2 -10 -4
BITMAP
FFFFF0
FFFFF0
ENDCHAR
STARTCHAR 0360
ENCODING 864
SWIDTH 0 0
DWIDTH 0 0
BBX 26 5 -13 20
BITMAP
020000C0
3FF800C0
7FFFFF80
E00FFF00
C0007C00
ENDCHAR
STARTCHAR 0361
ENCODING 865
SWIDTH 0 0
DWIDTH 0 0
BBX 26 6 -13 22
BITMAP
01FFE000
07FFF800
1F807E00
3C000F00
70000380
E00001C0
ENDCHAR
STARTCHAR 0362
ENCODING 866
SWIDTH 0 0
DWIDTH 0 0
BBX 25 6 -12 -7
BITMAP
00000400
00000600
FFFFFF80
FFFFFF80
00000700
00000400
ENDCHAR
STARTCHAR 0363
ENCODING 867
SWIDTH 0 0
DWIDTH 0 0
BBX 6 7 -3 21
BITMAP
78
04
04
7C
C4
84
FC
ENDCHAR
STARTCHAR 0364
ENCODING 868
SWIDTH 0 0
DWIDTH 0 0
BBX 7 7 -3 21
BITMAP
38
44
86
FE
80
C0
7C
ENDCHAR
STARTCHAR 0365
ENCODING 869
SWIDTH 0 0
DWIDTH 0 0
BBX 1 9 0 22
BITMAP
80
00
80
80
80
80
80
80
80
ENDCHAR
STARTCHAR 0366
ENCODING 870
SWIDTH 0 0
DWIDTH 0 0
BBX 7 7 -3 21
BITMAP
78
C4
86
82
82
86
7C
ENDCHAR
STARTCHAR 0367
ENCODING 871
SWIDTH 0 0
DWIDTH 0 0
BBX 7 7 -3 21
BITMAP
86
86
86
86
86
86
FE
ENDCHAR
STARTCHAR 0368
ENCODING 872
SWIDTH 0 0
DWIDTH 0 0
BBX 5 7 -2 21
BITMAP
78
C0
80
80
80
80
78
ENDCHAR
STARTCHAR 0369
ENCODING 873
SWIDTH 0 0
DWIDTH 0 0
BBX 7 10 -3 21
BITMAP
06
06
06
7E
C6
86
86
86
86
FE
ENDCHAR
STARTCHAR 036A
ENCODING 874
SWIDTH 0 0
DWIDTH 0 0
BBX 7 10 -3 21
BITMAP
80
80
80
BC
C6
86
86
86
86
86
ENDCHAR
STARTCHAR 036B
ENCODING 875
SWIDTH 0 0
DWIDTH 0 0
BBX 11 7 -5 21
BITMAP
B9C0
CE60
8420
8420
8420
8420
8420
ENDCHAR
STARTCHAR 036C
ENCODING 876
SWIDTH 0 0
DWIDTH 0 0
BBX 5 7 -2 21
BITMAP
D8
E0
C0
C0
C0
C0
C0
ENDCHAR
STARTCHAR 036D
ENCODING 877
SWIDTH 0 0
DWIDTH 0 0
BBX 5 8 -2 21
BITMAP
40
F8
40
40
40
40
40
78
ENDCHAR
STARTCHAR 036E
ENCODING 878
SWIDTH 0 0
DWIDTH 0 0
BBX 7 7 -3 21
BITMAP
82
86
C4
4C
68
28
30
ENDCHAR
STARTCHAR 036F
ENCODING 879
SWIDTH 0 0
DWIDTH 0 0
BBX 7 7 -3 21
BITMAP
C6
4C
28
30
38
6C
C6
ENDCHAR
STARTCHAR 0370
ENCODING 880
SWIDTH 420 0
DWIDTH 14 0
BBX 10 24 3 0
BITMAP
E000
E000
E000
E000
E000
E000
E000
E000
E000
E000
FFC0
FFC0
FFC0
E000
E000
E000
E000
E000
E000
E000
E000
E000
E000
E000
ENDCHAR
STARTCHAR 0371
ENCODING 881
SWIDTH 360 0
DWIDTH 12 0
BBX 9 18 3 0
BITMAP
E000
E000
E000
E000
E000
E000
E000
E000
FF80
FF80
E000
E000
E000
E000
E000
E000
E000
E000
ENDCHAR
STARTCHAR 0372
ENCODING 882
SWIDTH 630 0
DWIDTH 21 0
BBX 18 24 2 0
BITMAP
FFFFC0
FFFFC0
FFFFC0
C1C1C0
C1C1C0
C1C1C0
C1C1C0
C1C1C0
C1C1C0
C1C1C0
01C000
01C000
01C000
01C000
01C000
01C000
01C000
01C000
01C000
01C000
01C000
01C000
01C000
01C000
ENDCHAR
STARTCHAR 0373
ENCODING 883
SWIDTH 630 0
DWIDTH 21 0
BBX 16 25 3 0
BITMAP
FFFF
FFFF
C387
C387
C387
C387
C387
C387
0380
0380
0380
0380
0380
0380
0380
0380
0380
0380
0380
0380
0380
0380
0380
0380
0380
ENDCHAR
STARTCHAR 0374
ENCODING 884
SWIDTH 150 0
DWIDTH 5 0
BBX 5 7 1 19
BITMAP
38
38
78
70
60
60
C0
ENDCHAR
STARTCHAR 0375
ENCODING 885
SWIDTH 150 0
DWIDTH 5 0
BBX 5 6 -1 -5
BITMAP
18
38
38
70
70
F0
ENDCHAR
STARTCHAR 0376
ENCODING 886
SWIDTH 750 0
DWIDTH 25 0
BBX 19 24 3 0
BITMAP
E000E0
E001E0
E001E0
E003E0
E007E0
E00760
E00E60
E01E60
E01C60
E03860
E07860
E07060
E0E060
E1E060
E1C060
E38060
E78060
E70060
EE0060
FE0060
FC0060
F80060
F80060
F00060
ENDCHAR
STARTCHAR 0377
ENCODING 887
SWIDTH 630 0
DWIDTH 21 0
BBX 16 18 3 0
BITMAP
E00F
E01F
E03F
E03F
E077
E067
E0E7
E1C7
E1C7
E387
E707
E707
EE07
FC07
DC07
F807
F007
F007
ENDCHAR
STARTCHAR 037A
ENCODING 890
SWIDTH 240 0
DWIDTH 8 0
BBX 4 5 3 -8
BITMAP
C0
C0
C0
F0
70
ENDCHAR
STARTCHAR 037B
ENCODING 891
SWIDTH 480 0
DWIDTH 16 0
BBX 13 18 1 0
BITMAP
7F80
FFE0
63E0
00F0
0078
0038
0038
0038
0038
0038
0038
0038
0038
0070
00F0
C3E0
FFC0
7F80
ENDCHAR
STARTCHAR 037C
ENCODING 892
SWIDTH 480 0
DWIDTH 16 0
BBX 13 18 2 0
BITMAP
0FF0
1FF8
3E70
7800
7000
E000
E000
E1C0
E3C0
E1C0
E000
E000
E000
F000
7000
3C18
3FF8
0FF0
ENDCHAR
STARTCHAR 037D
ENCODING 893
SWIDTH 480 0
DWIDTH 16 0
BBX 13 18 1 0
BITMAP
7F80
FFE0
63E0
00F0
0078
0038
0038
0C38
1E38
1E38
0038
0038
0038
0070
00F0
C3E0
FFC0
7F80
ENDCHAR
STARTCHAR 037E
ENCODING 894
SWIDTH 240 0
DWIDTH 8 0
BBX 5 22 1 -4
BITMAP
38
78
78
38
00
00
00
00
00
00
00
00
00
00
38
78
78
70
70
60
E0
E0
ENDCHAR
STARTCHAR 037F
ENCODING 895
SWIDTH 270 0
DWIDTH 9 0
BBX 9 30 -3 -6
BITMAP
0380
0380
0380
0380
0380
0380
0380
0380
0380
0380
0380
0380
0380
0380
0380
0380
0380
0380
0380
0380
0380
0380
0380
0380
0380
0380
0780
8F00
FF00
FC00
ENDCHAR
STARTCHAR 0384
ENCODING 900
SWIDTH 210 0
DWIDTH 7 0
BBX 5 6 1 20
BITMAP
38
38
70
70
60
C0
ENDCHAR
STARTCHAR 0385
ENCODING 901
SWIDTH 630 0
DWIDTH 21 0
BBX 12 6 5 20
BITMAP
0780
0700
EE60
EE70
EC60
0C00
ENDCHAR
STARTCHAR 0386
ENCODING 902
SWIDTH 690 0
DWIDTH 23 0
BBX 23 24 0 0
BITMAP
381C00
381E00
701E00
703F00
603F00
E07300
007380
007380
00E1C0
00E1C0
00C1C0
01C0E0
01C0E0
038060
03FFF0
03FFF0
07FFF8
070038
0E0038
0E001C
0E001C
1C001E
1C000E
3C000E
ENDCHAR
STARTCHAR 0387
ENCODING 903
SWIDTH 240 0
DWIDTH 8 0
BBX 5 4 2 14
BITMAP
70
F8
F0
70
ENDCHAR
STARTCHAR 0388
ENCODING 904
SWIDTH 720 0
DWIDTH 24 0
BBX 22 24 0 0
BITMAP
387FFC
387FFC
707FFC
707000
607000
E07000
007000
007000
007000
007000
007FF8
007FF8
007FF8
007000
007000
007000
007000
007000
007000
007000
007000
007FFC
007FFC
007FFC
ENDCHAR
STARTCHAR 0389
ENCODING 905
SWIDTH 900 0
DWIDTH 30 0
BBX 27 24 0 0
BITMAP
387000E0
387000E0
707000E0
707000E0
607000E0
E07000E0
007000E0
007000E0
007000E0
007000E0
007FFFE0
007FFFE0
007FFFE0
007000E0
007000E0
007000E0
007000E0
007000E0
007000E0
007000E0
007000E0
007000E0
007000E0
007000E0
ENDCHAR
STARTCHAR 038A
ENCODING 906
SWIDTH 510 0
DWIDTH 17 0
BBX 16 24 0 0
BITMAP
39FF
39FF
703C
7038
6038
E038
0038
0038
0038
0038
0038
0038
0038
0038
0038
0038
0038
0038
0038
0038
0038
0038
01FF
01FF
ENDCHAR
STARTCHAR 038C
ENCODING 908
SWIDTH 870 0
DWIDTH 29 0
BBX 28 24 0 0
BITMAP
3807F800
383FFE00
707F7F00
70F80780
60E003C0
E1E001C0
01C000E0
03C000E0
038000E0
038000F0
03800070
03800070
03800070
03800070
038000F0
038000F0
03C000E0
01C000E0
01C001E0
00E003C0
00F00780
007E1F00
003FFE00
000FFC00
ENDCHAR
STARTCHAR 038E
ENCODING 910
SWIDTH 780 0
DWIDTH 26 0
BBX 26 24 0 0
BITMAP
39E001C0
38E00380
70F00380
70700700
60780F00
E0380E00
001C1E00
001C1C00
000E3800
000E3800
00077000
00077000
0003E000
0003E000
0001C000
0001C000
0001C000
0001C000
0001C000
0001C000
0001C000
0001C000
0001C000
0001C000
ENDCHAR
STARTCHAR 038F
ENCODING 911
SWIDTH 840 0
DWIDTH 28 0
BBX 27 24 0 0
BITMAP
380FF000
383FFC00
707FFF00
70F00F80
61E00380
E3C003C0
038001C0
038001E0
078000E0
070000E0
070000E0
070000E0
070000E0
070000E0
038001E0
038001C0
038001C0
01C00380
01E00380
00E00700
00780E00
07FC3FE0
07FC3FE0
07FC3FE0
ENDCHAR
STARTCHAR 0390
ENCODING 912
SWIDTH 330 0
DWIDTH 11 0
BBX 11 26 0 0
BITMAP
0700
0700
EE60
EEE0
EC60
0C00
0000
0000
1C00
1C00
1C00
1C00
1C00
1C00
1C00
1C00
1C00
1C00
1C00
1C00
1C00
1C00
1C00
1E00
0FC0
07C0
ENDCHAR
STARTCHAR 0391
ENCODING 913
SWIDTH 630 0
DWIDTH 21 0
BBX 21 24 0 0
BITMAP
007000
007800
00F800
00F800
00DC00
01DC00
01CC00
038E00
038E00
038700
070700
070700
0E0380
0E0380
0FFFC0
1FFFC0
1FFFC0
1C00E0
3800E0
3800F0
700070
700070
700038
E00038
ENDCHAR
STARTCHAR 0392
ENCODING 914
SWIDTH 630 0
DWIDTH 21 0
BBX 17 24 3 0
BITMAP
FFE000
FFFC00
FFFE00
E01F00
E00F00
E00700
E00700
E00700
E00F00
E00E00
FFFC00
FFF000
FFFC00
E00F00
E00700
E00780
E00380
E00380
E00780
E00780
E00F00
FFFE00
FFFC00
FFF000
ENDCHAR
STARTCHAR 0393
ENCODING 915
SWIDTH 480 0
DWIDTH 16 0
BBX 13 24 3 0
BITMAP
FFF8
FFF8
FFF8
E000
E000
E000
E000
E000
E000
E000
E000
E000
E000
E000
E000
E000
E000
E000
E000
E000
E000
E000
E000
E000
ENDCHAR
STARTCHAR 0394
ENCODING 916
SWIDTH 630 0
DWIDTH 21 0
BBX 21 24 0 0
BITMAP
007000
007800
00F800
00F800
00DC00
01DC00
01CE00
038E00
038600
070700
070700
070380
0E0380
0E0380
1C01C0
1C01C0
1C00E0
3800E0
3800E0
700070
700070
7FFFF8
FFFFF8
FFFFF8
ENDCHAR
STARTCHAR 0395
ENCODING 917
SWIDTH 540 0
DWIDTH 18 0
BBX 14 24 3 0
BITMAP
FFFC
FFFC
FFFC
E000
E000
E000
E000
E000
E000
E000
FFF8
FFF8
FFF8
E000
E000
E000
E000
E000
E000
E000
E000
FFFC
FFFC
FFFC
ENDCHAR
STARTCHAR 0396
ENCODING 918
SWIDTH 570 0
DWIDTH 19 0
BBX 17 24 1 0
BITMAP
7FFF00
7FFF00
7FFF00
000F00
000E00
001C00
003C00
003800
007000
00F000
00E000
01C000
03C000
038000
070000
0F0000
0E0000
1C0000
3C0000
380000
700000
FFFF80
FFFF80
FFFF80
ENDCHAR
STARTCHAR 0397
ENCODING 919
SWIDTH 720 0
DWIDTH 24 0
BBX 18 24 3 0
BITMAP
E001C0
E001C0
E001C0
E001C0
E001C0
E001C0
E001C0
E001C0
E001C0
E001C0
FFFFC0
FFFFC0
FFFFC0
E001C0
E001C0
E001C0
E001C0
E001C0
E001C0
E001C0
E001C0
E001C0
E001C0
E001C0
ENDCHAR
STARTCHAR 0398
ENCODING 920
SWIDTH 780 0
DWIDTH 26 0
BBX 22 24 2 0
BITMAP
01FE00
07FF80
1FFFE0
3E01E0
3C00F0
780078
700038
700038
F0003C
E0001C
E0001C
E3FF1C
E3FF1C
E0001C
E0001C
F0003C
700038
700038
780078
380070
3E00F0
1F87E0
0FFFC0
03FF00
ENDCHAR
STARTCHAR 0399
ENCODING 921
SWIDTH 330 0
DWIDTH 11 0
BBX 9 24 1 0
BITMAP
FF80
FF80
1E00
1C00
1C00
1C00
1C00
1C00
1C00
1C00
1C00
1C00
1C00
1C00
1C00
1C00
1C00
1C00
1C00
1C00
1C00
1C00
FF80
FF80
ENDCHAR
STARTCHAR 039A
ENCODING 922
SWIDTH 600 0
DWIDTH 20 0
BBX 17 24 3 0
BITMAP
E00780
E00700
E00E00
E01C00
E03800
E07000
E0F000
E1E000
E3C000
E78000
EF0000
EF8000
FF8000
FBC000
F1E000
E0E000
E07000
E07800
E03C00
E01C00
E01E00
E00F00
E00780
E00380
ENDCHAR
STARTCHAR 039B
ENCODING 923
SWIDTH 600 0
DWIDTH 20 0
BBX 20 24 0 0
BITMAP
007000
00F000
00F000
00F800
01F800
019800
039C00
039C00
030E00
070E00
070600
060700
0E0700
0E0300
1C0380
1C0380
1C01C0
3801C0
3801C0
3800E0
7000E0
7000E0
700070
E00070
ENDCHAR
STARTCHAR 039C
ENCODING 924
SWIDTH 900 0
DWIDTH 30 0
BBX 24 24 3 0
BITMAP
F8001F
F8001F
FC001F
FC003F
FC003F
EE0037
EE0077
E60067
E700E7
E700E7
E380C7
E381C7
E381C7
E1C387
E1C387
E0C307
E0E707
E0E707
E07607
E07E07
E07E07
E03C07
E03C07
E01807
ENDCHAR
STARTCHAR 039D
ENCODING 925
SWIDTH 750 0
DWIDTH 25 0
BBX 19 24 3 0
BITMAP
F000E0
F800E0
F800E0
FC00E0
FC00E0
EE00E0
EF00E0
E700E0
E380E0
E3C0E0
E1C0E0
E0E0E0
E0F0E0
E070E0
E078E0
E03CE0
E01CE0
E01EE0
E00EE0
E007E0
E007E0
E003E0
E001E0
E001E0
ENDCHAR
STARTCHAR 039E
ENCODING 926
SWIDTH 600 0
DWIDTH 20 0
BBX 17 24 2 0
BITMAP
7FFF00
7FFF00
7FFF00
000000
000000
000000
000000
000000
000000
000000
3FFE00
3FFE00
3FFE00
000000
000000
000000
000000
000000
000000
000000
000000
FFFF80
FFFF80
FFFF80
ENDCHAR
STARTCHAR 039F
ENCODING 927
SWIDTH 780 0
DWIDTH 26 0
BBX 22 24 2 0
BITMAP
01FE00
07FF80
1FFFE0
3E01E0
3C00F0
780078
700038
700038
F0003C
E0001C
E0001C
E0001C
E0001C
E0001C
E0001C
F0003C
700038
700038
780078
380070
3E00F0
1F87E0
0FFFC0
03FF00
ENDCHAR
STARTCHAR 03A0
ENCODING 928
SWIDTH 720 0
DWIDTH 24 0
BBX 18 24 3 0
BITMAP
FFFFC0
FFFFC0
FFFFC0
E001C0
E001C0
E001C0
E001C0
E001C0
E001C0
E001C0
E001C0
E001C0
E001C0
E001C0
E001C0
E001C0
E001C0
E001C0
E001C0
E001C0
E001C0
E001C0
E001C0
E001C0
ENDCHAR
STARTCHAR 03A1
ENCODING 929
SWIDTH 600 0
DWIDTH 20 0
BBX 15 24 3 0
BITMAP
FF80
FFF8
FFFC
E03E
E01E
E00E
E00E
E00E
E00E
E00E
E01E
E03C
FFF8
FFF0
FF80
E000
E000
E000
E000
E000
E000
E000
E000
E000
ENDCHAR
STARTCHAR 03A3
ENCODING 931
SWIDTH 570 0
DWIDTH 19 0
BBX 17 24 1 0
BITMAP
7FFF00
7FFF00
7FFF00
780000
3C0000
1E0000
0F0000
070000
078000
03C000
01E000
00E000
01E000
01C000
038000
070000
0F0000
1E0000
1C0000
380000
700000
FFFF80
FFFF80
FFFF80
ENDCHAR
STARTCHAR 03A4
ENCODING 932
SWIDTH 540 0
DWIDTH 18 0
BBX 18 24 0 0
BITMAP
FFFFC0
FFFFC0
FFFFC0
00E000
00E000
00E000
00E000
00E000
00E000
00E000
00E000
00E000
00E000
00E000
00E000
00E000
00E000
00E000
00E000
00E000
00E000
00E000
00E000
00E000
ENDCHAR
STARTCHAR 03A5
ENCODING 933
SWIDTH 540 0
DWIDTH 18 0
BBX 19 24 0 0
BITMAP
E001E0
7001C0
7003C0
380380
3C0780
1C0700
1E0E00
0E0E00
0F1C00
071C00
03B800
03B800
01F000
01F000
00E000
00E000
00E000
00E000
00E000
00E000
00E000
00E000
00E000
00E000
ENDCHAR
STARTCHAR 03A6
ENCODING 934
SWIDTH 840 0
DWIDTH 28 0
BBX 24 24 2 0
BITMAP
001C00
001C00
003E00
07FFE0
1FFFF8
3E1C7C
781C1E
701C0F
E01C07
E01C07
E01C07
E01C07
E01C07
E01C07
E01C07
F01C0F
781C0E
3C1C3C
1FDFFC
0FFFF0
03FFC0
001C00
001C00
001C00
ENDCHAR
STARTCHAR 03A7
ENCODING 935
SWIDTH 570 0
DWIDTH 19 0
BBX 19 24 0 0
BITMAP
7001E0
7801C0
380380
1C0380
1E0700
0E0E00
070E00
079C00
03B800
01F800
01F000
00F000
01F000
01F800
03B800
039C00
071E00
0E0E00
0E0700
1C0780
380380
3803C0
7001C0
F000E0
ENDCHAR
STARTCHAR 03A8
ENCODING 936
SWIDTH 810 0
DWIDTH 27 0
BBX 21 24 3 0
BITMAP
E07038
E07038
E07038
E07038
E07038
E07038
E07038
E07038
E07038
E07038
E07038
F07038
707078
787070
3C71F0
1FFFE0
0FFF80
01FC00
007000
007000
007000
007000
007000
007000
ENDCHAR
STARTCHAR 03A9
ENCODING 937
SWIDTH 690 0
DWIDTH 23 0
BBX 22 24 1 0
BITMAP
01FE00
07FF80
1FFFC0
3E01E0
3C00F0
780078
700038
F00038
E0003C
E0001C
E0001C
E0001C
E0001C
E0001C
F00038
700038
700038
380070
3800F0
1C00E0
0E01C0
FF87FC
FF87FC
FF87FC
ENDCHAR
STARTCHAR 03AA
ENCODING 938
SWIDTH 330 0
DWIDTH 11 0
BBX 9 30 1 0
BITMAP
E380
E380
E180
0000
0000
0000
FF80
FF80
1E00
1C00
1C00
1C00
1C00
1C00
1C00
1C00
1C00
1C00
1C00
1C00
1C00
1C00
1C00
1C00
1C00
1C00
1C00
1C00
FF80
FF80
ENDCHAR
STARTCHAR 03AB
ENCODING 939
SWIDTH 540 0
DWIDTH 18 0
BBX 19 30 0 0
BITMAP
071C00
071C00
071C00
000000
000000
000000
E001E0
7001C0
7003C0
380380
3C0780
1C0700
1E0E00
0E0E00
0F1C00
071C00
03B800
03B800
01F000
01F000
00E000
00E000
00E000
00E000
00E000
00E000
00E000
00E000
00E000
00E000
ENDCHAR
STARTCHAR 03AC
ENCODING 940
SWIDTH 600 0
DWIDTH 20 0
BBX 18 26 2 0
BITMAP
00F000
00F000
00E000
00C000
01C000
018000
000000
000000
0FC700
3FF700
3C7F00
701F00
700F00
E00F00
E00700
E00700
E00700
E00700
E00700
E00700
E00F00
F00F00
701F00
7C3F00
3FF7C0
0FE3C0
ENDCHAR
STARTCHAR 03AD
ENCODING 941
SWIDTH 450 0
DWIDTH 15 0
BBX 12 26 2 0
BITMAP
01E0
01E0
01C0
0180
0380
0300
0000
0000
1FE0
7FF0
7870
E000
E000
E000
F000
7E00
1F80
3F80
F000
E000
E000
E000
E000
F830
7FF0
3FF0
ENDCHAR
STARTCHAR 03AE
ENCODING 942
SWIDTH 600 0
DWIDTH 20 0
BBX 15 34 3 -8
BITMAP
03C0
0380
0700
0700
0600
0E00
0000
0000
C7F0
CFF8
FC7C
F01C
F01C
E00E
E00E
E00E
E00E
E00E
E00E
E00E
E00E
E00E
E00E
E00E
E00E
E00E
000E
000E
000E
000E
000E
000E
000E
000E
ENDCHAR
STARTCHAR 03AF
ENCODING 943
SWIDTH 330 0
DWIDTH 11 0
BBX 7 26 3 0
BITMAP
3C
38
38
70
70
60
00
00
E0
E0
E0
E0
E0
E0
E0
E0
E0
E0
E0
E0
E0
E0
E0
F0
7E
3E
ENDCHAR
STARTCHAR 03B0
ENCODING 944
SWIDTH 570 0
DWIDTH 19 0
BBX 15 26 3 0
BITMAP
01C0
03C0
3BB8
3BB8
3B18
0300
0000
0000
E01C
E01C
E01C
E01C
E01C
E00E
E00E
E00E
E00E
E00E
E01E
E01C
E01C
E01C
E038
F078
7FF0
3FC0
ENDCHAR
STARTCHAR 03B1
ENCODING 945
SWIDTH 600 0
DWIDTH 20 0
BBX 18 18 2 0
BITMAP
0FC700
3FF700
3C7F00
701F00
700F00
E00F00
E00700
E00700
E00700
E00700
E00700
E00700
E00F00
F00F00
701F00
7C3F00
3FF7C0
0FE3C0
ENDCHAR
STARTCHAR 03B2
ENCODING 946
SWIDTH 600 0
DWIDTH 20 0
BBX 16 34 3 -8
BITMAP
0100
1FF0
3FF8
783C
F01C
E01C
E01E
E01E
E01C
E01C
E038
E0F0
E7C0
E7F8
E03C
E00E
E00E
E006
E007
E007
E00E
E00E
E01E
F83C
FFF8
FFF0
E000
E000
E000
E000
E000
E000
E000
E000
ENDCHAR
STARTCHAR 03B3
ENCODING 947
SWIDTH 510 0
DWIDTH 17 0
BBX 16 25 0 -7
BITMAP
E007
E007
7007
7007
3807
3807
3807
1C06
1C0E
1C0E
0E0C
0E1C
0E18
0738
0770
07F0
03E0
03C0
0380
0380
0380
0380
0380
0380
0380
ENDCHAR
STARTCHAR 03B4
ENCODING 948
SWIDTH 570 0
DWIDTH 19 0
BBX 17 25 1 1
BITMAP
03FC00
0FFF00
0E0700
1C0200
1C0000
1C0000
0E0000
0F8000
07C000
03F000
0FFC00
1E1E00
380E00
780700
700700
700380
700380
F00380
700380
700380
700700
780F00
3E1E00
1FFC00
07F800
ENDCHAR
STARTCHAR 03B5
ENCODING 949
SWIDTH 450 0
DWIDTH 15 0
BBX 12 18 2 0
BITMAP
1FE0
7FF0
7870
E000
E000
E000
F000
7E00
1F80
3F80
F000
E000
E000
E000
E000
F830
7FF0
3FF0
ENDCHAR
STARTCHAR 03B6
ENCODING 950
SWIDTH 450 0
DWIDTH 15 0
BBX 13 32 2 -7
BITMAP
7FF8
7FF8
0070
0070
00E0
01C0
0380
0780
0700
0E00
1C00
1C00
3800
7000
7000
E000
E000
E000
E000
E000
E000
F800
7E00
3FE0
0FF0
00F8
0038
0038
0038
0038
0070
0070
ENDCHAR
STARTCHAR 03B7
ENCODING 951
SWIDTH 600 0
DWIDTH 20 0
BBX 15 26 3 -8
BITMAP
C7F0
CFF8
FC7C
F01C
F01C
E00E
E00E
E00E
E00E
E00E
E00E
E00E
E00E
E00E
E00E
E00E
E00E
E00E
000E
000E
000E
000E
000E
000E
000E
000E
ENDCHAR
STARTCHAR 03B8
ENCODING 952
SWIDTH 570 0
DWIDTH 19 0
BBX 16 25 2 1
BITMAP
0FF0
1FF8
3C3C
781C
700E
700E
E00E
E007
E007
E007
E007
FFFF
FFFF
E007
E007
E007
E007
E007
E00E
700E
700E
381C
3C3C
1FF8
0FF0
ENDCHAR
STARTCHAR 03B9
ENCODING 953
SWIDTH 330 0
DWIDTH 11 0
BBX 7 18 3 0
BITMAP
E0
E0
E0
E0
E0
E0
E0
E0
E0
E0
E0
E0
E0
E0
E0
F0
7E
3E
ENDCHAR
STARTCHAR 03BA
ENCODING 954
SWIDTH 510 0
DWIDTH 17 0
BBX 14 18 3 0
BITMAP
E03C
E078
E0F0
E0E0
E1C0
E380
E780
EF00
FF00
FF00
F380
E3C0
E1C0
E0E0
E0F0
E078
E038
E01C
ENDCHAR
STARTCHAR 03BB
ENCODING 955
SWIDTH 510 0
DWIDTH 17 0
BBX 17 26 0 0
BITMAP
200000
FC0000
FE0000
0F0000
070000
038000
038000
01C000
01C000
03C000
03E000
03E000
076000
077000
0E7000
0E3800
0E3800
1C3800
1C1C00
1C1C00
381C00
380E00
380E00
700F00
700780
F00780
ENDCHAR
STARTCHAR 03BC
ENCODING 956
SWIDTH 600 0
DWIDTH 20 0
BBX 17 26 3 -8
BITMAP
E00E00
E00E00
E00E00
E00E00
E00E00
E00E00
E00E00
E00E00
E00E00
E00E00
E00E00
E00E00
E01E00
E01E00
F03E00
F87E00
FFEF80
EFC780
E00000
E00000
E00000
E00000
E00000
E00000
E00000
E00000
ENDCHAR
STARTCHAR 03BD
ENCODING 957
SWIDTH 510 0
DWIDTH 17 0
BBX 16 18 0 0
BITMAP
E007
E007
7007
7007
3807
3807
3807
1C06
1C0E
1C0E
0E0C
0E1C
0E1C
0738
0770
07F0
03E0
03C0
ENDCHAR
STARTCHAR 03BE
ENCODING 958
SWIDTH 480 0
DWIDTH 16 0
BBX 13 32 2 -7
BITMAP
7FF8
7FF8
0E00
3800
3000
7000
7000
7000
7000
3800
3F80
0FF8
1FF8
3800
7000
E000
E000
E000
E000
E000
E000
F800
7E00
3FE0
0FF0
00F8
0038
0038
0038
0038
0070
0070
ENDCHAR
STARTCHAR 03BF
ENCODING 959
SWIDTH 600 0
DWIDTH 20 0
BBX 16 18 2 0
BITMAP
0FF0
1FF8
3E7C
780E
700F
E007
E007
E007
E007
E007
E007
E007
E007
700F
700E
3C3C
1FFC
0FF0
ENDCHAR
STARTCHAR 03C0
ENCODING 960
SWIDTH 630 0
DWIDTH 21 0
BBX 20 18 1 0
BITMAP
FFFFF0
FFFFF0
1C0380
1C0380
1C0380
1C0380
1C0380
1C0380
1C0380
1C0380
1C0380
1C0380
1C0380
1C0380
1C0380
1C0380
1C03F0
1C01F0
ENDCHAR
STARTCHAR 03C1
ENCODING 961
SWIDTH 600 0
DWIDTH 20 0
BBX 16 26 2 -8
BITMAP
07F0
1FF8
3E7C
781E
700E
7007
E007
E007
E007
E007
E007
E007
E007
E00E
F00E
FC3C
FFF8
EFF0
E000
E000
E000
E000
E000
E000
E000
E000
ENDCHAR
STARTCHAR 03C2
ENCODING 962
SWIDTH 480 0
DWIDTH 16 0
BBX 13 25 2 -7
BITMAP
0FF0
1FF8
3E70
7800
7000
E000
E000
E000
E000
E000
E000
E000
E000
7000
7800
3E00
1FE0
07F0
00F8
0038
0038
0038
0038
0070
0070
ENDCHAR
STARTCHAR 03C3
ENCODING 963
SWIDTH 600 0
DWIDTH 20 0
BBX 17 18 2 0
BITMAP
03FF80
1FFF80
3F9800
781C00
700E00
E00E00
E00700
E00700
E00700
E00700
E00700
E00700
E00700
F00E00
701E00
3C3C00
3FF800
0FF000
ENDCHAR
STARTCHAR 03C4
ENCODING 964
SWIDTH 480 0
DWIDTH 16 0
BBX 14 18 1 0
BITMAP
FFFC
FFFC
0E00
0E00
0E00
0E00
0E00
0E00
0E00
0E00
0E00
0E00
0E00
0E00
0F00
0780
07F8
03F8
ENDCHAR
STARTCHAR 03C5
ENCODING 965
SWIDTH 570 0
DWIDTH 19 0
BBX 15 18 3 0
BITMAP
E01C
E01C
E01C
E01C
E01C
E00E
E00E
E00E
E00E
E00E
E01E
E01C
E01C
E01C
E038
F078
7FF0
3FC0
ENDCHAR
STARTCHAR 03C6
ENCODING 966
SWIDTH 720 0
DWIDTH 24 0
BBX 20 33 2 -8
BITMAP
007000
007000
007000
007000
007000
007000
007000
03FC00
1FFF80
3E77C0
7871E0
7070E0
F07070
E07070
E07070
E07070
E07070
E07070
E07070
E07070
7070E0
7871E0
3E77C0
1FFF80
07FE00
007000
007000
007000
007000
007000
007000
007000
007000
ENDCHAR
STARTCHAR 03C7
ENCODING 967
SWIDTH 570 0
DWIDTH 19 0
BBX 19 26 1 -8
BITMAP
F001C0
F801C0
F80380
1C0380
1C0700
0E0E00
0E0E00
071C00
071C00
03B800
03B000
01F000
01E000
01E000
01E000
03F000
03F000
077800
0E3800
0E3800
1C1C00
381C00
380E00
700FA0
7007E0
E003E0
ENDCHAR
STARTCHAR 03C8
ENCODING 968
SWIDTH 720 0
DWIDTH 24 0
BBX 20 33 3 -8
BITMAP
00E000
00E000
00E000
00E000
00E000
00E000
00E000
E0E0E0
E0E0E0
E0E0E0
E0E0E0
E0E060
E0E070
E0E070
E0E070
E0E070
E0E070
E0E070
E0E0E0
E0E0E0
E0E0E0
70E1C0
7CE7C0
3FFF00
0FFE00
00E000
00E000
00E000
00E000
00E000
00E000
00E000
00E000
ENDCHAR
STARTCHAR 03C9
ENCODING 969
SWIDTH 780 0
DWIDTH 26 0
BBX 23 18 2 0
BITMAP
1C0070
380038
380038
700018
70001C
60001C
E0381C
E0381C
E0380C
E0380E
E0380C
E0381C
E0381C
70381C
70783C
38EC78
3FCFF0
1FC7E0
ENDCHAR
STARTCHAR 03CA
ENCODING 970
SWIDTH 330 0
DWIDTH 11 0
BBX 10 24 0 0
BITMAP
E380
E380
E380
0000
0000
0000
1C00
1C00
1C00
1C00
1C00
1C00
1C00
1C00
1C00
1C00
1C00
1C00
1C00
1C00
1C00
1E00
0FC0
07C0
ENDCHAR
STARTCHAR 03CB
ENCODING 971
SWIDTH 570 0
DWIDTH 19 0
BBX 15 24 3 0
BITMAP
38E0
38E0
30E0
0000
0000
0000
E01C
E01C
E01C
E01C
E01C
E00E
E00E
E00E
E00E
E00E
E01E
E01C
E01C
E01C
E038
F078
7FF0
3FC0
ENDCHAR
STARTCHAR 03CC
ENCODING 972
SWIDTH 600 0
DWIDTH 20 0
BBX 16 26 2 0
BITMAP
0078
0070
00E0
00E0
00C0
01C0
0000
0000
0FF0
1FF8
3E7C
780E
700F
E007
E007
E007
E007
E007
E007
E007
E007
700F
700E
3C3C
1FFC
0FF0
ENDCHAR
STARTCHAR 03CD
ENCODING 973
SWIDTH 570 0
DWIDTH 19 0
BBX 15 26 3 0
BITMAP
01E0
01C0
01C0
0380
0300
0300
0000
0000
E01C
E01C
E01C
E01C
E01C
E00E
E00E
E00E
E00E
E00E
E01E
E01C
E01C
E01C
E038
F078
7FF0
3FC0
ENDCHAR
STARTCHAR 03CE
ENCODING 974
SWIDTH 780 0
DWIDTH 26 0
BBX 23 26 2 0
BITMAP
000F00
000E00
000E00
001C00
001800
001800
000000
000000
1C0070
380038
380038
700018
70001C
60001C
E0381C
E0381C
E0380C
E0380E
E0380C
E0381C
E0381C
70381C
70783C
38EC78
3FCFF0
1FC7E0
ENDCHAR
STARTCHAR 03CF
ENCODING 975
SWIDTH 600 0
DWIDTH 20 0
BBX 18 32 3 -8
BITMAP
E00780
E00700
E00E00
E01C00
E03800
E07000
E0F000
E1E000
E3C000
E78000
EF0000
EF8000
FF8000
FBC000
F1E000
E0E000
E07000
E07800
E03C00
E01C00
E01E00
E00F00
E00780
E00380
0003C0
000380
000780
000700
C01F00
FFFE00
FFFC00
1FE000
ENDCHAR
STARTCHAR 03D0
ENCODING 976
SWIDTH 630 0
DWIDTH 21 0
BBX 17 25 3 1
BITMAP
07F800
0FFC00
1E1E00
380E00
380E00
7E1E00
7FFC00
E7F800
E00000
E00000
E3F000
EFFC00
FC3E00
F00F00
E00700
E00700
E00380
E00380
E00700
600700
700700
700E00
3C1E00
1FFC00
0FF000
ENDCHAR
STARTCHAR 03D1
ENCODING 977
SWIDTH 600 0
DWIDTH 20 0
BBX 20 25 0 1
BITMAP
03FC00
07FE00
0F0F00
0E0700
0E0380
0E0380
0E0380
0701C0
07C1C0
01FFF0
007FF0
7801C0
FC01C0
1C01C0
1C01C0
1C01C0
1C01C0
1C01C0
1C01C0
1C0380
1C0380
1C0700
0E1F00
0FFE00
07F800
ENDCHAR
STARTCHAR 03D2
ENCODING 978
SWIDTH 570 0
DWIDTH 19 0
BBX 19 24 0 0
BITMAP
E000E0
7001E0
7003E0
380380
3C0700
1C0700
1E0E00
0E0E00
0F1C00
071C00
03B800
03B800
01F000
01F000
00E000
00E000
00E000
00E000
00E000
00E000
00E000
00E000
00E000
00E000
ENDCHAR
STARTCHAR 03D3
ENCODING 979
SWIDTH 780 0
DWIDTH 26 0
BBX 26 24 0 0
BITMAP
39C001C0
38E003C0
70E007C0
70700700
60780E00
E0380E00
003C1C00
001C1C00
001E3800
000E3800
00077000
00077000
0003E000
0003E000
0001C000
0001C000
0001C000
0001C000
0001C000
0001C000
0001C000
0001C000
0001C000
0001C000
ENDCHAR
STARTCHAR 03D4
ENCODING 980
SWIDTH 570 0
DWIDTH 19 0
BBX 19 30 0 0
BITMAP
071C00
071C00
071C00
000000
000000
000000
E000E0
7001E0
7003E0
380380
3C0700
1C0700
1E0E00
0E0E00
0F1C00
071C00
03B800
03B800
01F000
01F000
00E000
00E000
00E000
00E000
00E000
00E000
00E000
00E000
00E000
00E000
ENDCHAR
STARTCHAR 03D5
ENCODING 981
SWIDTH 720 0
DWIDTH 24 0
BBX 20 33 2 -8
BITMAP
007000
007000
007000
007000
007000
007000
007000
03FC00
1FFF80
3E77C0
7871E0
7070E0
F07070
E07070
E07070
E07070
E07070
E07070
E07070
E07070
7070E0
7871E0
3E77C0
1FFF80
07FE00
007000
007000
007000
007000
007000
007000
007000
007000
ENDCHAR
STARTCHAR 03D6
ENCODING 982
SWIDTH 840 0
DWIDTH 28 0
BBX 27 18 1 0
BITMAP
FFFFFFE0
FFFFFFE0
FFFFFFE0
1C000600
1C000700
18000700
38000700
380E0700
380E0700
380E0300
380E0700
380E0700
380E0700
1C0E0700
1C1E0F00
0E3B1E00
0FF3FC00
07F1F800
ENDCHAR
STARTCHAR 03D7
ENCODING 983
SWIDTH 510 0
DWIDTH 17 0
BBX 14 24 3 -6
BITMAP
E03C
E078
E0F0
E0E0
E1C0
E380
E780
EF00
FF00
FF00
F380
E3C0
E1C0
E0E0
E0F0
E078
E038
E01C
001C
001C
003C
8078
FFF0
7FE0
ENDCHAR
STARTCHAR 03D8
ENCODING 984
SWIDTH 750 0
DWIDTH 25 0
BBX 21 24 2 0
BITMAP
03FE00
0FFF80
1FDFE0
3C01E0
7800F0
700078
F00038
E00038
E00038
E00038
E00038
E00038
F00038
700078
780070
3800F0
3E03E0
1FFFC0
07FF80
00FC00
007000
007000
007000
007000
ENDCHAR
STARTCHAR 03D9
ENCODING 985
SWIDTH 600 0
DWIDTH 20 0
BBX 16 26 2 -8
BITMAP
0FF0
1FF8
3E7C
780E
700F
E007
E007
E007
E007
E007
E007
E007
E007
700F
700E
3C3C
1FF8
0FF0
01C0
01C0
01C0
01C0
01C0
01C0
01C0
01C0
ENDCHAR
STARTCHAR 03DA
ENCODING 986
SWIDTH 630 0
DWIDTH 21 0
BBX 18 24 2 0
BITMAP
01FF00
0FFFC0
1FFF80
3E0080
780000
700000
F00000
E00000
E00000
E00000
E00000
E00000
F00000
700000
780000
3C0000
1FE000
0FF000
03F000
007000
007000
007000
007000
007000
ENDCHAR
STARTCHAR 03DB
ENCODING 987
SWIDTH 480 0
DWIDTH 16 0
BBX 13 25 2 -7
BITMAP
0FF0
1FF8
3E70
7800
7000
E000
E000
E000
E000
E000
E000
E000
E000
F000
7800
3F00
1FC0
07F0
00F0
0038
0038
0030
18F0
1FE0
1FC0
ENDCHAR
STARTCHAR 03DC
ENCODING 988
SWIDTH 480 0
DWIDTH 16 0
BBX 13 24 3 0
BITMAP
FFF8
FFF8
FFF8
E000
E000
E000
E000
E000
E000
E000
E000
FFF0
FFF0
FFF0
E030
E030
E030
E030
E000
E000
E000
E000
E000
E000
ENDCHAR
STARTCHAR 03DD
ENCODING 989
SWIDTH 510 0
DWIDTH 17 0
BBX 13 26 3 -8
BITMAP
FFF8
FFF8
FFF8
E000
E000
E000
E000
E000
E000
E000
FFF0
FFF0
E030
E030
E030
E030
E030
E000
E000
E000
E000
E000
E000
E000
E000
E000
ENDCHAR
STARTCHAR 03DE
ENCODING 990
SWIDTH 480 0
DWIDTH 16 0
BBX 16 24 0 0
BITMAP
F800
FC00
3C00
1C00
1C00
1C00
1C00
1C00
3800
3800
3FFE
7FFE
7FFE
001C
001C
001C
0038
0038
0038
0038
0038
0038
003F
001F
ENDCHAR
STARTCHAR 03DF
ENCODING 991
SWIDTH 540 0
DWIDTH 18 0
BBX 15 33 2 -7
BITMAP
FC00
7E00
0E00
0E00
0E00
0E00
1C00
1C00
3800
3800
3800
7000
700E
71FE
FFFE
FFFC
FC1C
801C
0038
0038
0038
0070
0070
0060
00E0
00E0
01C0
01C0
01C0
01C0
01F4
00FC
007C
ENDCHAR
STARTCHAR 03E0
ENCODING 992
SWIDTH 570 0
DWIDTH 19 0
BBX 18 24 0 0
BITMAP
3FE000
FFF000
FDFC00
403E00
007E00
00FF00
03E700
0F8780
0F0380
0C0380
000F80
003F80
00FF80
01F380
01C3C0
000380
000380
000380
000380
000380
000780
000700
000700
000F00
ENDCHAR
STARTCHAR 03E1
ENCODING 993
SWIDTH 510 0
DWIDTH 17 0
BBX 18 34 -3 -8
BITMAP
800000
F00000
FE0000
7F0000
0FC000
01E000
00F000
007800
003C00
001E00
007E00
07FF00
07C700
060380
000380
000380
0007C0
003FC0
01FFC0
01F1C0
0181C0
0001C0
0001C0
0001C0
0001C0
0001C0
0001C0
0001C0
0001C0
000380
000380
000380
000700
000700
ENDCHAR
STARTCHAR 03F0
ENCODING 1008
SWIDTH 660 0
DWIDTH 22 0
BBX 21 18 1 0
BITMAP
F800E0
FC01E0
1E03C0
0E03C0
0E07C0
0E0F80
071F80
073B80
073B80
067380
0EE380
0FC380
0FC380
0F8380
0F0380
1E01C0
1C01F8
3C00F8
ENDCHAR
STARTCHAR 03F1
ENCODING 1009
SWIDTH 600 0
DWIDTH 20 0
BBX 16 26 2 -8
BITMAP
07F0
1FF8
3E7C
781E
700E
7007
E007
E007
E007
E007
E007
E007
E00F
E00E
F81E
FFFC
EFF0
E1C0
E000
7000
7800
3FF0
1FF8
02FC
001C
001C
ENDCHAR
STARTCHAR 03F2
ENCODING 1010
SWIDTH 480 0
DWIDTH 16 0
BBX 13 18 2 0
BITMAP
0FF0
1FF8
3E70
7800
7000
E000
E000
E000
E000
E000
E000
E000
E000
F000
7000
3C18
3FF8
0FF0
ENDCHAR
STARTCHAR 03F3
ENCODING 1011
SWIDTH 240 0
DWIDTH 8 0
BBX 8 32 -2 -7
BITMAP
07
07
07
00
00
00
07
07
07
07
07
07
07
07
07
07
07
07
07
07
07
07
07
07
07
07
07
07
0F
DE
FE
F8
ENDCHAR
STARTCHAR 03F4
ENCODING 1012
SWIDTH 780 0
DWIDTH 26 0
BBX 22 24 2 0
BITMAP
01FE00
07FF80
1FFFE0
3E01E0
3C00F0
780078
700038
700038
F0003C
E0001C
E0001C
FFFFFC
FFFFFC
E0001C
E0001C
F0003C
700038
700038
780078
380070
3C00F0
1F87E0
0FFFC0
03FF00
ENDCHAR
STARTCHAR 03F5
ENCODING 1013
SWIDTH 480 0
DWIDTH 16 0
BBX 13 18 2 0
BITMAP
07F8
1FF8
3E38
7800
7000
E000
E000
E000
FFF0
FFF0
E000
E000
E000
F000
7000
3C18
1FF8
0FF8
ENDCHAR
STARTCHAR 03F6
ENCODING 1014
SWIDTH 480 0
DWIDTH 16 0
BBX 14 18 1 0
BITMAP
7F80
FFE0
73F0
0070
0038
0038
0038
001C
3FFC
3FFC
001C
0038
0038
0038
0070
C1F0
FFE0
FF80
ENDCHAR
STARTCHAR 03F7
ENCODING 1015
SWIDTH 600 0
DWIDTH 20 0
BBX 15 24 3 0
BITMAP
E000
E000
E000
E000
FF00
FFF0
FFFC
E03C
E01E
E00E
E00E
E00E
E00E
E00E
E01E
E03C
FFF8
FFF0
FFC0
E000
E000
E000
E000
E000
ENDCHAR
STARTCHAR 03F8
ENCODING 1016
SWIDTH 600 0
DWIDTH 20 0
BBX 16 33 3 -8
BITMAP
E000
E000
E000
E000
E000
E000
E000
E7F0
EFF8
FC7C
F01E
F00E
E00E
E00E
E007
E007
E007
E007
E00E
E00E
F00E
F01E
FC3C
FFF8
E7F0
E000
E000
E000
E000
E000
E000
E000
E000
ENDCHAR
STARTCHAR 03F9
ENCODING 1017
SWIDTH 630 0
DWIDTH 21 0
BBX 18 24 2 0
BITMAP
01FF00
07FFC0
0FFF80
1E0080
3C0000
780000
700000
700000
F00000
E00000
E00000
E00000
E00000
E00000
E00000
F00000
700000
700000
780000
3C0000
3E0000
1F8380
0FFF80
03FF80
ENDCHAR
STARTCHAR 03FA
ENCODING 1018
SWIDTH 900 0
DWIDTH 30 0
BBX 24 24 3 0
BITMAP
F0000F
F8001F
FC001F
FC003F
EE0077
EE0077
E700E7
E381C7
E381C7
E1C387
E1E387
E0E707
E07E07
E07E07
E03C07
E03C07
E00007
E00007
E00007
E00007
E00007
E00007
E00007
E00007
ENDCHAR
STARTCHAR 03FB
ENCODING 1019
SWIDTH 720 0
DWIDTH 24 0
BBX 18 26 3 -8
BITMAP
F001C0
F003C0
F807C0
F807C0
FC0EC0
EE1CC0
EE1CC0
E738C0
E3F0C0
E3F0C0
E1E0C0
E0C0C0
E000C0
E000C0
E000C0
E000C0
E000C0
E000C0
E00000
E00000
E00000
E00000
E00000
E00000
E00000
E00000
ENDCHAR
STARTCHAR 03FC
ENCODING 1020
SWIDTH 600 0
DWIDTH 20 0
BBX 18 26 0 -8
BITMAP
01FC00
07FE00
0F9F00
1E0780
1C0380
1C01C0
3801C0
3801C0
3801C0
3801C0
3801C0
3801C0
3801C0
380380
3C0380
3F0F00
3FFE00
3BFC00
380000
380000
380000
FFF000
FFF000
380000
380000
380000
ENDCHAR
STARTCHAR 03FD
ENCODING 1021
SWIDTH 630 0
DWIDTH 21 0
BBX 18 24 1 0
BITMAP
3FE000
FFF800
7FFE00
401F00
000F00
000780
000380
000380
0003C0
0001C0
0001C0
0001C0
0001C0
0001C0
0001C0
0003C0
000380
000380
000780
000F00
001E00
707E00
7FF800
7FF000
ENDCHAR
STARTCHAR 03FE
ENCODING 1022
SWIDTH 630 0
DWIDTH 21 0
BBX 18 24 2 0
BITMAP
01FF00
07FFC0
0FFF80
1E0080
3C0000
780000
700000
700000
F00000
E00000
E03000
E07800
E07800
E07800
E00000
F00000
700000
700000
780000
3C0000
3E0000
1F8380
0FFF80
03FF80
ENDCHAR
STARTCHAR 03FF
ENCODING 1023
SWIDTH 630 0
DWIDTH 21 0
BBX 18 24 1 0
BITMAP
3FE000
FFF800
7FFE00
401F00
000F00
000780
000380
000380
0003C0
0001C0
0301C0
0781C0
0781C0
0781C0
0001C0
0003C0
000380
000380
000780
000F00
001E00
707E00
7FF800
7FF000
ENDCHAR
STARTCHAR 0400
ENCODING 1024
SWIDTH 540 0
DWIDTH 18 0
BBX 14 31 3 0
BITMAP
1E00
0E00
0700
0380
01C0
0000
0000
FFFC
FFFC
FFFC
E000
E000
E000
E000
E000
E000
E000
FFF8
FFF8
FFF8
E000
E000
E000
E000
E000
E000
E000
E000
FFFC
FFFC
FFFC
ENDCHAR
STARTCHAR 0401
ENCODING 1025
SWIDTH 540 0
DWIDTH 18 0
BBX 14 30 3 0
BITMAP
1870
3C70
1860
0000
0000
0000
FFFC
FFFC
FFFC
E000
E000
E000
E000
E000
E000
E000
FFF8
FFF8
FFF8
E000
E000
E000
E000
E000
E000
E000
E000
FFFC
FFFC
FFFC
ENDCHAR
STARTCHAR 0402
ENCODING 1026
SWIDTH 720 0
DWIDTH 24 0
BBX 22 24 0 0
BITMAP
FFFF00
FFFF00
FFFF00
038000
038000
038000
038000
038000
038000
03FF00
03FFF0
03FFF8
03803C
03801C
03801C
03801C
03801C
03801C
03801C
03801C
03801C
038278
0383F8
0383F0
ENDCHAR
STARTCHAR 0403
ENCODING 1027
SWIDTH 510 0
DWIDTH 17 0
BBX 14 31 3 0
BITMAP
00E0
01E0
01C0
0380
0700
0000
0000
FFFC
FFFC
FFFC
E000
E000
E000
E000
E000
E000
E000
E000
E000
E000
E000
E000
E000
E000
E000
E000
E000
E000
E000
E000
E000
ENDCHAR
STARTCHAR 0404
ENCODING 1028
SWIDTH 630 0
DWIDTH 21 0
BBX 18 24 2 0
BITMAP
01FF00
07FFC0
0FFFC0
1E0080
3C0000
780000
700000
700000
F00000
E00000
FFFE00
FFFE00
FFFE00
E00000
E00000
F00000
700000
700000
780000
3C0000
3E0000
1F83C0
0FFFC0
03FF80
ENDCHAR
STARTCHAR 0405
ENCODING 1029
SWIDTH 540 0
DWIDTH 18 0
BBX 15 24 2 0
BITMAP
0FF0
3FFC
7FFC
F000
E000
E000
E000
E000
F000
7800
3F00
1FC0
07F0
01F8
003C
001C
001E
000E
000E
001C
001C
F078
FFF8
FFE0
ENDCHAR
STARTCHAR 0406
ENCODING 1030
SWIDTH 330 0
DWIDTH 11 0
BBX 9 24 1 0
BITMAP
FF80
FF80
1E00
1C00
1C00
1C00
1C00
1C00
1C00
1C00
1C00
1C00
1C00
1C00
1C00
1C00
1C00
1C00
1C00
1C00
1C00
1C00
FF80
FF80
ENDCHAR
STARTCHAR 0407
ENCODING 1031
SWIDTH 330 0
DWIDTH 11 0
BBX 9 30 1 0
BITMAP
E380
E380
E180
0000
0000
0000
FF80
FF80
1E00
1C00
1C00
1C00
1C00
1C00
1C00
1C00
1C00
1C00
1C00
1C00
1C00
1C00
1C00
1C00
1C00
1C00
1C00
1C00
FF80
FF80
ENDCHAR
STARTCHAR 0408
ENCODING 1032
SWIDTH 270 0
DWIDTH 9 0
BBX 9 30 -3 -6
BITMAP
0380
0380
0380
0380
0380
0380
0380
0380
0380
0380
0380
0380
0380
0380
0380
0380
0380
0380
0380
0380
0380
0380
0380
0380
0380
0380
0780
8F00
FF00
FC00
ENDCHAR
STARTCHAR 0409
ENCODING 1033
SWIDTH 930 0
DWIDTH 31 0
BBX 30 24 0 0
BITMAP
01FFE000
01FFE000
01FFE000
01C0E000
01C0E000
01C0E000
0180E000
0380E000
0380E000
0380E000
0380FF00
0380FFE0
0380FFF0
0700E078
0700E038
0700E01C
0700E01C
0700E01C
0E00E01C
0E00E03C
0E00E078
1E00FFF0
FC00FFE0
F800FF80
ENDCHAR
STARTCHAR 040A
ENCODING 1034
SWIDTH 930 0
DWIDTH 31 0
BBX 28 24 3 0
BITMAP
E0070000
E0070000
E0070000
E0070000
E0070000
E0070000
E0070000
E0070000
E0070000
E0070000
FFFFFC00
FFFFFF80
FFFFFFC0
E00703E0
E00700E0
E00700F0
E0070070
E0070070
E00700F0
E00700E0
E00701E0
E007FFC0
E007FF80
E007FE00
ENDCHAR
STARTCHAR 040B
ENCODING 1035
SWIDTH 720 0
DWIDTH 24 0
BBX 22 24 0 0
BITMAP
FFFF80
FFFF80
FFFF80
038000
038000
038000
038000
038000
038000
03FF00
03FFF0
03FFF8
03807C
03801C
03801C
03801C
03801C
03801C
03801C
03801C
03801C
03801C
03801C
03801C
ENDCHAR
STARTCHAR 040C
ENCODING 1036
SWIDTH 600 0
DWIDTH 20 0
BBX 17 31 3 0
BITMAP
007000
00F000
00E000
01C000
038000
000000
000000
E00780
E00700
E00E00
E01C00
E03800
E07000
E0F000
E1E000
E3C000
E78000
EF0000
FE0000
EE0000
E70000
E38000
E3C000
E1E000
E0F000
E07800
E03C00
E01C00
E00E00
E00700
E00380
ENDCHAR
STARTCHAR 040D
ENCODING 1037
SWIDTH 750 0
DWIDTH 25 0
BBX 19 31 3 0
BITMAP
03C000
01C000
00E000
007000
003800
000000
000000
E000E0
E001E0
E001E0
E003E0
E007E0
E00760
E00E60
E01E60
E01C60
E03860
E07860
E07060
E0E060
E1E060
E1C060
E38060
E78060
E70060
EE0060
FE0060
FC0060
F80060
F80060
F00060
ENDCHAR
STARTCHAR 040E
ENCODING 1038
SWIDTH 600 0
DWIDTH 20 0
BBX 20 31 1 0
BITMAP
1C0700
0E0600
0F1E00
07FC00
03F800
000000
000000
E000F0
E000E0
7000E0
7001C0
3801C0
380380
1C0380
1C0780
0E0700
0E0700
070E00
070E00
039C00
039C00
01F800
01F800
00F800
00F000
00F000
00E000
01C000
6FC000
7F8000
7F0000
ENDCHAR
STARTCHAR 040F
ENCODING 1039
SWIDTH 720 0
DWIDTH 24 0
BBX 18 30 3 -6
BITMAP
E001C0
E001C0
E001C0
E001C0
E001C0
E001C0
E001C0
E001C0
E001C0
E001C0
E001C0
E001C0
E001C0
E001C0
E001C0
E001C0
E001C0
E001C0
E001C0
E001C0
E001C0
FFFFC0
FFFFC0
FFFFC0
00E000
00E000
00E000
00E000
00E000
00E000
ENDCHAR
STARTCHAR 0410
ENCODING 1040
SWIDTH 630 0
DWIDTH 21 0
BBX 21 24 0 0
BITMAP
007000
007800
00F800
00F800
00DC00
01DC00
01CC00
038E00
038E00
038700
070700
070700
0E0380
0E0380
0FFFC0
1FFFC0
1FFFC0
1C00E0
3800E0
3800F0
700070
700070
700038
E00038
ENDCHAR
STARTCHAR 0411
ENCODING 1041
SWIDTH 600 0
DWIDTH 20 0
BBX 16 24 3 0
BITMAP
FFFC
FFFC
FFFC
E000
E000
E000
E000
E000
E000
E000
FFC0
FFF8
FFFC
E01E
E00E
E00F
E007
E007
E00F
E00E
E01E
FFFC
FFF8
FFE0
ENDCHAR
STARTCHAR 0412
ENCODING 1042
SWIDTH 630 0
DWIDTH 21 0
BBX 17 24 3 0
BITMAP
FFE000
FFFC00
FFFE00
E01F00
E00F00
E00700
E00700
E00700
E00F00
E00E00
FFFC00
FFF000
FFFC00
E00F00
E00700
E00780
E00380
E00380
E00780
E00780
E00F00
FFFE00
FFFC00
FFF000
ENDCHAR
STARTCHAR 0413
ENCODING 1043
SWIDTH 510 0
DWIDTH 17 0
BBX 14 24 3 0
BITMAP
FFFC
FFFC
FFFC
E000
E000
E000
E000
E000
E000
E000
E000
E000
E000
E000
E000
E000
E000
E000
E000
E000
E000
E000
E000
E000
ENDCHAR
ENDFONT
